<svg width="315" height="441" viewBox="0 0 315 441" fill="none" xmlns="http://www.w3.org/2000/svg">
<rect width="315" height="441" fill="#223572"/>
<circle cx="155" cy="349" r="33" fill="#1BE7DC"/>
<path d="M174.7 345.503C177.445 347.026 177.445 350.974 174.7 352.497L147.941 367.352C145.275 368.832 142 366.904 142 363.855L142 334.145C142 331.096 145.275 329.168 147.941 330.648L174.7 345.503Z" fill="white"/>
<path d="M68.9219 241.971C68.8047 241.979 68.6797 241.982 68.5469 241.982C68.4141 241.982 68.2168 241.973 67.9551 241.953V245H66.4023V237.166C66.9492 237.096 67.6211 237.061 68.418 237.061C69.5039 237.061 70.3125 237.262 70.8438 237.664C71.3789 238.062 71.6465 238.68 71.6465 239.516C71.6465 240.164 71.4023 240.719 70.9141 241.18C70.7539 241.328 70.5703 241.457 70.3633 241.566L71.5586 244.086C71.793 244.605 71.9727 244.914 72.0977 245.012L72.0684 245.041C71.6895 244.979 71.0938 244.98 70.2812 245.047L68.9219 241.971ZM68.5293 238.443C68.3301 238.443 68.1387 238.453 67.9551 238.473V240.711C68.1465 240.738 68.3711 240.752 68.6289 240.752C68.8867 240.752 69.1035 240.73 69.2793 240.688C69.4551 240.641 69.6074 240.57 69.7363 240.477C70.0137 240.27 70.1523 239.959 70.1523 239.545C70.1523 239.131 70.0078 238.84 69.7188 238.672C69.4492 238.52 69.0527 238.443 68.5293 238.443ZM72.959 241.988C72.959 241.531 73.0371 241.107 73.1934 240.717C73.3496 240.326 73.5703 239.984 73.8555 239.691C74.4648 239.07 75.2617 238.76 76.2461 238.76C77.0781 238.76 77.7461 239.035 78.25 239.586C78.7461 240.117 78.9941 240.785 78.9941 241.59C78.9941 241.898 78.9707 242.109 78.9238 242.223C78.5332 242.332 77.7383 242.387 76.5391 242.387H74.4766C74.5781 242.805 74.8145 243.131 75.1855 243.365C75.5566 243.596 76.0391 243.711 76.6328 243.711C77.2539 243.711 77.7871 243.6 78.2324 243.377C78.3496 243.318 78.4375 243.264 78.4961 243.213C78.4883 243.377 78.4785 243.545 78.4668 243.717L78.4023 244.631C78.1055 244.834 77.625 244.975 76.9609 245.053C76.7656 245.076 76.5781 245.088 76.3984 245.088C75.4062 245.088 74.5859 244.799 73.9375 244.221C73.2852 243.639 72.959 242.895 72.959 241.988ZM77.4355 241.25C77.2754 240.41 76.8184 239.99 76.0645 239.99C75.4707 239.99 75.0195 240.246 74.7109 240.758C74.6172 240.914 74.5449 241.086 74.4941 241.273C74.5879 241.277 74.7031 241.281 74.8398 241.285H75.2734C75.418 241.289 75.5566 241.291 75.6895 241.291H76.0234C76.2227 241.291 76.418 241.289 76.6094 241.285L77.0898 241.268C77.2188 241.264 77.334 241.258 77.4355 241.25ZM84.3145 244.637C83.7598 244.938 83.2578 245.088 82.8086 245.088C82.3594 245.088 81.9746 245.047 81.6543 244.965C81.334 244.879 81.0625 244.754 80.8398 244.59C80.3867 244.258 80.1602 243.777 80.1602 243.148C80.1602 242.586 80.4375 242.117 80.9922 241.742C81.5938 241.336 82.4102 241.133 83.4414 241.133L83.6758 241.139C83.7227 241.143 83.7754 241.146 83.834 241.15C83.8926 241.15 83.9453 241.154 83.9922 241.162C83.9609 240.537 83.6914 240.172 83.1836 240.066C83.0156 240.031 82.8359 240.014 82.6445 240.014C82.457 240.014 82.2715 240.031 82.0879 240.066C81.9082 240.098 81.7324 240.141 81.5605 240.195C81.1816 240.316 80.9102 240.455 80.7461 240.611L80.7285 240.6L80.5527 239.305C81.2441 238.941 82 238.76 82.8203 238.76C84.0938 238.76 84.9082 239.219 85.2637 240.137C85.377 240.43 85.4336 240.76 85.4336 241.127V243.248C85.4336 243.701 85.5938 244.01 85.9141 244.174L84.8535 245.146C84.6309 245.029 84.4512 244.859 84.3145 244.637ZM83.998 242.217C83.8926 242.197 83.7832 242.188 83.6699 242.188H83.4355C82.5723 242.188 82.0234 242.379 81.7891 242.762C81.7188 242.875 81.6836 242.994 81.6836 243.119C81.6836 243.244 81.7051 243.355 81.748 243.453C81.7949 243.547 81.8711 243.625 81.9766 243.688C82.1797 243.805 82.4805 243.863 82.8789 243.863C83.2812 243.863 83.6562 243.768 84.0039 243.576C84 243.533 83.998 243.488 83.998 243.441V242.217ZM91.4688 244.672C90.9727 244.949 90.4766 245.088 89.9805 245.088C89.4844 245.088 89.0508 245.01 88.6797 244.854C88.3086 244.697 87.9922 244.482 87.7305 244.209C87.1914 243.646 86.9219 242.916 86.9219 242.018C86.9219 241.088 87.2344 240.314 87.8594 239.697C88.4883 239.072 89.293 238.76 90.2734 238.76C90.5742 238.76 90.8691 238.799 91.1582 238.877V236.27H92.5938V242.533C92.5938 243.053 92.6172 243.393 92.6641 243.553C92.7148 243.713 92.7695 243.83 92.8281 243.904C92.8906 243.979 92.9688 244.049 93.0625 244.115L91.9609 245.088C91.7578 244.979 91.5938 244.84 91.4688 244.672ZM90.2559 243.74C90.584 243.74 90.8848 243.678 91.1582 243.553V240.307C90.8848 240.193 90.5879 240.137 90.2676 240.137C89.9473 240.137 89.6719 240.18 89.4414 240.266C89.2148 240.352 89.0195 240.471 88.8555 240.623C88.5117 240.943 88.3398 241.359 88.3398 241.871C88.3398 242.43 88.4961 242.875 88.8086 243.207C89.1445 243.562 89.627 243.74 90.2559 243.74ZM100.99 243.711C101.494 243.711 101.84 243.58 102.027 243.318H102.074L102.092 244.678C101.9 244.869 101.545 244.996 101.025 245.059C100.885 245.078 100.709 245.088 100.498 245.088C100.291 245.088 100.064 245.049 99.8184 244.971C99.5762 244.893 99.3691 244.766 99.1973 244.59C98.8418 244.227 98.6641 243.658 98.6641 242.885V240.225H97.7793C97.7754 240.111 97.7734 239.996 97.7734 239.879V238.977C97.7734 238.91 97.7754 238.877 97.7793 238.877H98.6641V237.207H100.1V238.877H101.711V240.225H100.1V242.615C100.1 243.229 100.27 243.578 100.609 243.664C100.719 243.695 100.846 243.711 100.99 243.711ZM104.875 244.344C104.875 244.68 104.883 244.898 104.898 245H103.439V236.621H104.875V239.334C105.379 238.951 105.898 238.76 106.434 238.76C107.09 238.76 107.617 238.977 108.016 239.41C108.406 239.844 108.602 240.418 108.602 241.133V243.465C108.602 244.125 108.611 244.521 108.631 244.654C108.65 244.787 108.676 244.873 108.707 244.912C108.742 244.951 108.771 244.986 108.795 245.018L108.783 245.041C108.467 245.014 108.236 245 108.092 245H107.676C107.547 245 107.377 245.006 107.166 245.018V241.625C107.166 241.086 107.047 240.688 106.809 240.43C106.629 240.234 106.385 240.137 106.076 240.137C105.619 240.137 105.219 240.4 104.875 240.928V244.344ZM109.99 241.988C109.99 241.531 110.068 241.107 110.225 240.717C110.381 240.326 110.602 239.984 110.887 239.691C111.496 239.07 112.293 238.76 113.277 238.76C114.109 238.76 114.777 239.035 115.281 239.586C115.777 240.117 116.025 240.785 116.025 241.59C116.025 241.898 116.002 242.109 115.955 242.223C115.564 242.332 114.77 242.387 113.57 242.387H111.508C111.609 242.805 111.846 243.131 112.217 243.365C112.588 243.596 113.07 243.711 113.664 243.711C114.285 243.711 114.818 243.6 115.264 243.377C115.381 243.318 115.469 243.264 115.527 243.213C115.52 243.377 115.51 243.545 115.498 243.717L115.434 244.631C115.137 244.834 114.656 244.975 113.992 245.053C113.797 245.076 113.609 245.088 113.43 245.088C112.438 245.088 111.617 244.799 110.969 244.221C110.316 243.639 109.99 242.895 109.99 241.988ZM114.467 241.25C114.307 240.41 113.85 239.99 113.096 239.99C112.502 239.99 112.051 240.246 111.742 240.758C111.648 240.914 111.576 241.086 111.525 241.273C111.619 241.277 111.734 241.281 111.871 241.285H112.305C112.449 241.289 112.588 241.291 112.721 241.291H113.055C113.254 241.291 113.449 241.289 113.641 241.285L114.121 241.268C114.25 241.264 114.365 241.258 114.467 241.25ZM120.467 238.877H122.043L123.133 243.277L124.305 238.877H125.652L126.865 243.371L127.955 238.877H129.373L127.568 245H126.051L124.891 240.986L123.812 245H122.307L120.467 238.877ZM129.842 241.971C129.842 241.541 129.914 241.131 130.059 240.74C130.207 240.346 130.418 240.002 130.691 239.709C131.289 239.076 132.064 238.76 133.018 238.76C133.967 238.76 134.721 239.059 135.279 239.656C135.814 240.227 136.082 240.967 136.082 241.877C136.082 242.787 135.807 243.541 135.256 244.139C134.674 244.771 133.902 245.088 132.941 245.088C131.949 245.088 131.172 244.777 130.609 244.156C130.098 243.59 129.842 242.861 129.842 241.971ZM131.266 241.936C131.266 242.182 131.307 242.42 131.389 242.65C131.471 242.881 131.588 243.078 131.74 243.242C132.064 243.598 132.49 243.775 133.018 243.775C133.506 243.775 133.891 243.602 134.172 243.254C134.445 242.918 134.582 242.48 134.582 241.941C134.582 241.395 134.441 240.953 134.16 240.617C133.859 240.258 133.447 240.078 132.924 240.078C132.393 240.078 131.977 240.27 131.676 240.652C131.402 241.004 131.266 241.432 131.266 241.936ZM138.689 244.344C138.689 244.68 138.697 244.898 138.713 245H137.254V238.877H138.689V239.328C139.021 238.949 139.369 238.76 139.732 238.76C140.1 238.76 140.389 238.805 140.6 238.895L140.494 240.471L140.471 240.488C140.334 240.246 140.051 240.125 139.621 240.125C139.457 240.125 139.289 240.182 139.117 240.295C138.949 240.404 138.807 240.551 138.689 240.734V244.344ZM145.516 244.672C145.02 244.949 144.523 245.088 144.027 245.088C143.531 245.088 143.098 245.01 142.727 244.854C142.355 244.697 142.039 244.482 141.777 244.209C141.238 243.646 140.969 242.916 140.969 242.018C140.969 241.088 141.281 240.314 141.906 239.697C142.535 239.072 143.34 238.76 144.32 238.76C144.621 238.76 144.916 238.799 145.205 238.877V236.27H146.641V242.533C146.641 243.053 146.664 243.393 146.711 243.553C146.762 243.713 146.816 243.83 146.875 243.904C146.938 243.979 147.016 244.049 147.109 244.115L146.008 245.088C145.805 244.979 145.641 244.84 145.516 244.672ZM144.303 243.74C144.631 243.74 144.932 243.678 145.205 243.553V240.307C144.932 240.193 144.635 240.137 144.314 240.137C143.994 240.137 143.719 240.18 143.488 240.266C143.262 240.352 143.066 240.471 142.902 240.623C142.559 240.943 142.387 241.359 142.387 241.871C142.387 242.43 142.543 242.875 142.855 243.207C143.191 243.562 143.674 243.74 144.303 243.74ZM151.873 241.971C151.873 241.541 151.945 241.131 152.09 240.74C152.238 240.346 152.449 240.002 152.723 239.709C153.32 239.076 154.096 238.76 155.049 238.76C155.998 238.76 156.752 239.059 157.311 239.656C157.846 240.227 158.113 240.967 158.113 241.877C158.113 242.787 157.838 243.541 157.287 244.139C156.705 244.771 155.934 245.088 154.973 245.088C153.98 245.088 153.203 244.777 152.641 244.156C152.129 243.59 151.873 242.861 151.873 241.971ZM153.297 241.936C153.297 242.182 153.338 242.42 153.42 242.65C153.502 242.881 153.619 243.078 153.771 243.242C154.096 243.598 154.521 243.775 155.049 243.775C155.537 243.775 155.922 243.602 156.203 243.254C156.477 242.918 156.613 242.48 156.613 241.941C156.613 241.395 156.473 240.953 156.191 240.617C155.891 240.258 155.479 240.078 154.955 240.078C154.424 240.078 154.008 240.27 153.707 240.652C153.434 241.004 153.297 241.432 153.297 241.936ZM160.879 244.25C160.879 244.594 160.895 244.844 160.926 245H159.455V238.877H160.879V239.398C161.395 238.973 161.945 238.76 162.531 238.76C163.172 238.76 163.684 238.979 164.066 239.416C164.449 239.85 164.641 240.422 164.641 241.133V243.465C164.641 244.125 164.65 244.521 164.67 244.654C164.689 244.787 164.715 244.873 164.746 244.912C164.781 244.951 164.811 244.986 164.834 245.018L164.822 245.041C164.506 245.014 164.275 245 164.131 245H163.721C163.596 245 163.428 245.006 163.217 245.018V241.824C163.217 240.68 162.869 240.107 162.174 240.107C161.658 240.107 161.227 240.373 160.879 240.904V244.25ZM173.061 243.711C173.564 243.711 173.91 243.58 174.098 243.318H174.145L174.162 244.678C173.971 244.869 173.615 244.996 173.096 245.059C172.955 245.078 172.779 245.088 172.568 245.088C172.361 245.088 172.135 245.049 171.889 244.971C171.646 244.893 171.439 244.766 171.268 244.59C170.912 244.227 170.734 243.658 170.734 242.885V240.225H169.85C169.846 240.111 169.844 239.996 169.844 239.879V238.977C169.844 238.91 169.846 238.877 169.85 238.877H170.734V237.207H172.17V238.877H173.781V240.225H172.17V242.615C172.17 243.229 172.34 243.578 172.68 243.664C172.789 243.695 172.916 243.711 173.061 243.711ZM176.945 244.344C176.945 244.68 176.953 244.898 176.969 245H175.51V236.621H176.945V239.334C177.449 238.951 177.969 238.76 178.504 238.76C179.16 238.76 179.688 238.977 180.086 239.41C180.477 239.844 180.672 240.418 180.672 241.133V243.465C180.672 244.125 180.682 244.521 180.701 244.654C180.721 244.787 180.746 244.873 180.777 244.912C180.812 244.951 180.842 244.986 180.865 245.018L180.854 245.041C180.537 245.014 180.307 245 180.162 245H179.746C179.617 245 179.447 245.006 179.236 245.018V241.625C179.236 241.086 179.117 240.688 178.879 240.43C178.699 240.234 178.455 240.137 178.146 240.137C177.689 240.137 177.289 240.4 176.945 240.928V244.344ZM182.061 241.988C182.061 241.531 182.139 241.107 182.295 240.717C182.451 240.326 182.672 239.984 182.957 239.691C183.566 239.07 184.363 238.76 185.348 238.76C186.18 238.76 186.848 239.035 187.352 239.586C187.848 240.117 188.096 240.785 188.096 241.59C188.096 241.898 188.072 242.109 188.025 242.223C187.635 242.332 186.84 242.387 185.641 242.387H183.578C183.68 242.805 183.916 243.131 184.287 243.365C184.658 243.596 185.141 243.711 185.734 243.711C186.355 243.711 186.889 243.6 187.334 243.377C187.451 243.318 187.539 243.264 187.598 243.213C187.59 243.377 187.58 243.545 187.568 243.717L187.504 244.631C187.207 244.834 186.727 244.975 186.062 245.053C185.867 245.076 185.68 245.088 185.5 245.088C184.508 245.088 183.688 244.799 183.039 244.221C182.387 243.639 182.061 242.895 182.061 241.988ZM186.537 241.25C186.377 240.41 185.92 239.99 185.166 239.99C184.572 239.99 184.121 240.246 183.812 240.758C183.719 240.914 183.646 241.086 183.596 241.273C183.689 241.277 183.805 241.281 183.941 241.285H184.375C184.52 241.289 184.658 241.291 184.791 241.291H185.125C185.324 241.291 185.52 241.289 185.711 241.285L186.191 241.268C186.32 241.264 186.436 241.258 186.537 241.25ZM195.42 245.088C194.318 245.088 193.488 244.887 192.93 244.484C192.938 244.367 192.949 244.234 192.965 244.086L193.018 243.664C193.049 243.387 193.068 243.215 193.076 243.148C193.084 243.078 193.09 243.041 193.094 243.037C193.098 243.029 193.129 243.061 193.188 243.131C193.246 243.197 193.357 243.279 193.521 243.377C193.686 243.475 193.875 243.561 194.09 243.635C194.555 243.795 195.039 243.875 195.543 243.875C196.219 243.875 196.557 243.65 196.557 243.201C196.557 243.057 196.492 242.949 196.363 242.879C196.133 242.762 195.793 242.674 195.344 242.615C194.898 242.553 194.533 242.463 194.248 242.346C193.963 242.229 193.73 242.088 193.551 241.924C193.219 241.615 193.053 241.211 193.053 240.711C193.053 240.102 193.287 239.623 193.756 239.275C194.221 238.932 194.863 238.76 195.684 238.76C196.496 238.76 197.189 238.99 197.764 239.451C197.736 239.553 197.707 239.65 197.676 239.744C197.586 240.002 197.52 240.188 197.477 240.301L197.342 240.646C197.334 240.678 197.328 240.693 197.324 240.693C197.316 240.693 197.285 240.652 197.23 240.57C196.984 240.285 196.602 240.098 196.082 240.008C195.922 239.977 195.758 239.961 195.59 239.961C194.879 239.961 194.523 240.176 194.523 240.605C194.523 240.754 194.598 240.867 194.746 240.945C195.023 241.094 195.402 241.203 195.883 241.273C196.367 241.344 196.734 241.439 196.984 241.561C197.234 241.678 197.436 241.82 197.588 241.988C197.869 242.293 198.01 242.697 198.01 243.201C198.01 243.752 197.789 244.199 197.348 244.543C196.887 244.906 196.244 245.088 195.42 245.088ZM204.156 244.432C203.719 244.869 203.033 245.088 202.1 245.088C201.193 245.088 200.453 244.812 199.879 244.262C199.297 243.703 199.006 242.961 199.006 242.035C199.006 241.094 199.293 240.32 199.867 239.715C200.477 239.078 201.291 238.76 202.311 238.76C203.033 238.76 203.639 238.918 204.127 239.234L203.893 240.734L203.852 240.729C203.664 240.502 203.467 240.354 203.26 240.283C202.924 240.166 202.588 240.107 202.252 240.107C201.916 240.107 201.652 240.15 201.461 240.236C201.27 240.322 201.105 240.441 200.969 240.594C200.695 240.906 200.559 241.32 200.559 241.836C200.559 242.75 200.875 243.348 201.508 243.629C201.727 243.723 201.957 243.77 202.199 243.77C202.445 243.77 202.658 243.748 202.838 243.705C203.021 243.662 203.188 243.604 203.336 243.529C203.652 243.373 203.867 243.191 203.98 242.984L204.021 243.002L204.156 244.432ZM206.764 244.344C206.764 244.68 206.771 244.898 206.787 245H205.328V238.877H206.764V239.328C207.096 238.949 207.443 238.76 207.807 238.76C208.174 238.76 208.463 238.805 208.674 238.895L208.568 240.471L208.545 240.488C208.408 240.246 208.125 240.125 207.695 240.125C207.531 240.125 207.363 240.182 207.191 240.295C207.023 240.404 206.881 240.551 206.764 240.734V244.344ZM209.096 241.988C209.096 241.531 209.174 241.107 209.33 240.717C209.486 240.326 209.707 239.984 209.992 239.691C210.602 239.07 211.398 238.76 212.383 238.76C213.215 238.76 213.883 239.035 214.387 239.586C214.883 240.117 215.131 240.785 215.131 241.59C215.131 241.898 215.107 242.109 215.061 242.223C214.67 242.332 213.875 242.387 212.676 242.387H210.613C210.715 242.805 210.951 243.131 211.322 243.365C211.693 243.596 212.176 243.711 212.77 243.711C213.391 243.711 213.924 243.6 214.369 243.377C214.486 243.318 214.574 243.264 214.633 243.213C214.625 243.377 214.615 243.545 214.604 243.717L214.539 244.631C214.242 244.834 213.762 244.975 213.098 245.053C212.902 245.076 212.715 245.088 212.535 245.088C211.543 245.088 210.723 244.799 210.074 244.221C209.422 243.639 209.096 242.895 209.096 241.988ZM213.572 241.25C213.412 240.41 212.955 239.99 212.201 239.99C211.607 239.99 211.156 240.246 210.848 240.758C210.754 240.914 210.682 241.086 210.631 241.273C210.725 241.277 210.84 241.281 210.977 241.285H211.41C211.555 241.289 211.693 241.291 211.826 241.291H212.16C212.359 241.291 212.555 241.289 212.746 241.285L213.227 241.268C213.355 241.264 213.471 241.258 213.572 241.25ZM216.115 241.988C216.115 241.531 216.193 241.107 216.35 240.717C216.506 240.326 216.727 239.984 217.012 239.691C217.621 239.07 218.418 238.76 219.402 238.76C220.234 238.76 220.902 239.035 221.406 239.586C221.902 240.117 222.15 240.785 222.15 241.59C222.15 241.898 222.127 242.109 222.08 242.223C221.689 242.332 220.895 242.387 219.695 242.387H217.633C217.734 242.805 217.971 243.131 218.342 243.365C218.713 243.596 219.195 243.711 219.789 243.711C220.41 243.711 220.943 243.6 221.389 243.377C221.506 243.318 221.594 243.264 221.652 243.213C221.645 243.377 221.635 243.545 221.623 243.717L221.559 244.631C221.262 244.834 220.781 244.975 220.117 245.053C219.922 245.076 219.734 245.088 219.555 245.088C218.562 245.088 217.742 244.799 217.094 244.221C216.441 243.639 216.115 242.895 216.115 241.988ZM220.592 241.25C220.432 240.41 219.975 239.99 219.221 239.99C218.627 239.99 218.176 240.246 217.867 240.758C217.773 240.914 217.701 241.086 217.65 241.273C217.744 241.277 217.859 241.281 217.996 241.285H218.43C218.574 241.289 218.713 241.291 218.846 241.291H219.18C219.379 241.291 219.574 241.289 219.766 241.285L220.246 241.268C220.375 241.264 220.49 241.258 220.592 241.25ZM224.969 244.25C224.969 244.594 224.984 244.844 225.016 245H223.545V238.877H224.969V239.398C225.484 238.973 226.035 238.76 226.621 238.76C227.262 238.76 227.773 238.979 228.156 239.416C228.539 239.85 228.73 240.422 228.73 241.133V243.465C228.73 244.125 228.74 244.521 228.76 244.654C228.779 244.787 228.805 244.873 228.836 244.912C228.871 244.951 228.9 244.986 228.924 245.018L228.912 245.041C228.596 245.014 228.365 245 228.221 245H227.811C227.686 245 227.518 245.006 227.307 245.018V241.824C227.307 240.68 226.959 240.107 226.264 240.107C225.748 240.107 225.316 240.373 224.969 240.904V244.25ZM238.475 244.637C237.92 244.938 237.418 245.088 236.969 245.088C236.52 245.088 236.135 245.047 235.814 244.965C235.494 244.879 235.223 244.754 235 244.59C234.547 244.258 234.32 243.777 234.32 243.148C234.32 242.586 234.598 242.117 235.152 241.742C235.754 241.336 236.57 241.133 237.602 241.133L237.836 241.139C237.883 241.143 237.936 241.146 237.994 241.15C238.053 241.15 238.105 241.154 238.152 241.162C238.121 240.537 237.852 240.172 237.344 240.066C237.176 240.031 236.996 240.014 236.805 240.014C236.617 240.014 236.432 240.031 236.248 240.066C236.068 240.098 235.893 240.141 235.721 240.195C235.342 240.316 235.07 240.455 234.906 240.611L234.889 240.6L234.713 239.305C235.404 238.941 236.16 238.76 236.98 238.76C238.254 238.76 239.068 239.219 239.424 240.137C239.537 240.43 239.594 240.76 239.594 241.127V243.248C239.594 243.701 239.754 244.01 240.074 244.174L239.014 245.146C238.791 245.029 238.611 244.859 238.475 244.637ZM238.158 242.217C238.053 242.197 237.943 242.188 237.83 242.188H237.596C236.732 242.188 236.184 242.379 235.949 242.762C235.879 242.875 235.844 242.994 235.844 243.119C235.844 243.244 235.865 243.355 235.908 243.453C235.955 243.547 236.031 243.625 236.137 243.688C236.34 243.805 236.641 243.863 237.039 243.863C237.441 243.863 237.816 243.768 238.164 243.576C238.16 243.533 238.158 243.488 238.158 243.441V242.217ZM242.969 244.25C242.969 244.594 242.984 244.844 243.016 245H241.545V238.877H242.969V239.398C243.484 238.973 244.035 238.76 244.621 238.76C245.262 238.76 245.773 238.979 246.156 239.416C246.539 239.85 246.73 240.422 246.73 241.133V243.465C246.73 244.125 246.74 244.521 246.76 244.654C246.779 244.787 246.805 244.873 246.836 244.912C246.871 244.951 246.9 244.986 246.924 245.018L246.912 245.041C246.596 245.014 246.365 245 246.221 245H245.811C245.686 245 245.518 245.006 245.307 245.018V241.824C245.307 240.68 244.959 240.107 244.264 240.107C243.748 240.107 243.316 240.373 242.969 240.904V244.25ZM252.648 244.672C252.152 244.949 251.656 245.088 251.16 245.088C250.664 245.088 250.23 245.01 249.859 244.854C249.488 244.697 249.172 244.482 248.91 244.209C248.371 243.646 248.102 242.916 248.102 242.018C248.102 241.088 248.414 240.314 249.039 239.697C249.668 239.072 250.473 238.76 251.453 238.76C251.754 238.76 252.049 238.799 252.338 238.877V236.27H253.773V242.533C253.773 243.053 253.797 243.393 253.844 243.553C253.895 243.713 253.949 243.83 254.008 243.904C254.07 243.979 254.148 244.049 254.242 244.115L253.141 245.088C252.938 244.979 252.773 244.84 252.648 244.672ZM251.436 243.74C251.764 243.74 252.064 243.678 252.338 243.553V240.307C252.064 240.193 251.768 240.137 251.447 240.137C251.127 240.137 250.852 240.18 250.621 240.266C250.395 240.352 250.199 240.471 250.035 240.623C249.691 240.943 249.52 241.359 249.52 241.871C249.52 242.43 249.676 242.875 249.988 243.207C250.324 243.562 250.807 243.74 251.436 243.74ZM95.541 259.432C95.1035 259.869 94.418 260.088 93.4844 260.088C92.5781 260.088 91.8379 259.812 91.2637 259.262C90.6816 258.703 90.3906 257.961 90.3906 257.035C90.3906 256.094 90.6777 255.32 91.252 254.715C91.8613 254.078 92.6758 253.76 93.6953 253.76C94.418 253.76 95.0234 253.918 95.5117 254.234L95.2773 255.734L95.2363 255.729C95.0488 255.502 94.8516 255.354 94.6445 255.283C94.3086 255.166 93.9727 255.107 93.6367 255.107C93.3008 255.107 93.0371 255.15 92.8457 255.236C92.6543 255.322 92.4902 255.441 92.3535 255.594C92.0801 255.906 91.9434 256.32 91.9434 256.836C91.9434 257.75 92.2598 258.348 92.8926 258.629C93.1113 258.723 93.3418 258.77 93.584 258.77C93.8301 258.77 94.043 258.748 94.2227 258.705C94.4062 258.662 94.5723 258.604 94.7207 258.529C95.0371 258.373 95.252 258.191 95.3652 257.984L95.4062 258.002L95.541 259.432ZM98.3535 259.344C98.3535 259.68 98.3613 259.898 98.377 260H96.918V251.621H98.3535V254.334C98.8574 253.951 99.377 253.76 99.9121 253.76C100.568 253.76 101.096 253.977 101.494 254.41C101.885 254.844 102.08 255.418 102.08 256.133V258.465C102.08 259.125 102.09 259.521 102.109 259.654C102.129 259.787 102.154 259.873 102.186 259.912C102.221 259.951 102.25 259.986 102.273 260.018L102.262 260.041C101.945 260.014 101.715 260 101.57 260H101.154C101.025 260 100.855 260.006 100.645 260.018V256.625C100.645 256.086 100.525 255.688 100.287 255.43C100.107 255.234 99.8633 255.137 99.5547 255.137C99.0977 255.137 98.6973 255.4 98.3535 255.928V259.344ZM103.316 256.971C103.316 256.541 103.389 256.131 103.533 255.74C103.682 255.346 103.893 255.002 104.166 254.709C104.764 254.076 105.539 253.76 106.492 253.76C107.441 253.76 108.195 254.059 108.754 254.656C109.289 255.227 109.557 255.967 109.557 256.877C109.557 257.787 109.281 258.541 108.73 259.139C108.148 259.771 107.377 260.088 106.416 260.088C105.424 260.088 104.646 259.777 104.084 259.156C103.572 258.59 103.316 257.861 103.316 256.971ZM104.74 256.936C104.74 257.182 104.781 257.42 104.863 257.65C104.945 257.881 105.062 258.078 105.215 258.242C105.539 258.598 105.965 258.775 106.492 258.775C106.98 258.775 107.365 258.602 107.646 258.254C107.92 257.918 108.057 257.48 108.057 256.941C108.057 256.395 107.916 255.953 107.635 255.617C107.334 255.258 106.922 255.078 106.398 255.078C105.867 255.078 105.451 255.27 105.15 255.652C104.877 256.004 104.74 256.432 104.74 256.936ZM110.336 256.971C110.336 256.541 110.408 256.131 110.553 255.74C110.701 255.346 110.912 255.002 111.186 254.709C111.783 254.076 112.559 253.76 113.512 253.76C114.461 253.76 115.215 254.059 115.773 254.656C116.309 255.227 116.576 255.967 116.576 256.877C116.576 257.787 116.301 258.541 115.75 259.139C115.168 259.771 114.396 260.088 113.436 260.088C112.443 260.088 111.666 259.777 111.104 259.156C110.592 258.59 110.336 257.861 110.336 256.971ZM111.76 256.936C111.76 257.182 111.801 257.42 111.883 257.65C111.965 257.881 112.082 258.078 112.234 258.242C112.559 258.598 112.984 258.775 113.512 258.775C114 258.775 114.385 258.602 114.666 258.254C114.939 257.918 115.076 257.48 115.076 256.941C115.076 256.395 114.936 255.953 114.654 255.617C114.354 255.258 113.941 255.078 113.418 255.078C112.887 255.078 112.471 255.27 112.17 255.652C111.896 256.004 111.76 256.432 111.76 256.936ZM119.863 260.088C118.762 260.088 117.932 259.887 117.373 259.484C117.381 259.367 117.393 259.234 117.408 259.086L117.461 258.664C117.492 258.387 117.512 258.215 117.52 258.148C117.527 258.078 117.533 258.041 117.537 258.037C117.541 258.029 117.572 258.061 117.631 258.131C117.689 258.197 117.801 258.279 117.965 258.377C118.129 258.475 118.318 258.561 118.533 258.635C118.998 258.795 119.482 258.875 119.986 258.875C120.662 258.875 121 258.65 121 258.201C121 258.057 120.936 257.949 120.807 257.879C120.576 257.762 120.236 257.674 119.787 257.615C119.342 257.553 118.977 257.463 118.691 257.346C118.406 257.229 118.174 257.088 117.994 256.924C117.662 256.615 117.496 256.211 117.496 255.711C117.496 255.102 117.73 254.623 118.199 254.275C118.664 253.932 119.307 253.76 120.127 253.76C120.939 253.76 121.633 253.99 122.207 254.451C122.18 254.553 122.15 254.65 122.119 254.744C122.029 255.002 121.963 255.188 121.92 255.301L121.785 255.646C121.777 255.678 121.771 255.693 121.768 255.693C121.76 255.693 121.729 255.652 121.674 255.57C121.428 255.285 121.045 255.098 120.525 255.008C120.365 254.977 120.201 254.961 120.033 254.961C119.322 254.961 118.967 255.176 118.967 255.605C118.967 255.754 119.041 255.867 119.189 255.945C119.467 256.094 119.846 256.203 120.326 256.273C120.811 256.344 121.178 256.439 121.428 256.561C121.678 256.678 121.879 256.82 122.031 256.988C122.312 257.293 122.453 257.697 122.453 258.201C122.453 258.752 122.232 259.199 121.791 259.543C121.33 259.906 120.688 260.088 119.863 260.088ZM123.52 256.988C123.52 256.531 123.598 256.107 123.754 255.717C123.91 255.326 124.131 254.984 124.416 254.691C125.025 254.07 125.822 253.76 126.807 253.76C127.639 253.76 128.307 254.035 128.811 254.586C129.307 255.117 129.555 255.785 129.555 256.59C129.555 256.898 129.531 257.109 129.484 257.223C129.094 257.332 128.299 257.387 127.1 257.387H125.037C125.139 257.805 125.375 258.131 125.746 258.365C126.117 258.596 126.6 258.711 127.193 258.711C127.814 258.711 128.348 258.6 128.793 258.377C128.91 258.318 128.998 258.264 129.057 258.213C129.049 258.377 129.039 258.545 129.027 258.717L128.963 259.631C128.666 259.834 128.186 259.975 127.521 260.053C127.326 260.076 127.139 260.088 126.959 260.088C125.967 260.088 125.146 259.799 124.498 259.221C123.846 258.639 123.52 257.895 123.52 256.988ZM127.996 256.25C127.836 255.41 127.379 254.99 126.625 254.99C126.031 254.99 125.58 255.246 125.271 255.758C125.178 255.914 125.105 256.086 125.055 256.273C125.148 256.277 125.264 256.281 125.4 256.285H125.834C125.979 256.289 126.117 256.291 126.25 256.291H126.584C126.783 256.291 126.979 256.289 127.17 256.285L127.65 256.268C127.779 256.264 127.895 256.258 127.996 256.25ZM137.535 258.711C138.039 258.711 138.385 258.58 138.572 258.318H138.619L138.637 259.678C138.445 259.869 138.09 259.996 137.57 260.059C137.43 260.078 137.254 260.088 137.043 260.088C136.836 260.088 136.609 260.049 136.363 259.971C136.121 259.893 135.914 259.766 135.742 259.59C135.387 259.227 135.209 258.658 135.209 257.885V255.225H134.324C134.32 255.111 134.318 254.996 134.318 254.879V253.977C134.318 253.91 134.32 253.877 134.324 253.877H135.209V252.207H136.645V253.877H138.256V255.225H136.645V257.615C136.645 258.229 136.814 258.578 137.154 258.664C137.264 258.695 137.391 258.711 137.535 258.711ZM141.42 259.344C141.42 259.68 141.428 259.898 141.443 260H139.984V251.621H141.42V254.334C141.924 253.951 142.443 253.76 142.979 253.76C143.635 253.76 144.162 253.977 144.561 254.41C144.951 254.844 145.146 255.418 145.146 256.133V258.465C145.146 259.125 145.156 259.521 145.176 259.654C145.195 259.787 145.221 259.873 145.252 259.912C145.287 259.951 145.316 259.986 145.34 260.018L145.328 260.041C145.012 260.014 144.781 260 144.637 260H144.221C144.092 260 143.922 260.006 143.711 260.018V256.625C143.711 256.086 143.592 255.688 143.354 255.43C143.174 255.234 142.93 255.137 142.621 255.137C142.164 255.137 141.764 255.4 141.42 255.928V259.344ZM146.535 256.988C146.535 256.531 146.613 256.107 146.77 255.717C146.926 255.326 147.146 254.984 147.432 254.691C148.041 254.07 148.838 253.76 149.822 253.76C150.654 253.76 151.322 254.035 151.826 254.586C152.322 255.117 152.57 255.785 152.57 256.59C152.57 256.898 152.547 257.109 152.5 257.223C152.109 257.332 151.314 257.387 150.115 257.387H148.053C148.154 257.805 148.391 258.131 148.762 258.365C149.133 258.596 149.615 258.711 150.209 258.711C150.83 258.711 151.363 258.6 151.809 258.377C151.926 258.318 152.014 258.264 152.072 258.213C152.064 258.377 152.055 258.545 152.043 258.717L151.979 259.631C151.682 259.834 151.201 259.975 150.537 260.053C150.342 260.076 150.154 260.088 149.975 260.088C148.982 260.088 148.162 259.799 147.514 259.221C146.861 258.639 146.535 257.895 146.535 256.988ZM151.012 256.25C150.852 255.41 150.395 254.99 149.641 254.99C149.047 254.99 148.596 255.246 148.287 255.758C148.193 255.914 148.121 256.086 148.07 256.273C148.164 256.277 148.279 256.281 148.416 256.285H148.85C148.994 256.289 149.133 256.291 149.266 256.291H149.6C149.799 256.291 149.994 256.289 150.186 256.285L150.666 256.268C150.795 256.264 150.91 256.258 151.012 256.25ZM162.619 259.432C162.182 259.869 161.496 260.088 160.562 260.088C159.656 260.088 158.916 259.812 158.342 259.262C157.76 258.703 157.469 257.961 157.469 257.035C157.469 256.094 157.756 255.32 158.33 254.715C158.939 254.078 159.754 253.76 160.773 253.76C161.496 253.76 162.102 253.918 162.59 254.234L162.355 255.734L162.314 255.729C162.127 255.502 161.93 255.354 161.723 255.283C161.387 255.166 161.051 255.107 160.715 255.107C160.379 255.107 160.115 255.15 159.924 255.236C159.732 255.322 159.568 255.441 159.432 255.594C159.158 255.906 159.021 256.32 159.021 256.836C159.021 257.75 159.338 258.348 159.971 258.629C160.189 258.723 160.42 258.77 160.662 258.77C160.908 258.77 161.121 258.748 161.301 258.705C161.484 258.662 161.65 258.604 161.799 258.529C162.115 258.373 162.33 258.191 162.443 257.984L162.484 258.002L162.619 259.432ZM163.398 256.971C163.398 256.541 163.471 256.131 163.615 255.74C163.764 255.346 163.975 255.002 164.248 254.709C164.846 254.076 165.621 253.76 166.574 253.76C167.523 253.76 168.277 254.059 168.836 254.656C169.371 255.227 169.639 255.967 169.639 256.877C169.639 257.787 169.363 258.541 168.812 259.139C168.23 259.771 167.459 260.088 166.498 260.088C165.506 260.088 164.729 259.777 164.166 259.156C163.654 258.59 163.398 257.861 163.398 256.971ZM164.822 256.936C164.822 257.182 164.863 257.42 164.945 257.65C165.027 257.881 165.145 258.078 165.297 258.242C165.621 258.598 166.047 258.775 166.574 258.775C167.062 258.775 167.447 258.602 167.729 258.254C168.002 257.918 168.139 257.48 168.139 256.941C168.139 256.395 167.998 255.953 167.717 255.617C167.416 255.258 167.004 255.078 166.48 255.078C165.949 255.078 165.533 255.27 165.232 255.652C164.959 256.004 164.822 256.432 164.822 256.936ZM172.246 259.344C172.246 259.68 172.254 259.898 172.27 260H170.811V253.877H172.246V254.328C172.578 253.949 172.926 253.76 173.289 253.76C173.656 253.76 173.945 253.805 174.156 253.895L174.051 255.471L174.027 255.488C173.891 255.246 173.607 255.125 173.178 255.125C173.014 255.125 172.846 255.182 172.674 255.295C172.506 255.404 172.363 255.551 172.246 255.734V259.344ZM176.254 259.344C176.254 259.68 176.262 259.898 176.277 260H174.818V253.877H176.254V254.328C176.586 253.949 176.934 253.76 177.297 253.76C177.664 253.76 177.953 253.805 178.164 253.895L178.059 255.471L178.035 255.488C177.898 255.246 177.615 255.125 177.186 255.125C177.021 255.125 176.854 255.182 176.682 255.295C176.514 255.404 176.371 255.551 176.254 255.734V259.344ZM178.586 256.988C178.586 256.531 178.664 256.107 178.82 255.717C178.977 255.326 179.197 254.984 179.482 254.691C180.092 254.07 180.889 253.76 181.873 253.76C182.705 253.76 183.373 254.035 183.877 254.586C184.373 255.117 184.621 255.785 184.621 256.59C184.621 256.898 184.598 257.109 184.551 257.223C184.16 257.332 183.365 257.387 182.166 257.387H180.104C180.205 257.805 180.441 258.131 180.812 258.365C181.184 258.596 181.666 258.711 182.26 258.711C182.881 258.711 183.414 258.6 183.859 258.377C183.977 258.318 184.064 258.264 184.123 258.213C184.115 258.377 184.105 258.545 184.094 258.717L184.029 259.631C183.732 259.834 183.252 259.975 182.588 260.053C182.393 260.076 182.205 260.088 182.025 260.088C181.033 260.088 180.213 259.799 179.564 259.221C178.912 258.639 178.586 257.895 178.586 256.988ZM183.062 256.25C182.902 255.41 182.445 254.99 181.691 254.99C181.098 254.99 180.646 255.246 180.338 255.758C180.244 255.914 180.172 256.086 180.121 256.273C180.215 256.277 180.33 256.281 180.467 256.285H180.9C181.045 256.289 181.184 256.291 181.316 256.291H181.65C181.85 256.291 182.045 256.289 182.236 256.285L182.717 256.268C182.846 256.264 182.961 256.258 183.062 256.25ZM190.686 259.432C190.248 259.869 189.562 260.088 188.629 260.088C187.723 260.088 186.982 259.812 186.408 259.262C185.826 258.703 185.535 257.961 185.535 257.035C185.535 256.094 185.822 255.32 186.396 254.715C187.006 254.078 187.82 253.76 188.84 253.76C189.562 253.76 190.168 253.918 190.656 254.234L190.422 255.734L190.381 255.729C190.193 255.502 189.996 255.354 189.789 255.283C189.453 255.166 189.117 255.107 188.781 255.107C188.445 255.107 188.182 255.15 187.99 255.236C187.799 255.322 187.635 255.441 187.498 255.594C187.225 255.906 187.088 256.32 187.088 256.836C187.088 257.75 187.404 258.348 188.037 258.629C188.256 258.723 188.486 258.77 188.729 258.77C188.975 258.77 189.188 258.748 189.367 258.705C189.551 258.662 189.717 258.604 189.865 258.529C190.182 258.373 190.396 258.191 190.51 257.984L190.551 258.002L190.686 259.432ZM194.629 258.711C195.133 258.711 195.479 258.58 195.666 258.318H195.713L195.73 259.678C195.539 259.869 195.184 259.996 194.664 260.059C194.523 260.078 194.348 260.088 194.137 260.088C193.93 260.088 193.703 260.049 193.457 259.971C193.215 259.893 193.008 259.766 192.836 259.59C192.48 259.227 192.303 258.658 192.303 257.885V255.225H191.418C191.414 255.111 191.412 254.996 191.412 254.879V253.977C191.412 253.91 191.414 253.877 191.418 253.877H192.303V252.207H193.738V253.877H195.35V255.225H193.738V257.615C193.738 258.229 193.908 258.578 194.248 258.664C194.357 258.695 194.484 258.711 194.629 258.711ZM205.697 259.432C205.26 259.869 204.574 260.088 203.641 260.088C202.734 260.088 201.994 259.812 201.42 259.262C200.838 258.703 200.547 257.961 200.547 257.035C200.547 256.094 200.834 255.32 201.408 254.715C202.018 254.078 202.832 253.76 203.852 253.76C204.574 253.76 205.18 253.918 205.668 254.234L205.434 255.734L205.393 255.729C205.205 255.502 205.008 255.354 204.801 255.283C204.465 255.166 204.129 255.107 203.793 255.107C203.457 255.107 203.193 255.15 203.002 255.236C202.811 255.322 202.646 255.441 202.51 255.594C202.236 255.906 202.1 256.32 202.1 256.836C202.1 257.75 202.416 258.348 203.049 258.629C203.268 258.723 203.498 258.77 203.74 258.77C203.986 258.77 204.199 258.748 204.379 258.705C204.562 258.662 204.729 258.604 204.877 258.529C205.193 258.373 205.408 258.191 205.521 257.984L205.562 258.002L205.697 259.432ZM206.477 256.971C206.477 256.541 206.549 256.131 206.693 255.74C206.842 255.346 207.053 255.002 207.326 254.709C207.924 254.076 208.699 253.76 209.652 253.76C210.602 253.76 211.355 254.059 211.914 254.656C212.449 255.227 212.717 255.967 212.717 256.877C212.717 257.787 212.441 258.541 211.891 259.139C211.309 259.771 210.537 260.088 209.576 260.088C208.584 260.088 207.807 259.777 207.244 259.156C206.732 258.59 206.477 257.861 206.477 256.971ZM207.9 256.936C207.9 257.182 207.941 257.42 208.023 257.65C208.105 257.881 208.223 258.078 208.375 258.242C208.699 258.598 209.125 258.775 209.652 258.775C210.141 258.775 210.525 258.602 210.807 258.254C211.08 257.918 211.217 257.48 211.217 256.941C211.217 256.395 211.076 255.953 210.795 255.617C210.494 255.258 210.082 255.078 209.559 255.078C209.027 255.078 208.611 255.27 208.311 255.652C208.037 256.004 207.9 256.432 207.9 256.936ZM215.301 259.344C215.301 259.68 215.309 259.898 215.324 260H213.836V251.27H215.301V259.344ZM216.508 256.971C216.508 256.541 216.58 256.131 216.725 255.74C216.873 255.346 217.084 255.002 217.357 254.709C217.955 254.076 218.73 253.76 219.684 253.76C220.633 253.76 221.387 254.059 221.945 254.656C222.48 255.227 222.748 255.967 222.748 256.877C222.748 257.787 222.473 258.541 221.922 259.139C221.34 259.771 220.568 260.088 219.607 260.088C218.615 260.088 217.838 259.777 217.275 259.156C216.764 258.59 216.508 257.861 216.508 256.971ZM217.932 256.936C217.932 257.182 217.973 257.42 218.055 257.65C218.137 257.881 218.254 258.078 218.406 258.242C218.73 258.598 219.156 258.775 219.684 258.775C220.172 258.775 220.557 258.602 220.838 258.254C221.111 257.918 221.248 257.48 221.248 256.941C221.248 256.395 221.107 255.953 220.826 255.617C220.525 255.258 220.113 255.078 219.59 255.078C219.059 255.078 218.643 255.27 218.342 255.652C218.068 256.004 217.932 256.432 217.932 256.936ZM225.355 259.344C225.355 259.68 225.363 259.898 225.379 260H223.92V253.877H225.355V254.328C225.688 253.949 226.035 253.76 226.398 253.76C226.766 253.76 227.055 253.805 227.266 253.895L227.16 255.471L227.137 255.488C227 255.246 226.717 255.125 226.287 255.125C226.123 255.125 225.955 255.182 225.783 255.295C225.615 255.404 225.473 255.551 225.355 255.734V259.344ZM227.758 260C227.793 259.762 227.811 259.551 227.811 259.367C227.811 259.184 227.809 259.059 227.805 258.992C227.805 258.922 227.803 258.854 227.799 258.787C227.795 258.721 227.791 258.658 227.787 258.6L227.77 258.453H229.469C229.457 258.602 229.451 258.723 229.451 258.816L229.439 259.062C229.439 259.137 229.439 259.277 229.439 259.484C229.439 259.688 229.449 259.859 229.469 260H227.758Z" fill="#FFFAFA"/>
<g filter="url(#filter0_dd_146_27)">
<path d="M231.175 72.1702C229.319 71.5375 227.631 70.9048 226.113 70.272C224.594 69.5971 223.287 68.7957 222.19 67.8677C221.093 66.9397 220.229 65.8429 219.596 64.5775C219.005 63.2698 218.71 61.688 218.71 59.832C218.71 56.2466 220.081 53.3782 222.823 51.2269C225.607 49.0756 229.487 48 234.465 48C236.279 48 237.966 48.1265 239.527 48.3796C241.087 48.6327 242.416 49.0335 243.513 49.5818C244.652 50.088 245.538 50.7629 246.17 51.6066C246.803 52.408 247.119 53.3571 247.119 54.4538C247.119 55.5506 246.866 56.4997 246.36 57.3011C245.854 58.0604 245.242 58.7142 244.525 59.2626C243.597 58.672 242.353 58.1658 240.792 57.744C239.231 57.28 237.523 57.048 235.667 57.048C233.769 57.048 232.377 57.3222 231.491 57.8706C230.605 58.3767 230.162 59.0306 230.162 59.832C230.162 60.4647 230.437 60.992 230.985 61.4138C231.533 61.7935 232.356 62.152 233.453 62.4895L236.806 63.5651C240.771 64.8306 243.808 66.4546 245.917 68.4371C248.069 70.3775 249.144 73.0349 249.144 76.4095C249.144 79.995 247.731 82.9055 244.905 85.1412C242.079 87.3346 237.924 88.4313 232.44 88.4313C230.5 88.4313 228.686 88.2626 226.999 87.9251C225.354 87.6299 223.898 87.187 222.633 86.5964C221.41 85.9637 220.439 85.2044 219.722 84.3186C219.047 83.3906 218.71 82.3361 218.71 81.155C218.71 79.9317 219.069 78.8982 219.786 78.0546C220.503 77.1688 221.283 76.4939 222.127 76.0299C223.308 76.9579 224.742 77.7593 226.429 78.4342C228.159 79.1091 230.036 79.4466 232.061 79.4466C234.127 79.4466 235.583 79.1302 236.426 78.4975C237.27 77.8648 237.692 77.1266 237.692 76.283C237.692 75.4393 237.354 74.8066 236.679 74.3848C236.005 73.9208 235.055 73.4779 233.832 73.056L231.175 72.1702Z" fill="#00F5D4"/>
</g>
<g filter="url(#filter1_dd_146_27)">
<path d="M196.325 72.1702C194.469 71.5375 192.782 70.9048 191.263 70.272C189.744 69.5971 188.437 68.7957 187.34 67.8677C186.243 66.9397 185.379 65.8429 184.746 64.5775C184.155 63.2698 183.86 61.688 183.86 59.832C183.86 56.2466 185.231 53.3782 187.973 51.2269C190.757 49.0756 194.638 48 199.615 48C201.429 48 203.116 48.1265 204.677 48.3796C206.238 48.6327 207.566 49.0335 208.663 49.5818C209.802 50.088 210.688 50.7629 211.321 51.6066C211.953 52.408 212.27 53.3571 212.27 54.4538C212.27 55.5506 212.017 56.4997 211.51 57.3011C211.004 58.0604 210.393 58.7142 209.675 59.2626C208.747 58.672 207.503 58.1658 205.942 57.744C204.382 57.28 202.673 57.048 200.817 57.048C198.919 57.048 197.527 57.3222 196.641 57.8706C195.755 58.3767 195.312 59.0306 195.312 59.832C195.312 60.4647 195.587 60.992 196.135 61.4138C196.683 61.7935 197.506 62.152 198.603 62.4895L201.956 63.5651C205.921 64.8306 208.958 66.4546 211.067 68.4371C213.219 70.3775 214.294 73.0349 214.294 76.4095C214.294 79.995 212.881 82.9055 210.055 85.1412C207.229 87.3346 203.074 88.4313 197.59 88.4313C195.65 88.4313 193.836 88.2626 192.149 87.9251C190.504 87.6299 189.048 87.187 187.783 86.5964C186.56 85.9637 185.59 85.2044 184.872 84.3186C184.198 83.3906 183.86 82.3361 183.86 81.155C183.86 79.9317 184.219 78.8982 184.936 78.0546C185.653 77.1688 186.433 76.4939 187.277 76.0299C188.458 76.9579 189.892 77.7593 191.579 78.4342C193.309 79.1091 195.186 79.4466 197.211 79.4466C199.278 79.4466 200.733 79.1302 201.577 78.4975C202.42 77.8648 202.842 77.1266 202.842 76.283C202.842 75.4393 202.504 74.8066 201.83 74.3848C201.155 73.9208 200.206 73.4779 198.982 73.056L196.325 72.1702Z" fill="#00F5D4"/>
</g>
<g filter="url(#filter2_dd_146_27)">
<path d="M150.469 54.9601C150.469 53.1462 150.997 51.712 152.051 50.6575C153.106 49.603 154.54 49.0757 156.354 49.0757H177.234C177.529 49.5397 177.782 50.1513 177.993 50.9106C178.246 51.6699 178.373 52.4713 178.373 53.315C178.373 54.9179 178.014 56.0568 177.297 56.7317C176.622 57.4066 175.715 57.7441 174.576 57.7441H161.226V63.6284H175.462C175.757 64.0924 176.01 64.7041 176.221 65.4633C176.474 66.1804 176.601 66.9608 176.601 67.8044C176.601 69.4073 176.263 70.5463 175.589 71.2212C174.914 71.8961 174.007 72.2335 172.868 72.2335H161.226V78.8772H177.487C177.782 79.3412 178.035 79.9528 178.246 80.7121C178.499 81.4714 178.626 82.2728 178.626 83.1165C178.626 84.7194 178.267 85.8794 177.55 86.5965C176.875 87.2714 175.968 87.6088 174.829 87.6088H156.354C154.54 87.6088 153.106 87.0816 152.051 86.027C150.997 84.9725 150.469 83.5383 150.469 81.7245V54.9601Z" fill="#00F5D4"/>
</g>
<g filter="url(#filter3_dd_146_27)">
<path d="M142.429 73.246C142.429 75.5238 142.029 77.6119 141.227 79.51C140.468 81.366 139.35 82.9689 137.874 84.3188C136.397 85.6264 134.605 86.6388 132.495 87.3559C130.386 88.073 128.003 88.4315 125.346 88.4315C122.688 88.4315 120.305 88.073 118.196 87.3559C116.087 86.6388 114.294 85.6264 112.818 84.3188C111.341 82.9689 110.202 81.366 109.401 79.51C108.642 77.6119 108.262 75.5238 108.262 73.246V49.0758C108.726 48.9914 109.464 48.886 110.477 48.7594C111.489 48.5907 112.459 48.5063 113.387 48.5063C114.357 48.5063 115.201 48.5907 115.918 48.7594C116.677 48.886 117.31 49.1391 117.816 49.5187C118.322 49.8983 118.702 50.4256 118.955 51.1005C119.208 51.7754 119.335 52.6613 119.335 53.758V73.0562C119.335 75.0809 119.883 76.6628 120.98 77.8017C122.119 78.9406 123.574 79.51 125.346 79.51C127.159 79.51 128.615 78.9406 129.711 77.8017C130.808 76.6628 131.357 75.0809 131.357 73.0562V49.0758C131.821 48.9914 132.559 48.886 133.571 48.7594C134.583 48.5907 135.554 48.5063 136.482 48.5063C137.452 48.5063 138.295 48.5907 139.013 48.7594C139.772 48.886 140.405 49.1391 140.911 49.5187C141.417 49.8983 141.797 50.4256 142.05 51.1005C142.303 51.7754 142.429 52.6613 142.429 53.758V73.246Z" fill="#00F5D4"/>
</g>
<g filter="url(#filter4_dd_146_27)">
<path d="M101.172 81.155C101.172 82.4626 100.94 83.4328 100.476 84.0655C100.012 84.6982 99.2734 85.3099 98.261 85.9004C97.6705 86.2379 96.9323 86.5753 96.0465 86.9128C95.1607 87.2081 94.1905 87.4612 93.1359 87.6721C92.0814 87.9252 90.9636 88.115 89.7825 88.2415C88.6436 88.3681 87.5047 88.4313 86.3657 88.4313C83.3287 88.4313 80.4814 88.0306 77.8239 87.2292C75.1665 86.3855 72.8465 85.1411 70.8639 83.4961C68.9235 81.8088 67.3839 79.7208 66.245 77.232C65.1061 74.7433 64.5366 71.8539 64.5366 68.5637C64.5366 65.1048 65.1483 62.0887 66.3715 59.5157C67.637 56.9426 69.2821 54.8124 71.3068 53.1251C73.3737 51.3956 75.7148 50.1091 78.3301 49.2655C80.9876 48.4218 83.7083 48 86.4923 48C90.4996 48 93.6632 48.6538 95.9832 49.9615C98.3454 51.2269 99.5265 52.8931 99.5265 54.96C99.5265 56.0567 99.2523 57.0058 98.7039 57.8073C98.1556 58.6087 97.5229 59.2415 96.8058 59.7055C95.7512 59.0727 94.4225 58.4611 92.8196 57.8706C91.2588 57.2378 89.4872 56.9215 87.5047 56.9215C83.9614 56.9215 81.1352 57.9338 79.0261 59.9586C76.9592 61.9833 75.9257 64.7884 75.9257 68.3738C75.9257 70.3142 76.1999 72.0015 76.7483 73.4357C77.3388 74.8277 78.1192 75.9877 79.0894 76.9157C80.0596 77.8015 81.1774 78.4764 82.4428 78.9404C83.7083 79.3622 85.0581 79.5731 86.4923 79.5731C87.4203 79.5731 88.2428 79.4888 88.9599 79.32C89.677 79.1513 90.2254 78.9615 90.605 78.7506V72.8029H83.8348C83.5817 72.3389 83.3287 71.7273 83.0756 70.968C82.8647 70.2088 82.7592 69.4073 82.7592 68.5637C82.7592 67.0451 83.0967 65.9484 83.7716 65.2735C84.4887 64.5986 85.3956 64.2611 86.4923 64.2611H97.1854C98.4509 64.2611 99.421 64.6197 100.096 65.3368C100.813 66.0117 101.172 66.9818 101.172 68.2473V81.155Z" fill="#00F5D4"/>
</g>
<g filter="url(#filter5_dd_146_27)">
<path d="M230.938 156.368V168.517C230.474 168.643 229.736 168.77 228.724 168.896C227.753 169.023 226.783 169.086 225.813 169.086C224.843 169.086 223.978 169.002 223.219 168.833C222.502 168.707 221.89 168.453 221.384 168.074C220.92 167.694 220.561 167.167 220.308 166.492C220.055 165.817 219.929 164.931 219.929 163.835V134.033C219.929 133.147 220.161 132.472 220.625 132.008C221.131 131.502 221.806 131.101 222.649 130.806C224.084 130.3 225.75 129.941 227.648 129.73C229.546 129.477 231.571 129.351 233.722 129.351C239.543 129.351 243.93 130.574 246.883 133.021C249.836 135.467 251.312 138.778 251.312 142.954C251.312 145.57 250.637 147.805 249.287 149.661C247.937 151.517 246.335 152.952 244.479 153.964C245.997 156.031 247.495 157.971 248.971 159.785C250.447 161.599 251.607 163.244 252.451 164.72C252.029 166.197 251.249 167.336 250.11 168.137C249.013 168.896 247.769 169.276 246.377 169.276C245.449 169.276 244.647 169.171 243.972 168.96C243.297 168.749 242.707 168.453 242.201 168.074C241.695 167.694 241.231 167.23 240.809 166.682C240.387 166.133 239.986 165.543 239.607 164.91L234.292 156.368H230.938ZM234.924 147.953C236.527 147.953 237.793 147.552 238.721 146.751C239.649 145.907 240.113 144.684 240.113 143.081C240.113 141.478 239.585 140.276 238.531 139.474C237.519 138.631 235.895 138.209 233.659 138.209C233.026 138.209 232.52 138.23 232.14 138.272C231.761 138.314 231.339 138.378 230.875 138.462V147.953H234.924Z" fill="#FFD60A"/>
</g>
<g filter="url(#filter6_dd_146_27)">
<path d="M173.542 149.535C173.542 146.245 174.048 143.334 175.061 140.803C176.115 138.272 177.528 136.163 179.3 134.476C181.114 132.747 183.223 131.439 185.627 130.553C188.074 129.667 190.71 129.224 193.536 129.224C196.363 129.224 198.978 129.667 201.382 130.553C203.829 131.439 205.959 132.747 207.773 134.476C209.587 136.163 211 138.272 212.012 140.803C213.067 143.334 213.594 146.245 213.594 149.535C213.594 152.825 213.088 155.757 212.075 158.33C211.063 160.861 209.65 162.991 207.836 164.72C206.064 166.408 203.955 167.694 201.509 168.58C199.062 169.466 196.405 169.909 193.536 169.909C190.668 169.909 188.011 169.466 185.564 168.58C183.118 167.652 181.008 166.323 179.237 164.594C177.465 162.864 176.073 160.734 175.061 158.203C174.048 155.672 173.542 152.783 173.542 149.535ZM184.931 149.535C184.931 153.373 185.712 156.242 187.272 158.14C188.833 160.038 190.921 160.987 193.536 160.987C196.194 160.987 198.303 160.038 199.864 158.14C201.424 156.242 202.205 153.373 202.205 149.535C202.205 145.739 201.424 142.891 199.864 140.993C198.345 139.095 196.257 138.146 193.6 138.146C190.984 138.146 188.875 139.095 187.272 140.993C185.712 142.849 184.931 145.696 184.931 149.535Z" fill="#FFD60A"/>
</g>
<g filter="url(#filter7_dd_146_27)">
<path d="M150.8 168.96C148.987 168.96 147.552 168.432 146.498 167.378C145.443 166.323 144.916 164.889 144.916 163.075V130.363C145.38 130.279 146.118 130.173 147.131 130.047C148.143 129.878 149.113 129.794 150.041 129.794C151.011 129.794 151.855 129.878 152.572 130.047C153.331 130.173 153.964 130.426 154.47 130.806C154.976 131.186 155.356 131.713 155.609 132.388C155.862 133.063 155.989 133.949 155.989 135.045V160.038H170.478C170.774 160.502 171.048 161.135 171.301 161.936C171.554 162.696 171.68 163.497 171.68 164.341C171.68 166.028 171.322 167.23 170.605 167.947C169.888 168.622 168.939 168.96 167.758 168.96H150.8Z" fill="#FFD60A"/>
</g>
<g filter="url(#filter8_dd_146_27)">
<path d="M98.5293 149.535C98.5293 146.245 99.0355 143.334 100.048 140.803C101.102 138.272 102.515 136.163 104.287 134.476C106.101 132.747 108.21 131.439 110.614 130.553C113.061 129.667 115.697 129.224 118.524 129.224C121.35 129.224 123.965 129.667 126.369 130.553C128.816 131.439 130.946 132.747 132.76 134.476C134.574 136.163 135.987 138.272 136.999 140.803C138.054 143.334 138.581 146.245 138.581 149.535C138.581 152.825 138.075 155.757 137.062 158.33C136.05 160.861 134.637 162.991 132.823 164.72C131.052 166.408 128.942 167.694 126.496 168.58C124.049 169.466 121.392 169.909 118.524 169.909C115.655 169.909 112.998 169.466 110.551 168.58C108.105 167.652 105.995 166.323 104.224 164.594C102.452 162.864 101.06 160.734 100.048 158.203C99.0355 155.672 98.5293 152.783 98.5293 149.535ZM109.918 149.535C109.918 153.373 110.699 156.242 112.259 158.14C113.82 160.038 115.908 160.987 118.524 160.987C121.181 160.987 123.29 160.038 124.851 158.14C126.412 156.242 127.192 153.373 127.192 149.535C127.192 145.739 126.412 142.891 124.851 140.993C123.332 139.095 121.244 138.146 118.587 138.146C115.972 138.146 113.862 139.095 112.259 140.993C110.699 142.849 109.918 145.696 109.918 149.535Z" fill="#FFD60A"/>
</g>
<g filter="url(#filter9_dd_146_27)">
<path d="M84.4495 138.146C81.2015 138.146 78.7128 139.137 76.9833 141.12C75.2538 143.102 74.3891 145.907 74.3891 149.535C74.3891 153.205 75.3382 156.031 77.2364 158.013C79.1768 159.996 81.7709 160.987 85.0189 160.987C86.7484 160.987 88.2037 160.755 89.3848 160.291C90.608 159.827 91.768 159.3 92.8648 158.709C93.5819 159.3 94.1302 160.017 94.5099 160.861C94.9317 161.662 95.1426 162.611 95.1426 163.708C95.1426 165.438 94.1724 166.914 92.232 168.137C90.3339 169.318 87.4233 169.909 83.5004 169.909C80.6742 169.909 78.0168 169.508 75.528 168.707C73.0393 167.905 70.8669 166.682 69.0109 165.037C67.1549 163.35 65.6785 161.24 64.5818 158.709C63.5273 156.136 63 153.078 63 149.535C63 146.245 63.5062 143.355 64.5185 140.867C65.5731 138.336 66.9862 136.205 68.7578 134.476C70.5716 132.747 72.6807 131.439 75.0851 130.553C77.4895 129.667 80.0626 129.224 82.8044 129.224C86.6851 129.224 89.68 129.857 91.7891 131.123C93.9404 132.388 95.016 134.012 95.016 135.995C95.016 137.091 94.7419 138.04 94.1935 138.842C93.6451 139.643 93.0124 140.276 92.2953 140.74C91.1986 140.023 90.0175 139.411 88.752 138.905C87.5288 138.399 86.0946 138.146 84.4495 138.146Z" fill="#FFD60A"/>
</g>
<g filter="url(#filter10_dd_146_27)">
<path d="M175.876 98.582C175.876 97.2864 176.253 96.262 177.006 95.5088C177.759 94.7555 178.784 94.3789 180.079 94.3789H194.994C195.205 94.7103 195.385 95.1472 195.536 95.6896C195.717 96.2319 195.807 96.8044 195.807 97.407C195.807 98.5519 195.551 99.3654 195.039 99.8475C194.557 100.33 193.909 100.571 193.095 100.571H183.559V104.774H193.728C193.939 105.105 194.12 105.542 194.271 106.084C194.451 106.597 194.542 107.154 194.542 107.757C194.542 108.902 194.301 109.715 193.819 110.197C193.337 110.679 192.689 110.92 191.875 110.92H183.559V115.666H195.174C195.385 115.997 195.566 116.434 195.717 116.976C195.898 117.519 195.988 118.091 195.988 118.694C195.988 119.839 195.732 120.667 195.22 121.179C194.738 121.662 194.09 121.903 193.276 121.903H180.079C178.784 121.903 177.759 121.526 177.006 120.773C176.253 120.019 175.876 118.995 175.876 117.699V98.582Z" fill="#FF00E2"/>
</g>
<g filter="url(#filter11_dd_146_27)">
<path d="M170.007 121.586C169.675 121.677 169.148 121.767 168.425 121.858C167.732 121.948 167.039 121.993 166.346 121.993C165.653 121.993 165.035 121.933 164.493 121.812C163.981 121.722 163.544 121.541 163.182 121.27C162.821 120.999 162.55 120.622 162.369 120.14C162.188 119.658 162.098 119.025 162.098 118.242V111.192H153.42V121.586C153.089 121.677 152.562 121.767 151.839 121.858C151.146 121.948 150.453 121.993 149.76 121.993C149.067 121.993 148.449 121.933 147.907 121.812C147.394 121.722 146.957 121.541 146.596 121.27C146.234 120.999 145.963 120.622 145.782 120.14C145.602 119.658 145.511 119.025 145.511 118.242V94.3792C145.843 94.3189 146.37 94.2436 147.093 94.1532C147.816 94.0327 148.509 93.9724 149.172 93.9724C149.865 93.9724 150.468 94.0327 150.98 94.1532C151.522 94.2436 151.974 94.4244 152.336 94.6955C152.697 94.9667 152.968 95.3433 153.149 95.8254C153.33 96.3075 153.42 96.9402 153.42 97.7236V104.955H162.098V94.3792C162.429 94.3189 162.956 94.2436 163.68 94.1532C164.403 94.0327 165.096 93.9724 165.759 93.9724C166.452 93.9724 167.054 94.0327 167.566 94.1532C168.109 94.2436 168.561 94.4244 168.922 94.6955C169.284 94.9667 169.555 95.3433 169.736 95.8254C169.916 96.3075 170.007 96.9402 170.007 97.7236V121.586Z" fill="#FF00E2"/>
</g>
<g filter="url(#filter12_dd_146_27)">
<path d="M119.132 100.707C118.921 100.375 118.725 99.9234 118.545 99.3509C118.364 98.7784 118.273 98.1758 118.273 97.5431C118.273 96.3681 118.53 95.5244 119.042 95.0122C119.584 94.5 120.277 94.2439 121.121 94.2439H140.826C141.037 94.5753 141.232 95.0273 141.413 95.5997C141.594 96.1722 141.684 96.7748 141.684 97.4075C141.684 98.5826 141.413 99.4262 140.871 99.9385C140.359 100.451 139.681 100.707 138.837 100.707H133.82V121.587C133.489 121.677 132.962 121.768 132.239 121.858C131.546 121.948 130.853 121.994 130.16 121.994C129.467 121.994 128.849 121.933 128.307 121.813C127.794 121.722 127.358 121.542 126.996 121.27C126.634 120.999 126.363 120.623 126.183 120.141C126.002 119.658 125.911 119.026 125.911 118.242V100.707H119.132Z" fill="#FF00E2"/>
</g>
<defs>
<filter id="filter0_dd_146_27" x="216.71" y="46" width="32.4341" height="48.4314" filterUnits="userSpaceOnUse" color-interpolation-filters="sRGB">
<feFlood flood-opacity="0" result="BackgroundImageFix"/>
<feColorMatrix in="SourceAlpha" type="matrix" values="0 0 0 0 0 0 0 0 0 0 0 0 0 0 0 0 0 0 127 0" result="hardAlpha"/>
<feOffset dx="-2" dy="-2"/>
<feComposite in2="hardAlpha" operator="out"/>
<feColorMatrix type="matrix" values="0 0 0 0 1 0 0 0 0 1 0 0 0 0 1 0 0 0 1 0"/>
<feBlend mode="normal" in2="BackgroundImageFix" result="effect1_dropShadow_146_27"/>
<feColorMatrix in="SourceAlpha" type="matrix" values="0 0 0 0 0 0 0 0 0 0 0 0 0 0 0 0 0 0 127 0" result="hardAlpha"/>
<feOffset dy="6"/>
<feComposite in2="hardAlpha" operator="out"/>
<feColorMatrix type="matrix" values="0 0 0 0 0.205128 0 0 0 0 0.205128 0 0 0 0 0.205128 0 0 0 0.25 0"/>
<feBlend mode="normal" in2="effect1_dropShadow_146_27" result="effect2_dropShadow_146_27"/>
<feBlend mode="normal" in="SourceGraphic" in2="effect2_dropShadow_146_27" result="shape"/>
</filter>
<filter id="filter1_dd_146_27" x="181.86" y="46" width="32.4343" height="48.4314" filterUnits="userSpaceOnUse" color-interpolation-filters="sRGB">
<feFlood flood-opacity="0" result="BackgroundImageFix"/>
<feColorMatrix in="SourceAlpha" type="matrix" values="0 0 0 0 0 0 0 0 0 0 0 0 0 0 0 0 0 0 127 0" result="hardAlpha"/>
<feOffset dx="-2" dy="-2"/>
<feComposite in2="hardAlpha" operator="out"/>
<feColorMatrix type="matrix" values="0 0 0 0 1 0 0 0 0 1 0 0 0 0 1 0 0 0 1 0"/>
<feBlend mode="normal" in2="BackgroundImageFix" result="effect1_dropShadow_146_27"/>
<feColorMatrix in="SourceAlpha" type="matrix" values="0 0 0 0 0 0 0 0 0 0 0 0 0 0 0 0 0 0 127 0" result="hardAlpha"/>
<feOffset dy="6"/>
<feComposite in2="hardAlpha" operator="out"/>
<feColorMatrix type="matrix" values="0 0 0 0 0.205128 0 0 0 0 0.205128 0 0 0 0 0.205128 0 0 0 0.25 0"/>
<feBlend mode="normal" in2="effect1_dropShadow_146_27" result="effect2_dropShadow_146_27"/>
<feBlend mode="normal" in="SourceGraphic" in2="effect2_dropShadow_146_27" result="shape"/>
</filter>
<filter id="filter2_dd_146_27" x="148.469" y="47.0757" width="30.1565" height="46.5332" filterUnits="userSpaceOnUse" color-interpolation-filters="sRGB">
<feFlood flood-opacity="0" result="BackgroundImageFix"/>
<feColorMatrix in="SourceAlpha" type="matrix" values="0 0 0 0 0 0 0 0 0 0 0 0 0 0 0 0 0 0 127 0" result="hardAlpha"/>
<feOffset dx="-2" dy="-2"/>
<feComposite in2="hardAlpha" operator="out"/>
<feColorMatrix type="matrix" values="0 0 0 0 1 0 0 0 0 1 0 0 0 0 1 0 0 0 1 0"/>
<feBlend mode="normal" in2="BackgroundImageFix" result="effect1_dropShadow_146_27"/>
<feColorMatrix in="SourceAlpha" type="matrix" values="0 0 0 0 0 0 0 0 0 0 0 0 0 0 0 0 0 0 127 0" result="hardAlpha"/>
<feOffset dy="6"/>
<feComposite in2="hardAlpha" operator="out"/>
<feColorMatrix type="matrix" values="0 0 0 0 0.205128 0 0 0 0 0.205128 0 0 0 0 0.205128 0 0 0 0.25 0"/>
<feBlend mode="normal" in2="effect1_dropShadow_146_27" result="effect2_dropShadow_146_27"/>
<feBlend mode="normal" in="SourceGraphic" in2="effect2_dropShadow_146_27" result="shape"/>
</filter>
<filter id="filter3_dd_146_27" x="106.262" y="46.5063" width="36.1672" height="47.925" filterUnits="userSpaceOnUse" color-interpolation-filters="sRGB">
<feFlood flood-opacity="0" result="BackgroundImageFix"/>
<feColorMatrix in="SourceAlpha" type="matrix" values="0 0 0 0 0 0 0 0 0 0 0 0 0 0 0 0 0 0 127 0" result="hardAlpha"/>
<feOffset dx="-2" dy="-2"/>
<feComposite in2="hardAlpha" operator="out"/>
<feColorMatrix type="matrix" values="0 0 0 0 1 0 0 0 0 1 0 0 0 0 1 0 0 0 1 0"/>
<feBlend mode="normal" in2="BackgroundImageFix" result="effect1_dropShadow_146_27"/>
<feColorMatrix in="SourceAlpha" type="matrix" values="0 0 0 0 0 0 0 0 0 0 0 0 0 0 0 0 0 0 127 0" result="hardAlpha"/>
<feOffset dy="6"/>
<feComposite in2="hardAlpha" operator="out"/>
<feColorMatrix type="matrix" values="0 0 0 0 0.205128 0 0 0 0 0.205128 0 0 0 0 0.205128 0 0 0 0.25 0"/>
<feBlend mode="normal" in2="effect1_dropShadow_146_27" result="effect2_dropShadow_146_27"/>
<feBlend mode="normal" in="SourceGraphic" in2="effect2_dropShadow_146_27" result="shape"/>
</filter>
<filter id="filter4_dd_146_27" x="62.5366" y="46" width="38.635" height="48.4314" filterUnits="userSpaceOnUse" color-interpolation-filters="sRGB">
<feFlood flood-opacity="0" result="BackgroundImageFix"/>
<feColorMatrix in="SourceAlpha" type="matrix" values="0 0 0 0 0 0 0 0 0 0 0 0 0 0 0 0 0 0 127 0" result="hardAlpha"/>
<feOffset dx="-2" dy="-2"/>
<feComposite in2="hardAlpha" operator="out"/>
<feColorMatrix type="matrix" values="0 0 0 0 1 0 0 0 0 1 0 0 0 0 1 0 0 0 1 0"/>
<feBlend mode="normal" in2="BackgroundImageFix" result="effect1_dropShadow_146_27"/>
<feColorMatrix in="SourceAlpha" type="matrix" values="0 0 0 0 0 0 0 0 0 0 0 0 0 0 0 0 0 0 127 0" result="hardAlpha"/>
<feOffset dy="6"/>
<feComposite in2="hardAlpha" operator="out"/>
<feColorMatrix type="matrix" values="0 0 0 0 0.205128 0 0 0 0 0.205128 0 0 0 0 0.205128 0 0 0 0.25 0"/>
<feBlend mode="normal" in2="effect1_dropShadow_146_27" result="effect2_dropShadow_146_27"/>
<feBlend mode="normal" in="SourceGraphic" in2="effect2_dropShadow_146_27" result="shape"/>
</filter>
<filter id="filter5_dd_146_27" x="217.929" y="127.351" width="34.5225" height="47.925" filterUnits="userSpaceOnUse" color-interpolation-filters="sRGB">
<feFlood flood-opacity="0" result="BackgroundImageFix"/>
<feColorMatrix in="SourceAlpha" type="matrix" values="0 0 0 0 0 0 0 0 0 0 0 0 0 0 0 0 0 0 127 0" result="hardAlpha"/>
<feOffset dx="-2" dy="-2"/>
<feComposite in2="hardAlpha" operator="out"/>
<feColorMatrix type="matrix" values="0 0 0 0 1 0 0 0 0 1 0 0 0 0 1 0 0 0 1 0"/>
<feBlend mode="normal" in2="BackgroundImageFix" result="effect1_dropShadow_146_27"/>
<feColorMatrix in="SourceAlpha" type="matrix" values="0 0 0 0 0 0 0 0 0 0 0 0 0 0 0 0 0 0 127 0" result="hardAlpha"/>
<feOffset dy="6"/>
<feComposite in2="hardAlpha" operator="out"/>
<feColorMatrix type="matrix" values="0 0 0 0 0.205128 0 0 0 0 0.205128 0 0 0 0 0.205128 0 0 0 0.25 0"/>
<feBlend mode="normal" in2="effect1_dropShadow_146_27" result="effect2_dropShadow_146_27"/>
<feBlend mode="normal" in="SourceGraphic" in2="effect2_dropShadow_146_27" result="shape"/>
</filter>
<filter id="filter6_dd_146_27" x="171.542" y="127.224" width="42.0515" height="48.6843" filterUnits="userSpaceOnUse" color-interpolation-filters="sRGB">
<feFlood flood-opacity="0" result="BackgroundImageFix"/>
<feColorMatrix in="SourceAlpha" type="matrix" values="0 0 0 0 0 0 0 0 0 0 0 0 0 0 0 0 0 0 127 0" result="hardAlpha"/>
<feOffset dx="-2" dy="-2"/>
<feComposite in2="hardAlpha" operator="out"/>
<feColorMatrix type="matrix" values="0 0 0 0 1 0 0 0 0 1 0 0 0 0 1 0 0 0 1 0"/>
<feBlend mode="normal" in2="BackgroundImageFix" result="effect1_dropShadow_146_27"/>
<feColorMatrix in="SourceAlpha" type="matrix" values="0 0 0 0 0 0 0 0 0 0 0 0 0 0 0 0 0 0 127 0" result="hardAlpha"/>
<feOffset dy="6"/>
<feComposite in2="hardAlpha" operator="out"/>
<feColorMatrix type="matrix" values="0 0 0 0 0.205128 0 0 0 0 0.205128 0 0 0 0 0.205128 0 0 0 0.25 0"/>
<feBlend mode="normal" in2="effect1_dropShadow_146_27" result="effect2_dropShadow_146_27"/>
<feBlend mode="normal" in="SourceGraphic" in2="effect2_dropShadow_146_27" result="shape"/>
</filter>
<filter id="filter7_dd_146_27" x="142.916" y="127.794" width="28.7644" height="47.1658" filterUnits="userSpaceOnUse" color-interpolation-filters="sRGB">
<feFlood flood-opacity="0" result="BackgroundImageFix"/>
<feColorMatrix in="SourceAlpha" type="matrix" values="0 0 0 0 0 0 0 0 0 0 0 0 0 0 0 0 0 0 127 0" result="hardAlpha"/>
<feOffset dx="-2" dy="-2"/>
<feComposite in2="hardAlpha" operator="out"/>
<feColorMatrix type="matrix" values="0 0 0 0 1 0 0 0 0 1 0 0 0 0 1 0 0 0 1 0"/>
<feBlend mode="normal" in2="BackgroundImageFix" result="effect1_dropShadow_146_27"/>
<feColorMatrix in="SourceAlpha" type="matrix" values="0 0 0 0 0 0 0 0 0 0 0 0 0 0 0 0 0 0 127 0" result="hardAlpha"/>
<feOffset dy="6"/>
<feComposite in2="hardAlpha" operator="out"/>
<feColorMatrix type="matrix" values="0 0 0 0 0.205128 0 0 0 0 0.205128 0 0 0 0 0.205128 0 0 0 0.25 0"/>
<feBlend mode="normal" in2="effect1_dropShadow_146_27" result="effect2_dropShadow_146_27"/>
<feBlend mode="normal" in="SourceGraphic" in2="effect2_dropShadow_146_27" result="shape"/>
</filter>
<filter id="filter8_dd_146_27" x="96.5293" y="127.224" width="42.0518" height="48.6843" filterUnits="userSpaceOnUse" color-interpolation-filters="sRGB">
<feFlood flood-opacity="0" result="BackgroundImageFix"/>
<feColorMatrix in="SourceAlpha" type="matrix" values="0 0 0 0 0 0 0 0 0 0 0 0 0 0 0 0 0 0 127 0" result="hardAlpha"/>
<feOffset dx="-2" dy="-2"/>
<feComposite in2="hardAlpha" operator="out"/>
<feColorMatrix type="matrix" values="0 0 0 0 1 0 0 0 0 1 0 0 0 0 1 0 0 0 1 0"/>
<feBlend mode="normal" in2="BackgroundImageFix" result="effect1_dropShadow_146_27"/>
<feColorMatrix in="SourceAlpha" type="matrix" values="0 0 0 0 0 0 0 0 0 0 0 0 0 0 0 0 0 0 127 0" result="hardAlpha"/>
<feOffset dy="6"/>
<feComposite in2="hardAlpha" operator="out"/>
<feColorMatrix type="matrix" values="0 0 0 0 0.205128 0 0 0 0 0.205128 0 0 0 0 0.205128 0 0 0 0.25 0"/>
<feBlend mode="normal" in2="effect1_dropShadow_146_27" result="effect2_dropShadow_146_27"/>
<feBlend mode="normal" in="SourceGraphic" in2="effect2_dropShadow_146_27" result="shape"/>
</filter>
<filter id="filter9_dd_146_27" x="61" y="127.224" width="34.1426" height="48.6843" filterUnits="userSpaceOnUse" color-interpolation-filters="sRGB">
<feFlood flood-opacity="0" result="BackgroundImageFix"/>
<feColorMatrix in="SourceAlpha" type="matrix" values="0 0 0 0 0 0 0 0 0 0 0 0 0 0 0 0 0 0 127 0" result="hardAlpha"/>
<feOffset dx="-2" dy="-2"/>
<feComposite in2="hardAlpha" operator="out"/>
<feColorMatrix type="matrix" values="0 0 0 0 1 0 0 0 0 1 0 0 0 0 1 0 0 0 1 0"/>
<feBlend mode="normal" in2="BackgroundImageFix" result="effect1_dropShadow_146_27"/>
<feColorMatrix in="SourceAlpha" type="matrix" values="0 0 0 0 0 0 0 0 0 0 0 0 0 0 0 0 0 0 127 0" result="hardAlpha"/>
<feOffset dy="6"/>
<feComposite in2="hardAlpha" operator="out"/>
<feColorMatrix type="matrix" values="0 0 0 0 0.205128 0 0 0 0 0.205128 0 0 0 0 0.205128 0 0 0 0.25 0"/>
<feBlend mode="normal" in2="effect1_dropShadow_146_27" result="effect2_dropShadow_146_27"/>
<feBlend mode="normal" in="SourceGraphic" in2="effect2_dropShadow_146_27" result="shape"/>
</filter>
<filter id="filter10_dd_146_27" x="173.876" y="92.3789" width="22.1118" height="35.5237" filterUnits="userSpaceOnUse" color-interpolation-filters="sRGB">
<feFlood flood-opacity="0" result="BackgroundImageFix"/>
<feColorMatrix in="SourceAlpha" type="matrix" values="0 0 0 0 0 0 0 0 0 0 0 0 0 0 0 0 0 0 127 0" result="hardAlpha"/>
<feOffset dx="-2" dy="-2"/>
<feComposite in2="hardAlpha" operator="out"/>
<feColorMatrix type="matrix" values="0 0 0 0 1 0 0 0 0 1 0 0 0 0 1 0 0 0 1 0"/>
<feBlend mode="normal" in2="BackgroundImageFix" result="effect1_dropShadow_146_27"/>
<feColorMatrix in="SourceAlpha" type="matrix" values="0 0 0 0 0 0 0 0 0 0 0 0 0 0 0 0 0 0 127 0" result="hardAlpha"/>
<feOffset dy="6"/>
<feComposite in2="hardAlpha" operator="out"/>
<feColorMatrix type="matrix" values="0 0 0 0 0.205128 0 0 0 0 0.205128 0 0 0 0 0.205128 0 0 0 0.25 0"/>
<feBlend mode="normal" in2="effect1_dropShadow_146_27" result="effect2_dropShadow_146_27"/>
<feBlend mode="normal" in="SourceGraphic" in2="effect2_dropShadow_146_27" result="shape"/>
</filter>
<filter id="filter11_dd_146_27" x="143.511" y="91.9724" width="26.4956" height="36.0208" filterUnits="userSpaceOnUse" color-interpolation-filters="sRGB">
<feFlood flood-opacity="0" result="BackgroundImageFix"/>
<feColorMatrix in="SourceAlpha" type="matrix" values="0 0 0 0 0 0 0 0 0 0 0 0 0 0 0 0 0 0 127 0" result="hardAlpha"/>
<feOffset dx="-2" dy="-2"/>
<feComposite in2="hardAlpha" operator="out"/>
<feColorMatrix type="matrix" values="0 0 0 0 1 0 0 0 0 1 0 0 0 0 1 0 0 0 1 0"/>
<feBlend mode="normal" in2="BackgroundImageFix" result="effect1_dropShadow_146_27"/>
<feColorMatrix in="SourceAlpha" type="matrix" values="0 0 0 0 0 0 0 0 0 0 0 0 0 0 0 0 0 0 127 0" result="hardAlpha"/>
<feOffset dy="6"/>
<feComposite in2="hardAlpha" operator="out"/>
<feColorMatrix type="matrix" values="0 0 0 0 0.205128 0 0 0 0 0.205128 0 0 0 0 0.205128 0 0 0 0.25 0"/>
<feBlend mode="normal" in2="effect1_dropShadow_146_27" result="effect2_dropShadow_146_27"/>
<feBlend mode="normal" in="SourceGraphic" in2="effect2_dropShadow_146_27" result="shape"/>
</filter>
<filter id="filter12_dd_146_27" x="116.273" y="92.2439" width="25.4109" height="35.7498" filterUnits="userSpaceOnUse" color-interpolation-filters="sRGB">
<feFlood flood-opacity="0" result="BackgroundImageFix"/>
<feColorMatrix in="SourceAlpha" type="matrix" values="0 0 0 0 0 0 0 0 0 0 0 0 0 0 0 0 0 0 127 0" result="hardAlpha"/>
<feOffset dx="-2" dy="-2"/>
<feComposite in2="hardAlpha" operator="out"/>
<feColorMatrix type="matrix" values="0 0 0 0 1 0 0 0 0 1 0 0 0 0 1 0 0 0 1 0"/>
<feBlend mode="normal" in2="BackgroundImageFix" result="effect1_dropShadow_146_27"/>
<feColorMatrix in="SourceAlpha" type="matrix" values="0 0 0 0 0 0 0 0 0 0 0 0 0 0 0 0 0 0 127 0" result="hardAlpha"/>
<feOffset dy="6"/>
<feComposite in2="hardAlpha" operator="out"/>
<feColorMatrix type="matrix" values="0 0 0 0 0.205128 0 0 0 0 0.205128 0 0 0 0 0.205128 0 0 0 0.25 0"/>
<feBlend mode="normal" in2="effect1_dropShadow_146_27" result="effect2_dropShadow_146_27"/>
<feBlend mode="normal" in="SourceGraphic" in2="effect2_dropShadow_146_27" result="shape"/>
</filter>
</defs>
</svg>
