<svg width="32" height="32" viewBox="0 0 32 32" fill="none" xmlns="http://www.w3.org/2000/svg">
<path d="M14.5442 3.46762C15.4132 2.84427 16.5874 2.84398 17.4563 3.46762L17.6369 3.6102L31.4817 15.6073C32.1072 16.1498 32.1752 17.0976 31.633 17.7235C31.0907 18.349 30.1438 18.4164 29.5178 17.8749L28.5666 17.0506V28.3055C28.5663 28.8573 28.1183 29.3051 27.5666 29.3055H22.8C22.2479 29.3055 21.8003 28.8576 21.8 28.3055V21.6073C21.8 21.0552 21.352 20.6077 20.8 20.6073H15.0666C14.5143 20.6073 14.0666 21.055 14.0666 21.6073V28.3055C14.0663 28.8574 13.6185 29.3052 13.0666 29.3055H5.39964C4.84774 29.3053 4.39993 28.8574 4.39964 28.3055V16.2127L2.48264 17.8749C1.85676 18.4171 0.908997 18.349 0.366432 17.7235C-0.176017 17.0974 -0.108175 16.1498 0.517799 15.6073L14.3625 3.6102L14.5442 3.46762ZM8.76585 15.4334C8.48994 15.4336 8.26595 15.6575 8.26585 15.9334V18.7997C8.2659 19.0756 8.48991 19.2995 8.76585 19.2997H11.633C11.9089 19.2994 12.133 19.0756 12.133 18.7997V15.9334C12.1329 15.6576 11.9089 15.4337 11.633 15.4334H8.76585Z" fill="white"/>
</svg>
