<svg width="118" height="62" viewBox="0 0 118 62" fill="none" xmlns="http://www.w3.org/2000/svg">
<path d="M93.8536 38.9086C96.9323 39.0338 99.4836 39.9956 100.298 41.5027C100.644 42.1431 100.676 42.8821 100.302 43.697C99.2998 45.8834 93.7657 45.9505 92.5112 43.7359C92.122 43.0482 92.782 42.3141 92.452 41.6663C92.1175 41.0102 91.3974 40.9855 90.6674 40.5339C88.4102 39.1368 92.1749 38.84 93.8536 38.9086ZM37.9424 13.7423C39.0167 12.8578 38.1979 11.3084 37.7567 10.3648C36.9075 8.54662 33.1625 10.0877 32.7141 11.2793C32.6245 11.5179 32.6738 11.7989 32.8262 12.0972C33.4298 13.2749 35.9892 15.3504 37.9424 13.7423ZM21.7143 38.9076C18.6823 38.8499 17.2923 39.7718 17.912 41.5909C17.9317 41.6486 17.9541 41.7048 17.9792 41.7595C20.1817 46.5489 34.3696 39.1496 21.7143 38.9076ZM55.5057 50.1044C55.3416 50.9395 56.0276 51.3596 57.5109 51.259C57.5575 51.256 57.6042 51.2516 57.649 51.2472C61.576 50.8242 56.1899 46.618 55.5057 50.1044ZM83.477 11.5282C85.2267 11.2832 85.7764 10.628 84.9379 9.64353C84.911 9.61248 84.8832 9.58239 84.8545 9.55331C82.3175 7.0139 76.1728 12.5502 83.477 11.5282ZM52.2755 8.36471C52.8719 10.5206 54.513 12.67 54.2538 14.8761C54.0538 16.5809 51.6236 18.9458 48.9368 16.7337C46.8886 15.0477 48.5575 6.92566 41.7007 7.70903C41.7483 10.5861 44.1185 12.7499 46.008 15.3317C46.3658 15.8202 47.2921 16.7737 46.5433 17.2849C45.7631 17.8178 44.531 17.2578 43.7786 17.5368C41.9599 18.2112 44.9309 19.9914 41.6389 20.3779C36.9945 20.9232 35.1103 14.8653 30.2991 17.1207C28.372 18.0244 30.2848 19.2751 31.9142 19.6833C34.4135 20.3099 40.5618 21.2116 36.6949 23.4695C33.3625 25.4148 25.6476 22.4204 22.5761 21.4295C20.344 20.7092 14.4648 18.1649 11.5745 18.8462C8.70119 19.5231 11.7682 21.0001 13.3698 21.5616C16.6699 22.7187 20.6453 22.8878 24.3607 23.3551C25.6933 23.5227 29.0706 23.7633 28.7361 24.8726C28.4823 25.7131 25.9435 25.44 25.5426 25.9054C25.1696 26.3377 32.9984 26.179 32.4604 28.1145C32.0254 29.6778 28.38 29.2794 26.2107 29.2977C24.0486 29.3159 20.9108 29.5708 23.22 31.1252C24.2316 31.806 26.2529 31.633 27.4519 31.3485C28.8455 31.0177 30.1503 30.5375 31.6909 30.9033C32.9258 31.1967 34.1149 32.1018 33.5015 32.9039C32.2344 34.5594 27.1416 33.4186 25.3597 34.8931C23.7258 36.2449 28.163 37.1224 29.8023 36.9198C31.9142 36.6585 33.1419 35.1677 35.1561 34.7334C36.0044 34.55 36.8788 34.5387 37.1756 35.1766C37.6222 36.1365 35.6009 36.3075 35.2386 36.9662C34.7462 37.8614 36.1345 38.3308 37.2133 37.8319C38.7486 37.122 41.238 35.9264 39.8525 38.0616C38.8732 39.5696 36.2905 40.3589 33.9185 41.1024C31.795 41.7679 26.2753 44.1486 32.3716 43.1202C34.2109 42.8101 38.7234 39.6328 40.5242 40.2022C41.968 40.6587 38.5172 41.8325 38.5611 42.674C40.7663 42.5789 42.4567 40.8238 44.9085 41.5239C46.7415 42.0479 46.6474 43.3918 46.598 44.4133C46.5075 46.2936 44.0942 48.5096 46.2662 50.2671C47.4787 51.2482 50.0461 51.4596 51.2604 50.3726C52.5759 49.1943 51.8065 47.3087 51.6514 46.0042C51.4756 44.5242 50.4694 41.5347 53.8 40.8337C56.0734 40.3555 56.9782 42.0519 59.1672 42.1963C62.0997 42.3896 63.9497 41.9671 64.5282 44.1131C64.8671 45.3697 64.6609 46.8916 66.1881 47.9569C67.3979 48.8004 68.4749 48.9745 68.9053 47.8514C69.4766 46.337 65.6294 43.8779 67.2974 42.4058C68.6668 41.2005 71.7293 43.5397 72.2907 44.156C73.5372 45.525 73.4816 47.1805 74.4358 48.6023C75.8374 50.6916 79.4998 53.6461 83.5847 54.2924C86.6938 54.7844 87.5143 53.2246 86.318 51.9211C85.3325 50.8473 83.2493 49.9062 81.8646 48.9922C80.7141 48.233 69.3878 40.6513 71.584 40.1701C72.9606 39.8684 75.05 41.8142 76.223 42.0504C78.3941 42.4872 78.3493 41.4356 80.1267 41.4647C81.5266 41.4874 82.3453 42.6829 83.2699 43.1897C84.5146 43.872 86.701 44.5218 88.4819 44.3995C91.0978 44.2196 84.5792 41.3094 84.4151 41.2478C82.7659 40.6306 79.6577 39.753 81.3696 38.6458C82.7489 37.7535 84.4518 37.9349 85.3101 36.7547C85.884 35.9649 85.2715 35.0637 87.1619 34.8902C89.0801 34.7142 92.4744 37.1249 94.2177 36.0714C96.1763 34.8882 87.2964 34.2034 91.0467 33.0385C93.7846 32.1881 100.025 33.2002 102.861 33.391C105.864 33.5931 115.196 34.7768 117.529 33.1464C119.901 31.488 112.64 30.3926 110.789 30.2038C106.398 29.7552 102.53 30.327 98.3931 31.0626C95.2867 31.6147 91.383 32.1817 88.1878 31.4427C86.2992 31.0059 85.7701 30.3537 88.038 29.8567C87.6094 28.7933 83.7263 29.4175 84.6151 27.9128C85.458 26.4861 93.2573 26.2658 95.6301 25.8812C99.9096 25.1871 104.095 24.282 107.903 22.9908C111.332 21.8283 116.387 19.7632 116.012 17.2139C115.72 15.2227 112.066 14.3452 108.809 14.5296C100.479 15.0014 100.351 19.3821 97.8353 22.6571C96.5 24.3958 90.9768 25.8758 87.7116 24.6211C85.2536 23.677 88.021 21.8012 88.9357 20.6496C86.3494 20.4016 84.7442 21.426 83.5398 22.5175C82.765 23.2196 83.1408 23.7658 81.2333 23.8373C74.1102 24.105 83.0726 19.7701 84.0339 19.1686C85.936 17.9795 91.1714 15.7049 85.6741 14.9284C83.9201 14.6804 82.7211 15.4194 81.7229 16.1431C80.2908 17.1809 78.0022 20.5199 74.8294 19.5887C71.0827 18.4893 76.1118 15.7389 75.7244 14.2239C75.1675 12.0474 70.9034 13.4716 69.638 14.6745C68.4552 15.7985 69.3071 18.2532 66.2509 17.314C65.3407 17.0345 64.8071 15.9632 63.4834 16.1387C62.2871 16.297 62.2817 17.5043 61.7284 17.9554C58.0068 20.9888 56.1039 14.4448 56.1469 13.3957C56.2617 10.6108 65.4223 2.63663 56.9576 1.15026C50.2425 -0.0284843 51.7895 6.60966 52.2755 8.36471ZM11.0086 25.864C9.38095 26.1938 9.92977 27.1793 8.81418 27.6949C7.58739 28.2624 -0.651286 27.5219 2.83538 29.8271C5.55082 31.6221 10.6041 29.0428 13.6729 28.8904C15.2261 28.8135 21.0588 28.9437 22.0865 28.146C23.5724 26.9934 18.0779 27.0965 17.0107 26.8983C15.4234 26.6044 12.7636 25.509 11.0086 25.864ZM1.17455 26.0774C1.92246 26.7814 1.84085 26.6769 3.24072 26.808C4.57512 26.9333 9.45179 27.3163 7.3363 25.8487C6.55431 25.3064 5.32393 25.4134 4.28008 25.1757C3.37613 24.9702 2.0776 24.0379 1.14227 24.031C-1.12568 24.0152 0.583574 25.5213 1.17455 26.0774ZM40.7869 44.9369C39.5288 43.4184 38.7019 44.1614 37.5567 45.2913C37.0034 45.8371 35.8986 46.4405 35.4134 47.0725C34.4907 48.2754 34.6279 49.6514 34.7507 50.9322C37.7675 50.9366 36.6573 49.5138 37.9953 48.727C39.1745 48.0333 41.0282 48.7048 41.9249 47.6853C42.5482 46.9774 41.3178 45.5778 40.7869 44.9369ZM24.6512 58.5849C25.7489 60.3473 29.5378 57.3825 30.0902 56.8086C31.5367 55.3045 31.8272 53.6584 32.6989 52.0596L32.9231 51.9364C32.9706 51.4103 32.5169 50.9888 31.6165 50.9721C29.6768 53.7516 29.6705 56.7485 24.6512 58.5849ZM28.9638 61.776C29.5198 61.5315 30.0409 61.1381 30.179 60.8669C30.6659 59.9105 28.8383 58.3852 28.0984 59.9436C28.0671 60.0106 27.3954 61.5275 27.3819 61.4339C27.4922 62.1581 28.2572 62.0871 28.9638 61.776ZM11.8094 12.845C9.29306 12.8845 7.57125 11.6599 4.92756 11.9019C5.03427 14.1268 14.7553 15.2656 17.7003 16.1067C20.1136 16.7959 20.2319 17.5354 21.6103 18.6052C22.6532 19.4151 27.7245 20.7388 27.7693 19.0626C27.8106 17.5151 21.5071 16.1579 19.5253 15.4229C17.6026 14.71 13.0497 9.75987 11.8094 12.845ZM72.3194 0.408802C71.0495 -0.413509 70.7742 0.128769 70.4245 0.942699C70.2559 1.33562 69.7618 1.81875 69.6631 2.2585C69.4757 3.0961 70.0021 3.93862 70.4899 4.72346C72.3678 4.43358 71.2199 3.65614 71.8001 3.03694C72.3113 2.4907 73.6789 2.72881 73.9102 2.00756C74.0708 1.50669 72.8565 0.755867 72.3194 0.408802ZM66.667 10.4639C67.9162 11.4538 69.3205 9.24174 69.4793 8.83108C69.8963 7.75488 69.5474 6.70332 69.577 5.62416L69.6766 5.52557C69.5376 5.19378 69.1197 4.97538 68.5538 5.05278C68.2408 6.96954 69.1986 8.83453 66.667 10.4639ZM70.3743 12.0301C70.6415 11.824 70.8388 11.5287 70.8379 11.3468C70.8343 10.7049 69.2066 9.93341 69.2479 10.9741C69.2497 11.0185 69.3196 12.0276 69.2802 11.971C69.5815 12.4107 70.0344 12.2919 70.3743 12.0301ZM93.8312 55.0181C91.8682 55.9207 90.5714 53.8201 91.4619 53.0269C91.2064 53.2546 96.1368 53.9572 93.8312 55.0181ZM91.6144 51.505C90.315 52.3668 85.9871 51.0717 88.0371 50.0783C89.4953 49.3718 93.2358 50.4298 91.6144 51.505Z" fill="url(#paint0_linear_104_263)" fill-opacity="0.3"/>
<defs>
<linearGradient id="paint0_linear_104_263" x1="-3.6206" y1="30.9999" x2="125.745" y2="30.9999" gradientUnits="userSpaceOnUse">
<stop offset="0.0054" stop-color="#1DA8FF"/>
<stop offset="1" stop-color="#FF00DD"/>
</linearGradient>
</defs>
</svg>
