<svg width="636" height="416" viewBox="0 0 636 416" fill="none" xmlns="http://www.w3.org/2000/svg">
<g filter="url(#filter0_dd_146_26)">
<path d="M564.304 82.8148C558.098 80.6992 552.456 78.5836 547.379 76.4681C542.302 74.2115 537.929 71.5317 534.262 68.4289C530.595 65.3261 527.704 61.6591 525.589 57.4279C523.614 53.0558 522.627 47.7668 522.627 41.5612C522.627 29.5729 527.211 19.9823 536.378 12.7894C545.687 5.59647 558.662 2 575.304 2C581.369 2 587.011 2.42312 592.229 3.26934C597.447 4.11558 601.89 5.45543 605.557 7.28892C609.365 8.98138 612.327 11.238 614.443 14.0587C616.558 16.7385 617.616 19.9118 617.616 23.5788C617.616 27.2458 616.77 30.4192 615.077 33.0989C613.385 35.6376 611.34 37.8236 608.942 39.6571C605.839 37.6826 601.679 35.9902 596.46 34.5798C591.242 33.0284 585.53 32.2526 579.324 32.2526C572.977 32.2526 568.323 33.1694 565.361 35.0029C562.4 36.6953 560.919 38.8814 560.919 41.5612C560.919 43.6767 561.835 45.4397 563.669 46.8501C565.502 48.1194 568.253 49.3182 571.92 50.4465L583.132 54.043C596.39 58.2742 606.544 63.7041 613.596 70.3329C620.789 76.8207 624.386 85.706 624.386 96.9891C624.386 108.977 619.661 118.709 610.211 126.184C600.762 133.518 586.87 137.185 568.535 137.185C562.047 137.185 555.982 136.621 550.341 135.492C544.84 134.505 539.974 133.024 535.743 131.05C531.653 128.934 528.409 126.395 526.012 123.434C523.755 120.331 522.627 116.805 522.627 112.856C522.627 108.766 523.826 105.31 526.223 102.49C528.621 99.5278 531.23 97.2712 534.051 95.7197C538 98.8226 542.795 101.502 548.437 103.759C554.219 106.016 560.496 107.144 567.265 107.144C574.176 107.144 579.042 106.086 581.863 103.97C584.684 101.855 586.094 99.3867 586.094 96.566C586.094 93.7452 584.966 91.6296 582.709 90.2193C580.452 88.6678 577.279 87.1869 573.189 85.7766L564.304 82.8148Z" fill="#00F5D4"/>
</g>
<g filter="url(#filter1_dd_146_26)">
<path d="M447.782 82.8148C441.576 80.6992 435.935 78.5836 430.858 76.4681C425.78 74.2115 421.408 71.5317 417.741 68.4289C414.074 65.3261 411.183 61.6591 409.067 57.4279C407.093 53.0558 406.105 47.7668 406.105 41.5612C406.105 29.5729 410.689 19.9823 419.857 12.7894C429.165 5.59647 442.141 2 458.783 2C464.848 2 470.489 2.42312 475.708 3.26934C480.926 4.11558 485.369 5.45543 489.036 7.28892C492.844 8.98138 495.806 11.238 497.921 14.0587C500.037 16.7385 501.094 19.9118 501.094 23.5788C501.094 27.2458 500.248 30.4192 498.556 33.0989C496.863 35.6376 494.818 37.8236 492.421 39.6571C489.318 37.6826 485.157 35.9902 479.939 34.5798C474.72 33.0284 469.008 32.2526 462.803 32.2526C456.456 32.2526 451.802 33.1694 448.84 35.0029C445.878 36.6953 444.397 38.8814 444.397 41.5612C444.397 43.6767 445.314 45.4397 447.147 46.8501C448.981 48.1194 451.731 49.3182 455.398 50.4465L466.611 54.043C479.868 58.2742 490.023 63.7041 497.075 70.3329C504.268 76.8207 507.864 85.706 507.864 96.9891C507.864 108.977 503.139 118.709 493.69 126.184C484.24 133.518 470.348 137.185 452.013 137.185C445.525 137.185 439.461 136.621 433.819 135.492C428.319 134.505 423.453 133.024 419.222 131.05C415.132 128.934 411.888 126.395 409.49 123.434C407.234 120.331 406.105 116.805 406.105 112.856C406.105 108.766 407.304 105.31 409.702 102.49C412.099 99.5278 414.709 97.2712 417.529 95.7197C421.478 98.8226 426.274 101.502 431.915 103.759C437.698 106.016 443.974 107.144 450.744 107.144C457.655 107.144 462.521 106.086 465.341 103.97C468.162 101.855 469.572 99.3867 469.572 96.566C469.572 93.7452 468.444 91.6296 466.187 90.2193C463.931 88.6678 460.758 87.1869 456.667 85.7766L447.782 82.8148Z" fill="#00F5D4"/>
</g>
<g filter="url(#filter2_dd_146_26)">
<path d="M294.459 25.272C294.459 19.2073 296.222 14.412 299.748 10.8861C303.274 7.36014 308.07 5.59717 314.134 5.59717H383.948C384.935 7.14858 385.782 9.19363 386.487 11.7323C387.333 14.271 387.756 16.9507 387.756 19.7715C387.756 25.1309 386.557 28.9389 384.16 31.1956C381.903 33.4522 378.871 34.5805 375.063 34.5805H330.424V54.2553H378.024C379.012 55.8067 379.858 57.8517 380.563 60.3904C381.409 62.7881 381.832 65.3973 381.832 68.218C381.832 73.5775 380.704 77.3855 378.448 79.6421C376.191 81.8987 373.159 83.027 369.351 83.027H330.424V105.241H384.794C385.782 106.792 386.628 108.837 387.333 111.376C388.179 113.914 388.602 116.594 388.602 119.415C388.602 124.774 387.403 128.653 385.006 131.05C382.749 133.307 379.717 134.435 375.909 134.435H314.134C308.07 134.435 303.274 132.672 299.748 129.146C296.222 125.62 294.459 120.825 294.459 114.761V25.272Z" fill="#00F5D4"/>
</g>
<g filter="url(#filter3_dd_146_26)">
<path d="M267.578 86.4114C267.578 94.0275 266.238 101.009 263.559 107.356C261.02 113.561 257.283 118.921 252.346 123.434C247.41 127.806 241.416 131.191 234.364 133.589C227.312 135.986 219.343 137.185 210.458 137.185C201.573 137.185 193.604 135.986 186.552 133.589C179.5 131.191 173.506 127.806 168.57 123.434C163.633 118.921 159.825 113.561 157.146 107.356C154.607 101.009 153.338 94.0275 153.338 86.4114V5.59664C154.889 5.31456 157.357 4.96197 160.742 4.53886C164.127 3.9747 167.371 3.69263 170.474 3.69263C173.718 3.69263 176.538 3.9747 178.936 4.53886C181.475 4.96197 183.59 5.80819 185.283 7.07754C186.975 8.34688 188.244 10.1099 189.091 12.3665C189.937 14.6231 190.36 17.5849 190.36 21.2519V85.7767C190.36 92.5466 192.193 97.8355 195.86 101.644C199.669 105.452 204.534 107.356 210.458 107.356C216.523 107.356 221.388 105.452 225.055 101.644C228.722 97.8355 230.556 92.5466 230.556 85.7767V5.59664C232.107 5.31456 234.575 4.96197 237.96 4.53886C241.345 3.9747 244.589 3.69263 247.692 3.69263C250.936 3.69263 253.757 3.9747 256.154 4.53886C258.693 4.96197 260.808 5.80819 262.501 7.07754C264.193 8.34688 265.463 10.1099 266.309 12.3665C267.155 14.6231 267.578 17.5849 267.578 21.2519V86.4114Z" fill="#00F5D4"/>
</g>
<g filter="url(#filter4_dd_146_26)">
<path d="M129.63 112.856C129.63 117.228 128.854 120.472 127.303 122.587C125.751 124.703 123.283 126.748 119.898 128.723C117.924 129.851 115.456 130.979 112.494 132.108C109.532 133.095 106.288 133.941 102.762 134.646C99.2362 135.492 95.4987 136.127 91.5496 136.55C87.7416 136.973 83.9336 137.185 80.1256 137.185C69.9708 137.185 60.4508 135.845 51.5654 133.165C42.68 130.345 34.9229 126.184 28.2941 120.683C21.8064 115.042 16.6585 108.061 12.8505 99.7393C9.04244 91.4181 7.13843 81.757 7.13843 70.756C7.13843 59.1909 9.18348 49.1067 13.2736 40.5034C17.5047 31.9 23.0052 24.7776 29.775 19.1361C36.6859 13.3536 44.5135 9.0519 53.2578 6.23114C62.1432 3.41038 71.2402 2 80.5487 2C93.9473 2 104.525 4.18609 112.282 8.55827C120.18 12.7894 124.129 18.3604 124.129 25.2713C124.129 28.9383 123.213 32.1116 121.379 34.7913C119.546 37.4711 117.43 39.5866 115.032 41.138C111.507 39.0225 107.064 36.9774 101.704 35.0029C96.486 32.8873 90.5624 31.8295 83.9336 31.8295C72.0864 31.8295 62.6369 35.2144 55.585 41.9843C48.6741 48.7541 45.2187 58.1331 45.2187 70.1213C45.2187 76.6091 46.1354 82.2506 47.9689 87.0459C49.9435 91.7002 52.5527 95.5787 55.7965 98.6815C59.0404 101.643 62.7779 103.9 67.009 105.451C71.2402 106.862 75.7534 107.567 80.5487 107.567C83.6515 107.567 86.4018 107.285 88.7994 106.721C91.1971 106.157 93.0305 105.522 94.2999 104.817V84.9303H71.6633C70.8171 83.3789 69.9708 81.3339 69.1246 78.7952C68.4194 76.2565 68.0668 73.5768 68.0668 70.756C68.0668 65.6786 69.1951 62.0117 71.4517 59.7551C73.8494 57.4985 76.8817 56.3701 80.5487 56.3701H116.302C120.533 56.3701 123.777 57.569 126.033 59.9666C128.431 62.2232 129.63 65.4671 129.63 69.6982V112.856Z" fill="#00F5D4"/>
</g>
<g filter="url(#filter5_dd_146_26)">
<path d="M563.514 364.337V404.956C561.962 405.379 559.494 405.802 556.109 406.225C552.865 406.648 549.621 406.86 546.377 406.86C543.134 406.86 540.242 406.578 537.704 406.013C535.306 405.59 533.261 404.744 531.569 403.475C530.017 402.205 528.818 400.442 527.972 398.186C527.126 395.929 526.703 392.967 526.703 389.3V289.657C526.703 286.695 527.478 284.439 529.03 282.887C530.722 281.195 532.979 279.855 535.8 278.868C540.595 277.175 546.166 275.976 552.513 275.271C558.859 274.425 565.629 274.002 572.822 274.002C592.285 274.002 606.953 278.092 616.826 286.272C626.699 294.452 631.635 305.524 631.635 319.487C631.635 328.231 629.378 335.706 624.865 341.912C620.352 348.117 614.992 352.913 608.787 356.298C613.864 363.208 618.871 369.696 623.807 375.761C628.744 381.825 632.622 387.326 635.443 392.262C634.033 397.199 631.423 401.007 627.615 403.686C623.948 406.225 619.788 407.494 615.133 407.494C612.031 407.494 609.351 407.142 607.094 406.437C604.838 405.731 602.863 404.744 601.171 403.475C599.478 402.205 597.927 400.654 596.516 398.821C595.106 396.987 593.766 395.013 592.497 392.897L574.726 364.337H563.514ZM576.842 336.2C582.201 336.2 586.432 334.86 589.535 332.18C592.638 329.359 594.189 325.269 594.189 319.91C594.189 314.55 592.426 310.531 588.9 307.851C585.516 305.03 580.086 303.62 572.611 303.62C570.495 303.62 568.803 303.69 567.533 303.831C566.264 303.973 564.853 304.184 563.302 304.466V336.2H576.842Z" fill="#FFD60A"/>
</g>
<g filter="url(#filter6_dd_146_26)">
<path d="M371.605 341.489C371.605 330.488 373.297 320.756 376.682 312.294C380.208 303.832 384.933 296.78 390.857 291.138C396.921 285.356 403.973 280.984 412.012 278.022C420.192 275.06 429.007 273.579 438.457 273.579C447.906 273.579 456.651 275.06 464.69 278.022C472.87 280.984 479.993 285.356 486.057 291.138C492.122 296.78 496.847 303.832 500.231 312.294C503.757 320.756 505.52 330.488 505.52 341.489C505.52 352.49 503.828 362.292 500.443 370.895C497.058 379.358 492.333 386.48 486.269 392.263C480.345 397.904 473.293 402.206 465.113 405.168C456.933 408.129 448.047 409.61 438.457 409.61C428.866 409.61 419.981 408.129 411.801 405.168C403.62 402.065 396.569 397.622 390.645 391.839C384.721 386.057 380.067 378.934 376.682 370.472C373.297 362.01 371.605 352.349 371.605 341.489ZM409.685 341.489C409.685 354.323 412.294 363.914 417.513 370.261C422.731 376.607 429.713 379.781 438.457 379.781C447.342 379.781 454.394 376.607 459.613 370.261C464.831 363.914 467.44 354.323 467.44 341.489C467.44 328.795 464.831 319.275 459.613 312.929C454.535 306.582 447.554 303.409 438.668 303.409C429.924 303.409 422.872 306.582 417.513 312.929C412.294 319.134 409.685 328.654 409.685 341.489Z" fill="#FFD60A"/>
</g>
<g filter="url(#filter7_dd_146_26)">
<path d="M295.567 406.436C289.502 406.436 284.707 404.673 281.181 401.148C277.655 397.622 275.892 392.826 275.892 386.762V277.387C277.444 277.105 279.912 276.752 283.297 276.329C286.682 275.765 289.925 275.483 293.028 275.483C296.272 275.483 299.093 275.765 301.491 276.329C304.029 276.752 306.145 277.598 307.837 278.868C309.53 280.137 310.799 281.9 311.645 284.157C312.492 286.413 312.915 289.375 312.915 293.042V376.607H361.361C362.348 378.158 363.265 380.274 364.111 382.954C364.958 385.492 365.381 388.172 365.381 390.993C365.381 396.634 364.182 400.654 361.784 403.052C359.387 405.308 356.213 406.436 352.264 406.436H295.567Z" fill="#FFD60A"/>
</g>
<g filter="url(#filter8_dd_146_26)">
<path d="M120.794 341.489C120.794 330.488 122.487 320.756 125.872 312.294C129.398 303.832 134.122 296.78 140.046 291.138C146.111 285.356 153.162 280.984 161.202 278.022C169.382 275.06 178.197 273.579 187.646 273.579C197.096 273.579 205.84 275.06 213.879 278.022C222.059 280.984 229.182 285.356 235.247 291.138C241.311 296.78 246.036 303.832 249.421 312.294C252.947 320.756 254.71 330.488 254.71 341.489C254.71 352.49 253.017 362.292 249.632 370.895C246.247 379.358 241.523 386.48 235.458 392.263C229.534 397.904 222.483 402.206 214.302 405.168C206.122 408.129 197.237 409.61 187.646 409.61C178.056 409.61 169.17 408.129 160.99 405.168C152.81 402.065 145.758 397.622 139.834 391.839C133.911 386.057 129.256 378.934 125.872 370.472C122.487 362.01 120.794 352.349 120.794 341.489ZM158.874 341.489C158.874 354.323 161.484 363.914 166.702 370.261C171.92 376.607 178.902 379.781 187.646 379.781C196.532 379.781 203.583 376.607 208.802 370.261C214.02 363.914 216.63 354.323 216.63 341.489C216.63 328.795 214.02 319.275 208.802 312.929C203.725 306.582 196.743 303.409 187.858 303.409C179.113 303.409 172.061 306.582 166.702 312.929C161.484 319.134 158.874 328.654 158.874 341.489Z" fill="#FFD60A"/>
</g>
<g filter="url(#filter9_dd_146_26)">
<path d="M73.7178 303.409C62.8579 303.409 54.5366 306.723 48.7541 313.352C42.9715 319.981 40.0803 329.36 40.0803 341.489C40.0803 353.759 43.2536 363.209 49.6003 369.838C56.0881 376.466 64.7619 379.781 75.6218 379.781C81.4044 379.781 86.2702 379.005 90.2193 377.454C94.3094 375.902 98.1879 374.139 101.855 372.165C104.253 374.139 106.086 376.537 107.355 379.358C108.766 382.037 109.471 385.211 109.471 388.878C109.471 394.66 106.227 399.597 99.7393 403.687C93.3926 407.636 83.661 409.61 70.5445 409.61C61.0949 409.61 52.2095 408.27 43.8883 405.591C35.567 402.911 28.3036 398.821 22.0979 393.32C15.8922 387.679 10.9559 380.627 7.28892 372.165C3.76298 363.561 2 353.336 2 341.489C2 330.488 3.69246 320.827 7.07737 312.506C10.6033 304.043 15.3281 296.921 21.2517 291.138C27.3163 285.356 34.3682 280.984 42.4074 278.022C50.4466 275.06 59.0499 273.579 68.2173 273.579C81.1928 273.579 91.2065 275.695 98.2584 279.926C105.451 284.157 109.048 289.587 109.048 296.216C109.048 299.883 108.131 303.056 106.298 305.736C104.464 308.415 102.349 310.531 99.9509 312.082C96.2839 309.685 92.3348 307.64 88.1037 305.947C84.0136 304.255 79.2183 303.409 73.7178 303.409Z" fill="#FFD60A"/>
</g>
<g filter="url(#filter10_dd_146_26)">
<path d="M379.409 171.125C379.409 166.793 380.668 163.368 383.187 160.849C385.706 158.331 389.131 157.071 393.463 157.071H443.33C444.035 158.179 444.639 159.64 445.143 161.454C445.747 163.267 446.05 165.181 446.05 167.196C446.05 171.024 445.193 173.744 443.481 175.356C441.869 176.968 439.703 177.774 436.983 177.774H405.098V191.827H439.098C439.804 192.935 440.408 194.396 440.912 196.209C441.516 197.922 441.818 199.786 441.818 201.8C441.818 205.629 441.013 208.349 439.401 209.961C437.789 211.572 435.623 212.378 432.903 212.378H405.098V228.245H443.934C444.639 229.353 445.244 230.814 445.747 232.627C446.352 234.441 446.654 236.355 446.654 238.37C446.654 242.198 445.798 244.968 444.085 246.681C442.473 248.293 440.307 249.099 437.587 249.099H393.463C389.131 249.099 385.706 247.839 383.187 245.321C380.668 242.802 379.409 239.377 379.409 235.045V171.125Z" fill="#FF00E2"/>
</g>
<g filter="url(#filter11_dd_146_26)">
<path d="M359.783 248.041C358.675 248.343 356.912 248.646 354.495 248.948C352.177 249.25 349.86 249.401 347.543 249.401C345.226 249.401 343.161 249.2 341.348 248.797C339.635 248.495 338.174 247.89 336.966 246.983C335.757 246.077 334.85 244.817 334.245 243.206C333.641 241.594 333.339 239.478 333.339 236.859V213.285H304.325V248.041C303.217 248.343 301.454 248.646 299.036 248.948C296.719 249.25 294.402 249.401 292.085 249.401C289.768 249.401 287.703 249.2 285.89 248.797C284.177 248.495 282.716 247.89 281.507 246.983C280.298 246.077 279.392 244.817 278.787 243.206C278.183 241.594 277.881 239.478 277.881 236.859V157.072C278.989 156.87 280.752 156.618 283.17 156.316C285.587 155.913 287.904 155.712 290.121 155.712C292.438 155.712 294.453 155.913 296.165 156.316C297.979 156.618 299.49 157.223 300.699 158.129C301.908 159.036 302.814 160.295 303.419 161.907C304.023 163.519 304.325 165.635 304.325 168.254V192.432H333.339V157.072C334.447 156.87 336.21 156.618 338.628 156.316C341.046 155.913 343.363 155.712 345.579 155.712C347.896 155.712 349.911 155.913 351.623 156.316C353.437 156.618 354.948 157.223 356.157 158.129C357.366 159.036 358.272 160.295 358.877 161.907C359.481 163.519 359.783 165.635 359.783 168.254V248.041Z" fill="#FF00E2"/>
</g>
<g filter="url(#filter12_dd_146_26)">
<path d="M189.682 178.227C188.977 177.119 188.322 175.608 187.718 173.694C187.113 171.78 186.811 169.765 186.811 167.65C186.811 163.721 187.667 160.9 189.38 159.187C191.193 157.475 193.51 156.618 196.331 156.618H262.216C262.921 157.727 263.576 159.238 264.18 161.152C264.785 163.066 265.087 165.081 265.087 167.196C265.087 171.125 264.18 173.946 262.367 175.659C260.654 177.371 258.388 178.227 255.567 178.227H238.793V248.041C237.685 248.343 235.922 248.646 233.505 248.948C231.188 249.25 228.87 249.401 226.553 249.401C224.236 249.401 222.171 249.2 220.358 248.797C218.645 248.495 217.184 247.89 215.976 246.983C214.767 246.077 213.86 244.818 213.256 243.206C212.651 241.594 212.349 239.478 212.349 236.859V178.227H189.682Z" fill="#FF00E2"/>
</g>
<defs>
<filter id="filter0_dd_146_26" x="520.627" y="0" width="103.759" height="143.185" filterUnits="userSpaceOnUse" color-interpolation-filters="sRGB">
<feFlood flood-opacity="0" result="BackgroundImageFix"/>
<feColorMatrix in="SourceAlpha" type="matrix" values="0 0 0 0 0 0 0 0 0 0 0 0 0 0 0 0 0 0 127 0" result="hardAlpha"/>
<feOffset dx="-2" dy="-2"/>
<feComposite in2="hardAlpha" operator="out"/>
<feColorMatrix type="matrix" values="0 0 0 0 1 0 0 0 0 1 0 0 0 0 1 0 0 0 1 0"/>
<feBlend mode="normal" in2="BackgroundImageFix" result="effect1_dropShadow_146_26"/>
<feColorMatrix in="SourceAlpha" type="matrix" values="0 0 0 0 0 0 0 0 0 0 0 0 0 0 0 0 0 0 127 0" result="hardAlpha"/>
<feOffset dy="6"/>
<feComposite in2="hardAlpha" operator="out"/>
<feColorMatrix type="matrix" values="0 0 0 0 0.205128 0 0 0 0 0.205128 0 0 0 0 0.205128 0 0 0 0.25 0"/>
<feBlend mode="normal" in2="effect1_dropShadow_146_26" result="effect2_dropShadow_146_26"/>
<feBlend mode="normal" in="SourceGraphic" in2="effect2_dropShadow_146_26" result="shape"/>
</filter>
<filter id="filter1_dd_146_26" x="404.105" y="0" width="103.759" height="143.185" filterUnits="userSpaceOnUse" color-interpolation-filters="sRGB">
<feFlood flood-opacity="0" result="BackgroundImageFix"/>
<feColorMatrix in="SourceAlpha" type="matrix" values="0 0 0 0 0 0 0 0 0 0 0 0 0 0 0 0 0 0 127 0" result="hardAlpha"/>
<feOffset dx="-2" dy="-2"/>
<feComposite in2="hardAlpha" operator="out"/>
<feColorMatrix type="matrix" values="0 0 0 0 1 0 0 0 0 1 0 0 0 0 1 0 0 0 1 0"/>
<feBlend mode="normal" in2="BackgroundImageFix" result="effect1_dropShadow_146_26"/>
<feColorMatrix in="SourceAlpha" type="matrix" values="0 0 0 0 0 0 0 0 0 0 0 0 0 0 0 0 0 0 127 0" result="hardAlpha"/>
<feOffset dy="6"/>
<feComposite in2="hardAlpha" operator="out"/>
<feColorMatrix type="matrix" values="0 0 0 0 0.205128 0 0 0 0 0.205128 0 0 0 0 0.205128 0 0 0 0.25 0"/>
<feBlend mode="normal" in2="effect1_dropShadow_146_26" result="effect2_dropShadow_146_26"/>
<feBlend mode="normal" in="SourceGraphic" in2="effect2_dropShadow_146_26" result="shape"/>
</filter>
<filter id="filter2_dd_146_26" x="292.459" y="3.59717" width="96.1428" height="136.838" filterUnits="userSpaceOnUse" color-interpolation-filters="sRGB">
<feFlood flood-opacity="0" result="BackgroundImageFix"/>
<feColorMatrix in="SourceAlpha" type="matrix" values="0 0 0 0 0 0 0 0 0 0 0 0 0 0 0 0 0 0 127 0" result="hardAlpha"/>
<feOffset dx="-2" dy="-2"/>
<feComposite in2="hardAlpha" operator="out"/>
<feColorMatrix type="matrix" values="0 0 0 0 1 0 0 0 0 1 0 0 0 0 1 0 0 0 1 0"/>
<feBlend mode="normal" in2="BackgroundImageFix" result="effect1_dropShadow_146_26"/>
<feColorMatrix in="SourceAlpha" type="matrix" values="0 0 0 0 0 0 0 0 0 0 0 0 0 0 0 0 0 0 127 0" result="hardAlpha"/>
<feOffset dy="6"/>
<feComposite in2="hardAlpha" operator="out"/>
<feColorMatrix type="matrix" values="0 0 0 0 0.205128 0 0 0 0 0.205128 0 0 0 0 0.205128 0 0 0 0.25 0"/>
<feBlend mode="normal" in2="effect1_dropShadow_146_26" result="effect2_dropShadow_146_26"/>
<feBlend mode="normal" in="SourceGraphic" in2="effect2_dropShadow_146_26" result="shape"/>
</filter>
<filter id="filter3_dd_146_26" x="151.338" y="1.69263" width="116.241" height="141.492" filterUnits="userSpaceOnUse" color-interpolation-filters="sRGB">
<feFlood flood-opacity="0" result="BackgroundImageFix"/>
<feColorMatrix in="SourceAlpha" type="matrix" values="0 0 0 0 0 0 0 0 0 0 0 0 0 0 0 0 0 0 127 0" result="hardAlpha"/>
<feOffset dx="-2" dy="-2"/>
<feComposite in2="hardAlpha" operator="out"/>
<feColorMatrix type="matrix" values="0 0 0 0 1 0 0 0 0 1 0 0 0 0 1 0 0 0 1 0"/>
<feBlend mode="normal" in2="BackgroundImageFix" result="effect1_dropShadow_146_26"/>
<feColorMatrix in="SourceAlpha" type="matrix" values="0 0 0 0 0 0 0 0 0 0 0 0 0 0 0 0 0 0 127 0" result="hardAlpha"/>
<feOffset dy="6"/>
<feComposite in2="hardAlpha" operator="out"/>
<feColorMatrix type="matrix" values="0 0 0 0 0.205128 0 0 0 0 0.205128 0 0 0 0 0.205128 0 0 0 0.25 0"/>
<feBlend mode="normal" in2="effect1_dropShadow_146_26" result="effect2_dropShadow_146_26"/>
<feBlend mode="normal" in="SourceGraphic" in2="effect2_dropShadow_146_26" result="shape"/>
</filter>
<filter id="filter4_dd_146_26" x="5.13843" y="0" width="124.491" height="143.185" filterUnits="userSpaceOnUse" color-interpolation-filters="sRGB">
<feFlood flood-opacity="0" result="BackgroundImageFix"/>
<feColorMatrix in="SourceAlpha" type="matrix" values="0 0 0 0 0 0 0 0 0 0 0 0 0 0 0 0 0 0 127 0" result="hardAlpha"/>
<feOffset dx="-2" dy="-2"/>
<feComposite in2="hardAlpha" operator="out"/>
<feColorMatrix type="matrix" values="0 0 0 0 1 0 0 0 0 1 0 0 0 0 1 0 0 0 1 0"/>
<feBlend mode="normal" in2="BackgroundImageFix" result="effect1_dropShadow_146_26"/>
<feColorMatrix in="SourceAlpha" type="matrix" values="0 0 0 0 0 0 0 0 0 0 0 0 0 0 0 0 0 0 127 0" result="hardAlpha"/>
<feOffset dy="6"/>
<feComposite in2="hardAlpha" operator="out"/>
<feColorMatrix type="matrix" values="0 0 0 0 0.205128 0 0 0 0 0.205128 0 0 0 0 0.205128 0 0 0 0.25 0"/>
<feBlend mode="normal" in2="effect1_dropShadow_146_26" result="effect2_dropShadow_146_26"/>
<feBlend mode="normal" in="SourceGraphic" in2="effect2_dropShadow_146_26" result="shape"/>
</filter>
<filter id="filter5_dd_146_26" x="524.703" y="272.002" width="110.74" height="141.492" filterUnits="userSpaceOnUse" color-interpolation-filters="sRGB">
<feFlood flood-opacity="0" result="BackgroundImageFix"/>
<feColorMatrix in="SourceAlpha" type="matrix" values="0 0 0 0 0 0 0 0 0 0 0 0 0 0 0 0 0 0 127 0" result="hardAlpha"/>
<feOffset dx="-2" dy="-2"/>
<feComposite in2="hardAlpha" operator="out"/>
<feColorMatrix type="matrix" values="0 0 0 0 1 0 0 0 0 1 0 0 0 0 1 0 0 0 1 0"/>
<feBlend mode="normal" in2="BackgroundImageFix" result="effect1_dropShadow_146_26"/>
<feColorMatrix in="SourceAlpha" type="matrix" values="0 0 0 0 0 0 0 0 0 0 0 0 0 0 0 0 0 0 127 0" result="hardAlpha"/>
<feOffset dy="6"/>
<feComposite in2="hardAlpha" operator="out"/>
<feColorMatrix type="matrix" values="0 0 0 0 0.205128 0 0 0 0 0.205128 0 0 0 0 0.205128 0 0 0 0.25 0"/>
<feBlend mode="normal" in2="effect1_dropShadow_146_26" result="effect2_dropShadow_146_26"/>
<feBlend mode="normal" in="SourceGraphic" in2="effect2_dropShadow_146_26" result="shape"/>
</filter>
<filter id="filter6_dd_146_26" x="369.605" y="271.579" width="135.916" height="144.031" filterUnits="userSpaceOnUse" color-interpolation-filters="sRGB">
<feFlood flood-opacity="0" result="BackgroundImageFix"/>
<feColorMatrix in="SourceAlpha" type="matrix" values="0 0 0 0 0 0 0 0 0 0 0 0 0 0 0 0 0 0 127 0" result="hardAlpha"/>
<feOffset dx="-2" dy="-2"/>
<feComposite in2="hardAlpha" operator="out"/>
<feColorMatrix type="matrix" values="0 0 0 0 1 0 0 0 0 1 0 0 0 0 1 0 0 0 1 0"/>
<feBlend mode="normal" in2="BackgroundImageFix" result="effect1_dropShadow_146_26"/>
<feColorMatrix in="SourceAlpha" type="matrix" values="0 0 0 0 0 0 0 0 0 0 0 0 0 0 0 0 0 0 127 0" result="hardAlpha"/>
<feOffset dy="6"/>
<feComposite in2="hardAlpha" operator="out"/>
<feColorMatrix type="matrix" values="0 0 0 0 0.205128 0 0 0 0 0.205128 0 0 0 0 0.205128 0 0 0 0.25 0"/>
<feBlend mode="normal" in2="effect1_dropShadow_146_26" result="effect2_dropShadow_146_26"/>
<feBlend mode="normal" in="SourceGraphic" in2="effect2_dropShadow_146_26" result="shape"/>
</filter>
<filter id="filter7_dd_146_26" x="273.892" y="273.483" width="91.4886" height="138.954" filterUnits="userSpaceOnUse" color-interpolation-filters="sRGB">
<feFlood flood-opacity="0" result="BackgroundImageFix"/>
<feColorMatrix in="SourceAlpha" type="matrix" values="0 0 0 0 0 0 0 0 0 0 0 0 0 0 0 0 0 0 127 0" result="hardAlpha"/>
<feOffset dx="-2" dy="-2"/>
<feComposite in2="hardAlpha" operator="out"/>
<feColorMatrix type="matrix" values="0 0 0 0 1 0 0 0 0 1 0 0 0 0 1 0 0 0 1 0"/>
<feBlend mode="normal" in2="BackgroundImageFix" result="effect1_dropShadow_146_26"/>
<feColorMatrix in="SourceAlpha" type="matrix" values="0 0 0 0 0 0 0 0 0 0 0 0 0 0 0 0 0 0 127 0" result="hardAlpha"/>
<feOffset dy="6"/>
<feComposite in2="hardAlpha" operator="out"/>
<feColorMatrix type="matrix" values="0 0 0 0 0.205128 0 0 0 0 0.205128 0 0 0 0 0.205128 0 0 0 0.25 0"/>
<feBlend mode="normal" in2="effect1_dropShadow_146_26" result="effect2_dropShadow_146_26"/>
<feBlend mode="normal" in="SourceGraphic" in2="effect2_dropShadow_146_26" result="shape"/>
</filter>
<filter id="filter8_dd_146_26" x="118.794" y="271.579" width="135.916" height="144.031" filterUnits="userSpaceOnUse" color-interpolation-filters="sRGB">
<feFlood flood-opacity="0" result="BackgroundImageFix"/>
<feColorMatrix in="SourceAlpha" type="matrix" values="0 0 0 0 0 0 0 0 0 0 0 0 0 0 0 0 0 0 127 0" result="hardAlpha"/>
<feOffset dx="-2" dy="-2"/>
<feComposite in2="hardAlpha" operator="out"/>
<feColorMatrix type="matrix" values="0 0 0 0 1 0 0 0 0 1 0 0 0 0 1 0 0 0 1 0"/>
<feBlend mode="normal" in2="BackgroundImageFix" result="effect1_dropShadow_146_26"/>
<feColorMatrix in="SourceAlpha" type="matrix" values="0 0 0 0 0 0 0 0 0 0 0 0 0 0 0 0 0 0 127 0" result="hardAlpha"/>
<feOffset dy="6"/>
<feComposite in2="hardAlpha" operator="out"/>
<feColorMatrix type="matrix" values="0 0 0 0 0.205128 0 0 0 0 0.205128 0 0 0 0 0.205128 0 0 0 0.25 0"/>
<feBlend mode="normal" in2="effect1_dropShadow_146_26" result="effect2_dropShadow_146_26"/>
<feBlend mode="normal" in="SourceGraphic" in2="effect2_dropShadow_146_26" result="shape"/>
</filter>
<filter id="filter9_dd_146_26" x="0" y="271.579" width="109.471" height="144.031" filterUnits="userSpaceOnUse" color-interpolation-filters="sRGB">
<feFlood flood-opacity="0" result="BackgroundImageFix"/>
<feColorMatrix in="SourceAlpha" type="matrix" values="0 0 0 0 0 0 0 0 0 0 0 0 0 0 0 0 0 0 127 0" result="hardAlpha"/>
<feOffset dx="-2" dy="-2"/>
<feComposite in2="hardAlpha" operator="out"/>
<feColorMatrix type="matrix" values="0 0 0 0 1 0 0 0 0 1 0 0 0 0 1 0 0 0 1 0"/>
<feBlend mode="normal" in2="BackgroundImageFix" result="effect1_dropShadow_146_26"/>
<feColorMatrix in="SourceAlpha" type="matrix" values="0 0 0 0 0 0 0 0 0 0 0 0 0 0 0 0 0 0 127 0" result="hardAlpha"/>
<feOffset dy="6"/>
<feComposite in2="hardAlpha" operator="out"/>
<feColorMatrix type="matrix" values="0 0 0 0 0.205128 0 0 0 0 0.205128 0 0 0 0 0.205128 0 0 0 0.25 0"/>
<feBlend mode="normal" in2="effect1_dropShadow_146_26" result="effect2_dropShadow_146_26"/>
<feBlend mode="normal" in="SourceGraphic" in2="effect2_dropShadow_146_26" result="shape"/>
</filter>
<filter id="filter10_dd_146_26" x="377.409" y="155.071" width="69.2449" height="100.027" filterUnits="userSpaceOnUse" color-interpolation-filters="sRGB">
<feFlood flood-opacity="0" result="BackgroundImageFix"/>
<feColorMatrix in="SourceAlpha" type="matrix" values="0 0 0 0 0 0 0 0 0 0 0 0 0 0 0 0 0 0 127 0" result="hardAlpha"/>
<feOffset dx="-2" dy="-2"/>
<feComposite in2="hardAlpha" operator="out"/>
<feColorMatrix type="matrix" values="0 0 0 0 1 0 0 0 0 1 0 0 0 0 1 0 0 0 1 0"/>
<feBlend mode="normal" in2="BackgroundImageFix" result="effect1_dropShadow_146_26"/>
<feColorMatrix in="SourceAlpha" type="matrix" values="0 0 0 0 0 0 0 0 0 0 0 0 0 0 0 0 0 0 127 0" result="hardAlpha"/>
<feOffset dy="6"/>
<feComposite in2="hardAlpha" operator="out"/>
<feColorMatrix type="matrix" values="0 0 0 0 0.205128 0 0 0 0 0.205128 0 0 0 0 0.205128 0 0 0 0.25 0"/>
<feBlend mode="normal" in2="effect1_dropShadow_146_26" result="effect2_dropShadow_146_26"/>
<feBlend mode="normal" in="SourceGraphic" in2="effect2_dropShadow_146_26" result="shape"/>
</filter>
<filter id="filter11_dd_146_26" x="275.881" y="153.712" width="83.9028" height="101.689" filterUnits="userSpaceOnUse" color-interpolation-filters="sRGB">
<feFlood flood-opacity="0" result="BackgroundImageFix"/>
<feColorMatrix in="SourceAlpha" type="matrix" values="0 0 0 0 0 0 0 0 0 0 0 0 0 0 0 0 0 0 127 0" result="hardAlpha"/>
<feOffset dx="-2" dy="-2"/>
<feComposite in2="hardAlpha" operator="out"/>
<feColorMatrix type="matrix" values="0 0 0 0 1 0 0 0 0 1 0 0 0 0 1 0 0 0 1 0"/>
<feBlend mode="normal" in2="BackgroundImageFix" result="effect1_dropShadow_146_26"/>
<feColorMatrix in="SourceAlpha" type="matrix" values="0 0 0 0 0 0 0 0 0 0 0 0 0 0 0 0 0 0 127 0" result="hardAlpha"/>
<feOffset dy="6"/>
<feComposite in2="hardAlpha" operator="out"/>
<feColorMatrix type="matrix" values="0 0 0 0 0.205128 0 0 0 0 0.205128 0 0 0 0 0.205128 0 0 0 0.25 0"/>
<feBlend mode="normal" in2="effect1_dropShadow_146_26" result="effect2_dropShadow_146_26"/>
<feBlend mode="normal" in="SourceGraphic" in2="effect2_dropShadow_146_26" result="shape"/>
</filter>
<filter id="filter12_dd_146_26" x="184.811" y="154.618" width="80.2761" height="100.783" filterUnits="userSpaceOnUse" color-interpolation-filters="sRGB">
<feFlood flood-opacity="0" result="BackgroundImageFix"/>
<feColorMatrix in="SourceAlpha" type="matrix" values="0 0 0 0 0 0 0 0 0 0 0 0 0 0 0 0 0 0 127 0" result="hardAlpha"/>
<feOffset dx="-2" dy="-2"/>
<feComposite in2="hardAlpha" operator="out"/>
<feColorMatrix type="matrix" values="0 0 0 0 1 0 0 0 0 1 0 0 0 0 1 0 0 0 1 0"/>
<feBlend mode="normal" in2="BackgroundImageFix" result="effect1_dropShadow_146_26"/>
<feColorMatrix in="SourceAlpha" type="matrix" values="0 0 0 0 0 0 0 0 0 0 0 0 0 0 0 0 0 0 127 0" result="hardAlpha"/>
<feOffset dy="6"/>
<feComposite in2="hardAlpha" operator="out"/>
<feColorMatrix type="matrix" values="0 0 0 0 0.205128 0 0 0 0 0.205128 0 0 0 0 0.205128 0 0 0 0.25 0"/>
<feBlend mode="normal" in2="effect1_dropShadow_146_26" result="effect2_dropShadow_146_26"/>
<feBlend mode="normal" in="SourceGraphic" in2="effect2_dropShadow_146_26" result="shape"/>
</filter>
</defs>
</svg>
