<svg width="595" height="187" viewBox="0 0 595 187" fill="none" xmlns="http://www.w3.org/2000/svg">
<path d="M189.893 37.4023C188.395 37.4674 187.614 37.9232 187.549 38.7695C187.549 39.6159 188.298 40.2344 189.795 40.625C190.251 40.7552 190.674 40.8203 191.064 40.8203C192.432 40.7552 193.148 40.2995 193.213 39.4531C193.213 38.5417 192.497 37.9232 191.064 37.5977C190.674 37.4674 190.283 37.4023 189.893 37.4023ZM176.416 4.39453C174.984 4.45964 174.235 4.91536 174.17 5.76172C174.17 6.60807 174.919 7.22656 176.416 7.61719C176.872 7.7474 177.295 7.8125 177.686 7.8125C179.053 7.7474 179.769 7.29167 179.834 6.44531C179.834 5.53385 179.085 4.88281 177.588 4.49219C177.197 4.42708 176.807 4.39453 176.416 4.39453ZM186.67 12.793C186.67 17.2852 185.661 20.8659 183.643 23.5352C182.471 24.9674 181.201 25.7161 179.834 25.7812C179.443 25.7812 179.02 25.7161 178.564 25.5859C177.393 25.1953 176.156 23.6979 174.854 21.0938C173.421 18.2292 172.087 16.4714 170.85 15.8203C170.133 15.4948 169.385 15.332 168.604 15.332C165.479 15.332 162.874 17.8385 160.791 22.8516C159.098 26.8229 158.252 31.0547 158.252 35.5469C158.252 42.8385 160.27 47.4609 164.307 49.4141C165.609 50.0651 167.041 50.3906 168.604 50.3906C170.752 50.3255 171.859 49.6419 171.924 48.3398C171.924 47.4284 171.045 45.3776 169.287 42.1875C168.636 41.0807 168.311 40.332 168.311 39.9414C168.311 37.2721 171.208 35.4492 177.002 34.4727C179.085 34.1471 181.299 33.9844 183.643 33.9844C190.479 33.9844 195.166 35.0911 197.705 37.3047C198.486 38.151 198.91 39.0299 198.975 39.9414C198.975 40.8529 198.161 42.2852 196.533 44.2383C194.059 47.2331 192.822 50.1302 192.822 52.9297C192.822 55.7943 194.059 58.1055 196.533 59.8633C198.812 61.4258 200.081 62.3698 200.342 62.6953C201.383 63.8672 201.904 65.2669 201.904 66.8945C201.904 69.5638 199.723 71.8099 195.361 73.6328C191.911 75 188.005 75.6836 183.643 75.6836C179.281 75.6836 175.472 75.0651 172.217 73.8281C169.157 74.8047 165.446 75.3906 161.084 75.5859C151.644 75.5859 144.482 71.4518 139.6 63.1836C136.214 57.3893 134.521 50.5534 134.521 42.6758C134.521 32.8451 137.223 23.8607 142.627 15.7227C148.226 7.12891 155.257 2.05078 163.721 0.488281C165.348 0.16276 167.008 0 168.701 0C169.613 0 172.445 0.358073 177.197 1.07422C178.564 1.26953 179.704 1.36719 180.615 1.36719C181.006 1.36719 181.429 1.43229 181.885 1.5625C184.229 2.34375 185.726 4.98047 186.377 9.47266C186.572 10.5794 186.67 11.6862 186.67 12.793ZM259.619 6.15234C260.01 6.9987 260.986 7.51953 262.549 7.71484C264.242 7.51953 265.218 6.9987 265.479 6.15234C265.479 5.37109 264.795 4.81771 263.428 4.49219C263.102 4.42708 262.809 4.39453 262.549 4.39453C260.986 4.39453 260.042 4.85026 259.717 5.76172C259.652 5.95703 259.619 6.08724 259.619 6.15234ZM204.932 6.64062C204.932 4.23177 207.731 2.53906 213.33 1.5625C215.479 1.17188 217.79 0.976562 220.264 0.976562C226.969 0.976562 231.624 2.01823 234.229 4.10156C235.075 4.94792 235.531 5.79427 235.596 6.64062C235.596 7.68229 234.749 9.60286 233.057 12.4023C231.624 14.8763 230.68 16.9922 230.225 18.75C229.704 20.9635 229.443 24.4141 229.443 29.1016C229.443 41.6667 232.243 48.8607 237.842 50.6836C238.883 51.0091 240.023 51.1719 241.26 51.1719C249.398 51.0417 253.467 43.3919 253.467 28.2227V24.0234C253.467 21.224 253.337 19.2708 253.076 18.1641C252.686 16.4714 251.481 13.9323 249.463 10.5469C248.421 8.85417 247.9 7.55208 247.9 6.64062C248.031 2.73438 251.937 0.748698 259.619 0.683594C267.432 0.748698 271.37 2.73438 271.436 6.64062C271.436 7.55208 270.589 9.34245 268.896 12.0117C267.464 14.3555 266.553 16.4062 266.162 18.1641C265.641 20.5729 265.381 23.9258 265.381 28.2227C265.381 30.4362 265.902 35.7422 266.943 44.1406C267.334 47.0052 267.529 49.2188 267.529 50.7812C267.529 59.2448 263.753 65.8529 256.201 70.6055C250.863 73.9909 245.101 75.6836 238.916 75.6836C231.885 75.6836 225.277 73.4701 219.092 69.043C212.777 64.4206 209.391 59.1146 208.936 53.125C208.87 52.6693 208.838 52.2461 208.838 51.8555C208.838 51.1393 209.326 46.9076 210.303 39.1602C210.824 34.9284 211.084 31.3802 211.084 28.5156C211.084 24.8047 210.758 21.4844 210.107 18.5547C209.717 16.9271 208.512 14.388 206.494 10.9375C205.452 9.04948 204.932 7.61719 204.932 6.64062ZM224.17 6.15234C224.561 6.9987 225.537 7.51953 227.1 7.71484C228.792 7.58464 229.736 7.0638 229.932 6.15234C229.932 5.37109 229.281 4.81771 227.979 4.49219C227.653 4.42708 227.36 4.39453 227.1 4.39453C225.537 4.39453 224.593 4.85026 224.268 5.76172C224.202 5.95703 224.17 6.08724 224.17 6.15234ZM324.365 4.19922C323.324 4.26432 322.77 4.65495 322.705 5.37109C322.705 6.28255 323.421 7.03125 324.854 7.61719C325.439 7.8776 325.993 8.00781 326.514 8.00781C327.555 7.94271 328.109 7.55208 328.174 6.83594C328.174 5.92448 327.458 5.17578 326.025 4.58984C325.439 4.32943 324.886 4.19922 324.365 4.19922ZM281.592 47.3633C283.089 41.3737 283.838 35.026 283.838 28.3203C283.838 24.6094 283.512 21.3542 282.861 18.5547C282.471 16.7969 281.266 14.2578 279.248 10.9375C278.206 9.17969 277.686 7.84505 277.686 6.93359C277.751 3.67839 282.861 2.05078 293.018 2.05078H327.1C329.508 2.05078 331.755 3.9388 333.838 7.71484C335.596 10.9701 336.475 14.3229 336.475 17.7734C336.475 22.2656 335.303 24.8698 332.959 25.5859C332.568 25.7161 332.178 25.7812 331.787 25.7812C330.029 25.7812 328.271 24.707 326.514 22.5586C324.43 20.0195 322.835 18.3919 321.729 17.6758C319.515 16.1784 316.846 15.4297 313.721 15.4297C309.619 15.4297 306.331 16.9922 303.857 20.1172C302.62 21.6797 302.002 23.1771 302.002 24.6094C302.002 26.6276 303.141 27.7995 305.42 28.125C305.811 28.1901 306.201 28.2227 306.592 28.2227C308.089 28.2227 309.945 27.4089 312.158 25.7812C313.33 24.9349 314.209 24.5117 314.795 24.5117C316.423 24.5117 317.594 26.0417 318.311 29.1016C318.571 30.3385 318.701 31.6406 318.701 33.0078C318.701 37.0443 317.855 39.7461 316.162 41.1133C315.706 41.4388 315.251 41.6016 314.795 41.6016C314.209 41.6016 313.07 40.9505 311.377 39.6484C309.619 38.4115 308.024 37.793 306.592 37.793C304.053 37.8581 302.751 38.9323 302.686 41.0156C302.686 43.3594 303.825 45.7357 306.104 48.1445C307.666 49.5768 309.098 50.3255 310.4 50.3906C314.372 50.3906 317.822 48.7305 320.752 45.4102C321.077 45.0846 321.501 44.5638 322.021 43.8477C324.17 41.3737 325.993 39.8763 327.49 39.3555C328.141 39.1602 328.825 39.0625 329.541 39.0625C334.554 39.0625 337.419 41.9596 338.135 47.7539C338.265 48.6654 338.33 49.6094 338.33 50.5859C338.33 56.4453 336.735 62.0443 333.545 67.3828C330.615 72.2005 327.49 74.6419 324.17 74.707H292.432C280.583 74.6419 274.626 71.5169 274.561 65.332C274.561 62.8581 275.635 59.7005 277.783 55.8594C279.801 52.3438 281.071 49.5117 281.592 47.3633ZM394.482 12.793C394.482 17.2852 393.473 20.8659 391.455 23.5352C390.283 24.9674 389.014 25.7161 387.646 25.7812C387.256 25.7812 386.833 25.7161 386.377 25.5859C385.205 25.1953 383.968 23.6979 382.666 21.0938C381.234 18.2292 379.932 16.4714 378.76 15.8203C378.044 15.4948 377.295 15.332 376.514 15.332C373.844 15.332 371.989 16.5039 370.947 18.8477C370.752 19.3685 370.654 19.8568 370.654 20.3125C370.654 21.9401 372.51 23.6003 376.221 25.293C377.002 25.6185 378.239 26.1393 379.932 26.8555C386.898 29.7852 391.781 32.5195 394.58 35.0586C398.812 38.9648 400.928 43.7174 400.928 49.3164C400.928 56.4779 398.193 62.4674 392.725 67.2852C386.475 72.819 377.848 75.5859 366.846 75.5859C355.387 75.5859 347.998 72.1354 344.678 65.2344C343.115 61.9792 342.334 57.8776 342.334 52.9297C342.334 47.3307 343.701 43.2943 346.436 40.8203C347.738 39.6484 349.17 39.0625 350.732 39.0625C352.881 39.0625 355.192 40.4297 357.666 43.1641C360.205 45.9635 361.963 47.6888 362.939 48.3398C364.958 49.707 367.074 50.3906 369.287 50.3906C372.087 50.3906 373.91 49.6419 374.756 48.1445C374.886 47.8841 374.951 47.6237 374.951 47.3633C374.951 46.2565 372.998 44.401 369.092 41.7969C362.907 37.7604 358.968 35.026 357.275 33.5938C352.132 29.1667 349.528 24.8372 349.463 20.6055C349.463 15.8529 352.067 11.3607 357.275 7.12891C363.395 2.57161 369.84 0.195312 376.611 0C377.523 0 380.322 0.358073 385.01 1.07422C386.377 1.26953 387.516 1.36719 388.428 1.36719C388.818 1.36719 389.242 1.43229 389.697 1.5625C392.041 2.34375 393.538 4.98047 394.189 9.47266C394.385 10.5794 394.482 11.6862 394.482 12.793ZM383.74 4.19922C382.699 4.26432 382.145 4.65495 382.08 5.37109C382.08 6.28255 382.796 7.03125 384.229 7.61719C384.814 7.8776 385.368 8.00781 385.889 8.00781C386.93 7.94271 387.484 7.55208 387.549 6.83594C387.549 5.92448 386.833 5.17578 385.4 4.58984C384.814 4.32943 384.261 4.19922 383.74 4.19922ZM455.811 12.793C455.811 17.2852 454.801 20.8659 452.783 23.5352C451.611 24.9674 450.342 25.7161 448.975 25.7812C448.584 25.7812 448.161 25.7161 447.705 25.5859C446.533 25.1953 445.296 23.6979 443.994 21.0938C442.562 18.2292 441.26 16.4714 440.088 15.8203C439.372 15.4948 438.623 15.332 437.842 15.332C435.173 15.332 433.317 16.5039 432.275 18.8477C432.08 19.3685 431.982 19.8568 431.982 20.3125C431.982 21.9401 433.838 23.6003 437.549 25.293C438.33 25.6185 439.567 26.1393 441.26 26.8555C448.226 29.7852 453.109 32.5195 455.908 35.0586C460.14 38.9648 462.256 43.7174 462.256 49.3164C462.256 56.4779 459.521 62.4674 454.053 67.2852C447.803 72.819 439.176 75.5859 428.174 75.5859C416.715 75.5859 409.326 72.1354 406.006 65.2344C404.443 61.9792 403.662 57.8776 403.662 52.9297C403.662 47.3307 405.029 43.2943 407.764 40.8203C409.066 39.6484 410.498 39.0625 412.061 39.0625C414.209 39.0625 416.52 40.4297 418.994 43.1641C421.533 45.9635 423.291 47.6888 424.268 48.3398C426.286 49.707 428.402 50.3906 430.615 50.3906C433.415 50.3906 435.238 49.6419 436.084 48.1445C436.214 47.8841 436.279 47.6237 436.279 47.3633C436.279 46.2565 434.326 44.401 430.42 41.7969C424.235 37.7604 420.296 35.026 418.604 33.5938C413.46 29.1667 410.856 24.8372 410.791 20.6055C410.791 15.8529 413.395 11.3607 418.604 7.12891C424.723 2.57161 431.169 0.195312 437.939 0C438.851 0 441.65 0.358073 446.338 1.07422C447.705 1.26953 448.844 1.36719 449.756 1.36719C450.146 1.36719 450.57 1.43229 451.025 1.5625C453.369 2.34375 454.867 4.98047 455.518 9.47266C455.713 10.5794 455.811 11.6862 455.811 12.793ZM445.068 4.19922C444.027 4.26432 443.473 4.65495 443.408 5.37109C443.408 6.28255 444.124 7.03125 445.557 7.61719C446.143 7.8776 446.696 8.00781 447.217 8.00781C448.258 7.94271 448.812 7.55208 448.877 6.83594C448.877 5.92448 448.161 5.17578 446.729 4.58984C446.143 4.32943 445.589 4.19922 445.068 4.19922ZM53.6133 115.199C52.5065 115.264 51.9206 115.655 51.8555 116.371C51.8555 117.283 52.5716 118.031 54.0039 118.617C54.5898 118.878 55.1432 119.008 55.6641 119.008C56.7708 118.943 57.3568 118.552 57.4219 117.836C57.4219 116.924 56.7057 116.176 55.2734 115.59C54.6875 115.329 54.1341 115.199 53.6133 115.199ZM41.9922 138.441C41.9922 146.254 42.7409 153.48 44.2383 160.121C44.694 162.139 46.0286 165.069 48.2422 168.91C50.1302 172.165 51.0742 174.965 51.0742 177.309C50.944 183.493 45.0195 186.618 33.3008 186.684C21.5169 186.618 15.5924 183.493 15.5273 177.309C15.5273 174.835 16.6016 171.677 18.75 167.836C20.7031 164.32 21.9401 161.488 22.4609 159.34C23.5026 154.913 24.0234 149.509 24.0234 143.129C24.0234 138.116 23.5677 133.591 22.6562 129.555C22.1354 127.667 21.1914 126.69 19.8242 126.625C17.4805 126.625 14.4531 128.611 10.7422 132.582C10.6771 132.647 10.612 132.712 10.5469 132.777C8.85417 134.991 7.35677 136.26 6.05469 136.586C5.59896 136.716 5.14323 136.781 4.6875 136.781C2.08333 136.781 0.553385 134.763 0.0976562 130.727C0.0325521 130.076 0 129.424 0 128.773C0 124.151 1.36719 120.049 4.10156 116.469C5.85938 114.255 7.61719 113.116 9.375 113.051H56.3477C58.7565 113.051 61.0026 114.906 63.0859 118.617C64.9089 121.872 65.8203 125.258 65.8203 128.773C65.8203 133.07 64.681 135.674 62.4023 136.586C61.9466 136.716 61.4909 136.781 61.0352 136.781C59.2122 136.781 57.4544 135.707 55.7617 133.559C55.5664 133.298 55.3711 133.038 55.1758 132.777C53.6133 130.824 51.6927 129.164 49.4141 127.797C47.9818 126.951 46.7773 126.527 45.8008 126.527C43.2617 126.983 41.9922 130.954 41.9922 138.441ZM91.2109 115.395C89.7786 115.46 89.0299 115.915 88.9648 116.762C88.9648 117.608 89.7135 118.227 91.2109 118.617C91.6667 118.747 92.0898 118.812 92.4805 118.812C93.9128 118.747 94.6615 118.292 94.7266 117.445C94.7266 116.599 93.9779 115.98 92.4805 115.59C92.0247 115.46 91.6016 115.395 91.2109 115.395ZM127.148 115.395C125.651 115.46 124.87 115.915 124.805 116.762C124.805 117.608 125.553 118.227 127.051 118.617C127.507 118.747 127.93 118.812 128.32 118.812C129.818 118.747 130.599 118.292 130.664 117.445C130.664 116.599 129.915 115.98 128.418 115.59C127.962 115.46 127.539 115.395 127.148 115.395ZM131.738 159.34C132.194 161.553 133.561 164.646 135.84 168.617C137.793 172.003 138.77 174.867 138.77 177.211C138.639 183.461 132.682 186.618 120.898 186.684C113.672 186.684 108.952 184.893 106.738 181.312C106.087 180.271 105.762 179.164 105.762 177.992C105.762 177.016 106.348 175.16 107.52 172.426C108.887 169.105 109.831 165.492 110.352 161.586C110.677 159.372 110.84 157.582 110.84 156.215C110.84 152.243 109.277 149.867 106.152 149.086C105.176 148.891 104.102 148.793 102.93 148.793C98.4375 148.793 95.8659 150.421 95.2148 153.676C95.0846 154.457 95.0195 155.303 95.0195 156.215C95.0195 157.777 95.1823 159.568 95.5078 161.586C96.0286 165.622 97.2331 169.822 99.1211 174.184C99.7721 175.746 100.098 177.016 100.098 177.992C100.098 181.182 98.112 183.591 94.1406 185.219C91.6667 186.195 88.737 186.684 85.3516 186.684H84.9609C73.112 186.618 67.1549 183.461 67.0898 177.211C67.0898 174.737 68.1641 171.612 70.3125 167.836C72.3307 164.32 73.6003 161.488 74.1211 159.34C75.3581 154.001 75.9766 147.784 75.9766 140.688C75.9766 136.651 75.6185 132.94 74.9023 129.555C74.5117 127.927 73.3073 125.388 71.2891 121.938C70.2474 120.049 69.7266 118.617 69.7266 117.641C69.7266 115.167 72.6237 113.474 78.418 112.562C80.5013 112.237 82.6823 112.074 84.9609 112.074C91.9271 112.074 96.6146 113.148 99.0234 115.297C99.7396 116.078 100.13 116.859 100.195 117.641C100.195 118.617 99.3164 120.603 97.5586 123.598C95.5404 127.113 94.5312 130.108 94.5312 132.582C94.5312 136.488 96.7448 138.702 101.172 139.223C101.758 139.288 102.344 139.32 102.93 139.32C108.138 138.734 110.938 136.488 111.328 132.582C111.328 130.043 110.156 126.788 107.812 122.816C106.38 120.342 105.664 118.617 105.664 117.641C105.664 115.167 108.561 113.474 114.355 112.562C116.439 112.237 118.62 112.074 120.898 112.074C127.799 112.074 132.487 113.148 134.961 115.297C135.742 116.013 136.165 116.794 136.23 117.641C136.23 118.682 135.384 120.603 133.691 123.402C132.259 125.811 131.348 127.862 130.957 129.555C130.436 131.964 130.176 135.284 130.176 139.516C130.176 147.654 130.697 154.262 131.738 159.34ZM193.262 115.199C192.22 115.264 191.667 115.655 191.602 116.371C191.602 117.283 192.318 118.031 193.75 118.617C194.336 118.878 194.889 119.008 195.41 119.008C196.452 118.943 197.005 118.552 197.07 117.836C197.07 116.924 196.354 116.176 194.922 115.59C194.336 115.329 193.783 115.199 193.262 115.199ZM150.488 158.363C151.986 152.374 152.734 146.026 152.734 139.32C152.734 135.609 152.409 132.354 151.758 129.555C151.367 127.797 150.163 125.258 148.145 121.938C147.103 120.18 146.582 118.845 146.582 117.934C146.647 114.678 151.758 113.051 161.914 113.051H195.996C198.405 113.051 200.651 114.939 202.734 118.715C204.492 121.97 205.371 125.323 205.371 128.773C205.371 133.266 204.199 135.87 201.855 136.586C201.465 136.716 201.074 136.781 200.684 136.781C198.926 136.781 197.168 135.707 195.41 133.559C193.327 131.02 191.732 129.392 190.625 128.676C188.411 127.178 185.742 126.43 182.617 126.43C178.516 126.43 175.228 127.992 172.754 131.117C171.517 132.68 170.898 134.177 170.898 135.609C170.898 137.628 172.038 138.799 174.316 139.125C174.707 139.19 175.098 139.223 175.488 139.223C176.986 139.223 178.841 138.409 181.055 136.781C182.227 135.935 183.105 135.512 183.691 135.512C185.319 135.512 186.491 137.042 187.207 140.102C187.467 141.339 187.598 142.641 187.598 144.008C187.598 148.044 186.751 150.746 185.059 152.113C184.603 152.439 184.147 152.602 183.691 152.602C183.105 152.602 181.966 151.951 180.273 150.648C178.516 149.411 176.921 148.793 175.488 148.793C172.949 148.858 171.647 149.932 171.582 152.016C171.582 154.359 172.721 156.736 175 159.145C176.562 160.577 177.995 161.326 179.297 161.391C183.268 161.391 186.719 159.73 189.648 156.41C189.974 156.085 190.397 155.564 190.918 154.848C193.066 152.374 194.889 150.876 196.387 150.355C197.038 150.16 197.721 150.062 198.438 150.062C203.451 150.062 206.315 152.96 207.031 158.754C207.161 159.665 207.227 160.609 207.227 161.586C207.227 167.445 205.632 173.044 202.441 178.383C199.512 183.201 196.387 185.642 193.066 185.707H161.328C149.479 185.642 143.522 182.517 143.457 176.332C143.457 173.858 144.531 170.701 146.68 166.859C148.698 163.344 149.967 160.512 150.488 158.363ZM301.855 123.793C301.855 128.285 300.846 131.866 298.828 134.535C297.656 135.967 296.387 136.716 295.02 136.781C294.629 136.781 294.206 136.716 293.75 136.586C292.578 136.195 291.341 134.698 290.039 132.094C288.607 129.229 287.272 127.471 286.035 126.82C285.319 126.495 284.57 126.332 283.789 126.332C280.664 126.332 278.06 128.839 275.977 133.852C274.284 137.823 273.438 142.055 273.438 146.547C273.438 153.839 275.456 158.461 279.492 160.414C280.794 161.065 282.227 161.391 283.789 161.391C286.068 161.391 288.444 159.893 290.918 156.898C293.262 154.034 294.792 152.309 295.508 151.723C296.94 150.616 298.405 150.062 299.902 150.062C303.223 150.062 305.632 152.243 307.129 156.605C307.91 158.884 308.301 161.326 308.301 163.93C308.301 175.648 303.678 182.777 294.434 185.316C291.439 186.163 287.858 186.586 283.691 186.586C269.954 186.586 260.221 181.801 254.492 172.23C251.302 166.957 249.707 160.772 249.707 153.676C249.707 143.845 252.409 134.861 257.812 126.723C263.411 118.129 270.443 113.051 278.906 111.488C280.534 111.163 282.194 111 283.887 111C284.798 111 287.63 111.358 292.383 112.074C293.75 112.27 294.889 112.367 295.801 112.367C296.191 112.367 296.615 112.432 297.07 112.562C299.414 113.344 300.911 115.98 301.562 120.473C301.758 121.579 301.855 122.686 301.855 123.793ZM291.113 115.199C290.072 115.264 289.518 115.655 289.453 116.371C289.453 117.283 290.169 118.031 291.602 118.617C292.188 118.878 292.741 119.008 293.262 119.008C294.303 118.943 294.857 118.552 294.922 117.836C294.922 116.924 294.206 116.176 292.773 115.59C292.188 115.329 291.634 115.199 291.113 115.199ZM345.508 186.586C331.771 186.586 322.038 181.801 316.309 172.23C313.118 166.957 311.523 160.772 311.523 153.676C311.523 143.845 314.225 134.861 319.629 126.723C325.228 118.129 332.259 113.051 340.723 111.488C342.35 111.163 344.01 111 345.703 111C354.818 111 362.663 115.069 369.238 123.207C375.228 130.564 378.711 139.19 379.688 149.086C379.818 150.648 379.883 152.146 379.883 153.578C379.883 164.19 376.53 172.491 369.824 178.48C363.77 183.884 355.664 186.586 345.508 186.586ZM345.605 161.391C350.684 161.391 353.971 158.493 355.469 152.699C355.924 150.811 356.152 148.76 356.152 146.547C356.152 140.362 354.753 135.121 351.953 130.824C350 127.895 347.884 126.397 345.605 126.332C342.48 126.332 339.876 128.839 337.793 133.852C336.1 137.823 335.254 142.055 335.254 146.547C335.254 153.839 337.272 158.461 341.309 160.414C342.611 161.065 344.043 161.391 345.605 161.391ZM353.711 115.199C352.669 115.264 352.116 115.655 352.051 116.371C352.051 117.283 352.767 118.031 354.199 118.617C354.785 118.878 355.339 119.008 355.859 119.008C356.901 118.943 357.454 118.552 357.52 117.836C357.52 116.924 356.803 116.176 355.371 115.59C354.785 115.329 354.232 115.199 353.711 115.199ZM389.16 158.363C390.658 152.374 391.406 146.026 391.406 139.32C391.406 135.609 391.081 132.354 390.43 129.555C390.039 127.797 388.835 125.258 386.816 121.938C385.775 120.18 385.254 118.845 385.254 117.934C385.254 115.264 388.151 113.441 393.945 112.465C396.029 112.139 398.242 111.977 400.586 111.977C407.422 111.977 412.109 113.083 414.648 115.297C415.43 116.143 415.853 117.022 415.918 117.934C415.918 118.845 415.104 120.635 413.477 123.305C411.979 125.779 411.003 127.927 410.547 129.75C410.026 131.964 409.766 135.414 409.766 140.102C409.766 148.826 410.482 154.62 411.914 157.484C413.281 160.023 415.299 161.326 417.969 161.391C421.94 161.391 425.391 159.73 428.32 156.41C428.646 156.085 429.069 155.564 429.59 154.848C431.738 152.374 433.561 150.876 435.059 150.355C435.71 150.16 436.393 150.062 437.109 150.062C442.122 150.062 444.987 152.96 445.703 158.754C445.833 159.665 445.898 160.609 445.898 161.586C445.898 167.445 444.303 173.044 441.113 178.383C438.184 183.201 435.059 185.642 431.738 185.707H400C388.151 185.642 382.194 182.517 382.129 176.332C382.129 173.858 383.203 170.701 385.352 166.859C387.37 163.344 388.639 160.512 389.16 158.363ZM482.52 186.586C468.783 186.586 459.049 181.801 453.32 172.23C450.13 166.957 448.535 160.772 448.535 153.676C448.535 143.845 451.237 134.861 456.641 126.723C462.24 118.129 469.271 113.051 477.734 111.488C479.362 111.163 481.022 111 482.715 111C491.829 111 499.674 115.069 506.25 123.207C512.24 130.564 515.723 139.19 516.699 149.086C516.829 150.648 516.895 152.146 516.895 153.578C516.895 164.19 513.542 172.491 506.836 178.48C500.781 183.884 492.676 186.586 482.52 186.586ZM482.617 161.391C487.695 161.391 490.983 158.493 492.48 152.699C492.936 150.811 493.164 148.76 493.164 146.547C493.164 140.362 491.764 135.121 488.965 130.824C487.012 127.895 484.896 126.397 482.617 126.332C479.492 126.332 476.888 128.839 474.805 133.852C473.112 137.823 472.266 142.055 472.266 146.547C472.266 153.839 474.284 158.461 478.32 160.414C479.622 161.065 481.055 161.391 482.617 161.391ZM490.723 115.199C489.681 115.264 489.128 115.655 489.062 116.371C489.062 117.283 489.779 118.031 491.211 118.617C491.797 118.878 492.35 119.008 492.871 119.008C493.913 118.943 494.466 118.552 494.531 117.836C494.531 116.924 493.815 116.176 492.383 115.59C491.797 115.329 491.243 115.199 490.723 115.199ZM564.355 116.176C563.314 116.241 562.76 116.664 562.695 117.445C562.695 118.357 563.411 119.073 564.844 119.594C565.43 119.854 565.983 119.984 566.504 119.984C567.546 119.919 568.099 119.529 568.164 118.812C568.164 117.901 567.448 117.152 566.016 116.566C565.43 116.306 564.876 116.176 564.355 116.176ZM562.5 133.461C562.5 131.052 561.328 129.099 558.984 127.602C557.682 126.755 556.315 126.332 554.883 126.332C550.911 126.332 548.34 127.667 547.168 130.336C546.908 131.052 546.777 131.736 546.777 132.387C546.777 134.926 548.372 136.749 551.562 137.855C552.865 138.246 554.167 138.441 555.469 138.441C558.854 138.441 561.068 137.4 562.109 135.316C562.37 134.73 562.5 134.112 562.5 133.461ZM526.465 159.34C527.897 153.155 528.613 147.458 528.613 142.25C528.613 138.214 528.125 133.982 527.148 129.555C526.758 127.927 525.553 125.388 523.535 121.938C522.493 120.049 521.973 118.617 521.973 117.641C521.973 115.232 524.772 113.539 530.371 112.562C532.52 112.172 534.831 111.977 537.305 111.977H554.883C566.667 111.977 574.642 115.297 578.809 121.938C580.436 124.542 581.25 127.276 581.25 130.141C581.25 135.479 578.906 139.646 574.219 142.641C573.242 143.357 572.721 143.78 572.656 143.91C572.656 144.236 573.568 145.505 575.391 147.719C578.971 152.276 581.771 157.159 583.789 162.367C584.44 164.06 586.035 165.818 588.574 167.641C591.048 169.333 592.643 170.863 593.359 172.23C593.945 173.467 594.238 174.9 594.238 176.527C594.238 181.866 591.211 185.089 585.156 186.195C583.138 186.521 580.697 186.684 577.832 186.684C569.434 186.684 564.128 185.349 561.914 182.68C560.807 181.247 560.254 179.392 560.254 177.113C560.124 165.915 558.919 157.712 556.641 152.504C555.404 149.835 554.004 148.467 552.441 148.402C550.618 148.402 549.154 149.574 548.047 151.918C547.461 153.22 547.168 154.62 547.168 156.117C547.168 158.135 547.363 159.958 547.754 161.586C548.47 164.516 549.447 167.999 550.684 172.035C551.855 176.007 552.441 178.708 552.441 180.141C552.311 184.503 547.266 186.684 537.305 186.684C525.521 186.618 519.596 183.461 519.531 177.211C519.531 174.737 520.605 171.612 522.754 167.836C524.707 164.32 525.944 161.488 526.465 159.34Z" fill="#BC26A1"/>
</svg>
