<svg width="215" height="195" viewBox="0 0 215 195" fill="none" xmlns="http://www.w3.org/2000/svg">
<g filter="url(#filter0_dd_131_85)">
<path d="M45.0952 66.07C45.0952 67.5167 44.8386 68.59 44.3252 69.29C43.8119 69.99 42.9952 70.6667 41.8752 71.32C41.2219 71.6933 40.4052 72.0667 39.4252 72.44C38.4452 72.7667 37.3719 73.0467 36.2052 73.28C35.0386 73.56 33.8019 73.77 32.4952 73.91C31.2352 74.05 29.9752 74.12 28.7152 74.12C25.3552 74.12 22.2052 73.6767 19.2652 72.79C16.3252 71.8567 13.7586 70.48 11.5652 68.66C9.41857 66.7933 7.71523 64.4833 6.45523 61.73C5.19523 58.9767 4.56523 55.78 4.56523 52.14C4.56523 48.3133 5.2419 44.9767 6.59523 42.13C7.99523 39.2833 9.81523 36.9267 12.0552 35.06C14.3419 33.1467 16.9319 31.7233 19.8252 30.79C22.7652 29.8567 25.7752 29.39 28.8552 29.39C33.2886 29.39 36.7886 30.1133 39.3552 31.56C41.9686 32.96 43.2752 34.8033 43.2752 37.09C43.2752 38.3033 42.9719 39.3533 42.3652 40.24C41.7586 41.1267 41.0586 41.8267 40.2652 42.34C39.0986 41.64 37.6286 40.9633 35.8552 40.31C34.1286 39.61 32.1686 39.26 29.9752 39.26C26.0552 39.26 22.9286 40.38 20.5952 42.62C18.3086 44.86 17.1652 47.9633 17.1652 51.93C17.1652 54.0767 17.4686 55.9433 18.0752 57.53C18.7286 59.07 19.5919 60.3533 20.6652 61.38C21.7386 62.36 22.9752 63.1067 24.3752 63.62C25.7752 64.0867 27.2686 64.32 28.8552 64.32C29.8819 64.32 30.7919 64.2267 31.5852 64.04C32.3786 63.8533 32.9852 63.6433 33.4052 63.41V56.83H25.9152C25.6352 56.3167 25.3552 55.64 25.0752 54.8C24.8419 53.96 24.7252 53.0733 24.7252 52.14C24.7252 50.46 25.0986 49.2467 25.8452 48.5C26.6386 47.7533 27.6419 47.38 28.8552 47.38H40.6852C42.0852 47.38 43.1586 47.7767 43.9052 48.57C44.6986 49.3167 45.0952 50.39 45.0952 51.79V66.07ZM90.7396 57.32C90.7396 59.84 90.2963 62.15 89.4096 64.25C88.5696 66.3033 87.3329 68.0767 85.6996 69.57C84.0663 71.0167 82.0829 72.1367 79.7496 72.93C77.4163 73.7233 74.7796 74.12 71.8396 74.12C68.8996 74.12 66.2629 73.7233 63.9296 72.93C61.5963 72.1367 59.6129 71.0167 57.9796 69.57C56.3463 68.0767 55.0863 66.3033 54.1996 64.25C53.3596 62.15 52.9396 59.84 52.9396 57.32V30.58C53.4529 30.4867 54.2696 30.37 55.3896 30.23C56.5096 30.0433 57.5829 29.95 58.6096 29.95C59.6829 29.95 60.6163 30.0433 61.4096 30.23C62.2496 30.37 62.9496 30.65 63.5096 31.07C64.0696 31.49 64.4896 32.0733 64.7696 32.82C65.0496 33.5667 65.1896 34.5467 65.1896 35.76V57.11C65.1896 59.35 65.7963 61.1 67.0096 62.36C68.2696 63.62 69.8796 64.25 71.8396 64.25C73.8463 64.25 75.4563 63.62 76.6696 62.36C77.8829 61.1 78.4896 59.35 78.4896 57.11V30.58C79.0029 30.4867 79.8196 30.37 80.9396 30.23C82.0596 30.0433 83.1329 29.95 84.1596 29.95C85.2329 29.95 86.1663 30.0433 86.9596 30.23C87.7996 30.37 88.4996 30.65 89.0596 31.07C89.6196 31.49 90.0396 32.0733 90.3196 32.82C90.5996 33.5667 90.7396 34.5467 90.7396 35.76V57.32ZM99.634 37.09C99.634 35.0833 100.217 33.4967 101.384 32.33C102.551 31.1633 104.137 30.58 106.144 30.58H129.244C129.571 31.0933 129.851 31.77 130.084 32.61C130.364 33.45 130.504 34.3367 130.504 35.27C130.504 37.0433 130.107 38.3033 129.314 39.05C128.567 39.7967 127.564 40.17 126.304 40.17H111.534V46.68H127.284C127.611 47.1933 127.891 47.87 128.124 48.71C128.404 49.5033 128.544 50.3667 128.544 51.3C128.544 53.0733 128.171 54.3333 127.424 55.08C126.677 55.8267 125.674 56.2 124.414 56.2H111.534V63.55H129.524C129.851 64.0633 130.131 64.74 130.364 65.58C130.644 66.42 130.784 67.3067 130.784 68.24C130.784 70.0133 130.387 71.2967 129.594 72.09C128.847 72.8367 127.844 73.21 126.584 73.21H106.144C104.137 73.21 102.551 72.6267 101.384 71.46C100.217 70.2933 99.634 68.7067 99.634 66.7V37.09ZM150.365 56.13C148.312 55.43 146.445 54.73 144.765 54.03C143.085 53.2833 141.639 52.3967 140.425 51.37C139.212 50.3433 138.255 49.13 137.555 47.73C136.902 46.2833 136.575 44.5333 136.575 42.48C136.575 38.5133 138.092 35.34 141.125 32.96C144.205 30.58 148.499 29.39 154.005 29.39C156.012 29.39 157.879 29.53 159.605 29.81C161.332 30.09 162.802 30.5333 164.015 31.14C165.275 31.7 166.255 32.4467 166.955 33.38C167.655 34.2667 168.005 35.3167 168.005 36.53C168.005 37.7433 167.725 38.7933 167.165 39.68C166.605 40.52 165.929 41.2433 165.135 41.85C164.109 41.1967 162.732 40.6367 161.005 40.17C159.279 39.6567 157.389 39.4 155.335 39.4C153.235 39.4 151.695 39.7033 150.715 40.31C149.735 40.87 149.245 41.5933 149.245 42.48C149.245 43.18 149.549 43.7633 150.155 44.23C150.762 44.65 151.672 45.0467 152.885 45.42L156.595 46.61C160.982 48.01 164.342 49.8067 166.675 52C169.055 54.1467 170.245 57.0867 170.245 60.82C170.245 64.7867 168.682 68.0067 165.555 70.48C162.429 72.9067 157.832 74.12 151.765 74.12C149.619 74.12 147.612 73.9333 145.745 73.56C143.925 73.2333 142.315 72.7433 140.915 72.09C139.562 71.39 138.489 70.55 137.695 69.57C136.949 68.5433 136.575 67.3767 136.575 66.07C136.575 64.7167 136.972 63.5733 137.765 62.64C138.559 61.66 139.422 60.9133 140.355 60.4C141.662 61.4267 143.249 62.3133 145.115 63.06C147.029 63.8067 149.105 64.18 151.345 64.18C153.632 64.18 155.242 63.83 156.175 63.13C157.109 62.43 157.575 61.6133 157.575 60.68C157.575 59.7467 157.202 59.0467 156.455 58.58C155.709 58.0667 154.659 57.5767 153.305 57.11L150.365 56.13ZM188.92 56.13C186.867 55.43 185 54.73 183.32 54.03C181.64 53.2833 180.193 52.3967 178.98 51.37C177.767 50.3433 176.81 49.13 176.11 47.73C175.457 46.2833 175.13 44.5333 175.13 42.48C175.13 38.5133 176.647 35.34 179.68 32.96C182.76 30.58 187.053 29.39 192.56 29.39C194.567 29.39 196.433 29.53 198.16 29.81C199.887 30.09 201.357 30.5333 202.57 31.14C203.83 31.7 204.81 32.4467 205.51 33.38C206.21 34.2667 206.56 35.3167 206.56 36.53C206.56 37.7433 206.28 38.7933 205.72 39.68C205.16 40.52 204.483 41.2433 203.69 41.85C202.663 41.1967 201.287 40.6367 199.56 40.17C197.833 39.6567 195.943 39.4 193.89 39.4C191.79 39.4 190.25 39.7033 189.27 40.31C188.29 40.87 187.8 41.5933 187.8 42.48C187.8 43.18 188.103 43.7633 188.71 44.23C189.317 44.65 190.227 45.0467 191.44 45.42L195.15 46.61C199.537 48.01 202.897 49.8067 205.23 52C207.61 54.1467 208.8 57.0867 208.8 60.82C208.8 64.7867 207.237 68.0067 204.11 70.48C200.983 72.9067 196.387 74.12 190.32 74.12C188.173 74.12 186.167 73.9333 184.3 73.56C182.48 73.2333 180.87 72.7433 179.47 72.09C178.117 71.39 177.043 70.55 176.25 69.57C175.503 68.5433 175.13 67.3767 175.13 66.07C175.13 64.7167 175.527 63.5733 176.32 62.64C177.113 61.66 177.977 60.9133 178.91 60.4C180.217 61.4267 181.803 62.3133 183.67 63.06C185.583 63.8067 187.66 64.18 189.9 64.18C192.187 64.18 193.797 63.83 194.73 63.13C195.663 62.43 196.13 61.6133 196.13 60.68C196.13 59.7467 195.757 59.0467 195.01 58.58C194.263 58.0667 193.213 57.5767 191.86 57.11L188.92 56.13Z" fill="#00F5D4"/>
</g>
<g filter="url(#filter1_dd_131_85)">
<path d="M26.595 129.12C23.0017 129.12 20.2484 130.217 18.335 132.41C16.4217 134.603 15.465 137.707 15.465 141.72C15.465 145.78 16.515 148.907 18.615 151.1C20.7617 153.293 23.6317 154.39 27.225 154.39C29.1384 154.39 30.7484 154.133 32.055 153.62C33.4084 153.107 34.6917 152.523 35.905 151.87C36.6984 152.523 37.305 153.317 37.725 154.25C38.1917 155.137 38.425 156.187 38.425 157.4C38.425 159.313 37.3517 160.947 35.205 162.3C33.105 163.607 29.885 164.26 25.545 164.26C22.4184 164.26 19.4784 163.817 16.725 162.93C13.9717 162.043 11.5684 160.69 9.51504 158.87C7.46171 157.003 5.82837 154.67 4.61504 151.87C3.44837 149.023 2.86504 145.64 2.86504 141.72C2.86504 138.08 3.42504 134.883 4.54504 132.13C5.71171 129.33 7.27504 126.973 9.23504 125.06C11.2417 123.147 13.575 121.7 16.235 120.72C18.895 119.74 21.7417 119.25 24.775 119.25C29.0684 119.25 32.3817 119.95 34.715 121.35C37.095 122.75 38.285 124.547 38.285 126.74C38.285 127.953 37.9817 129.003 37.375 129.89C36.7684 130.777 36.0684 131.477 35.275 131.99C34.0617 131.197 32.755 130.52 31.355 129.96C30.0017 129.4 28.415 129.12 26.595 129.12ZM42.1717 141.72C42.1717 138.08 42.7317 134.86 43.8517 132.06C45.0183 129.26 46.5817 126.927 48.5417 125.06C50.5483 123.147 52.8817 121.7 55.5417 120.72C58.2483 119.74 61.165 119.25 64.2917 119.25C67.4183 119.25 70.3117 119.74 72.9717 120.72C75.6783 121.7 78.035 123.147 80.0417 125.06C82.0483 126.927 83.6117 129.26 84.7317 132.06C85.8983 134.86 86.4817 138.08 86.4817 141.72C86.4817 145.36 85.9217 148.603 84.8017 151.45C83.6817 154.25 82.1183 156.607 80.1117 158.52C78.1517 160.387 75.8183 161.81 73.1117 162.79C70.405 163.77 67.465 164.26 64.2917 164.26C61.1183 164.26 58.1783 163.77 55.4717 162.79C52.765 161.763 50.4317 160.293 48.4717 158.38C46.5117 156.467 44.9717 154.11 43.8517 151.31C42.7317 148.51 42.1717 145.313 42.1717 141.72ZM54.7717 141.72C54.7717 145.967 55.635 149.14 57.3617 151.24C59.0883 153.34 61.3983 154.39 64.2917 154.39C67.2317 154.39 69.565 153.34 71.2917 151.24C73.0183 149.14 73.8817 145.967 73.8817 141.72C73.8817 137.52 73.0183 134.37 71.2917 132.27C69.6117 130.17 67.3017 129.12 64.3617 129.12C61.4683 129.12 59.135 130.17 57.3617 132.27C55.635 134.323 54.7717 137.473 54.7717 141.72ZM100 163.21C97.9938 163.21 96.4071 162.627 95.2404 161.46C94.0738 160.293 93.4904 158.707 93.4904 156.7V120.51C94.0038 120.417 94.8204 120.3 95.9404 120.16C97.0604 119.973 98.1338 119.88 99.1604 119.88C100.234 119.88 101.167 119.973 101.96 120.16C102.8 120.3 103.5 120.58 104.06 121C104.62 121.42 105.04 122.003 105.32 122.75C105.6 123.497 105.74 124.477 105.74 125.69V153.34H121.77C122.097 153.853 122.4 154.553 122.68 155.44C122.96 156.28 123.1 157.167 123.1 158.1C123.1 159.967 122.704 161.297 121.91 162.09C121.117 162.837 120.067 163.21 118.76 163.21H100ZM125.16 141.72C125.16 138.08 125.72 134.86 126.84 132.06C128.007 129.26 129.57 126.927 131.53 125.06C133.537 123.147 135.87 121.7 138.53 120.72C141.237 119.74 144.153 119.25 147.28 119.25C150.407 119.25 153.3 119.74 155.96 120.72C158.667 121.7 161.023 123.147 163.03 125.06C165.037 126.927 166.6 129.26 167.72 132.06C168.887 134.86 169.47 138.08 169.47 141.72C169.47 145.36 168.91 148.603 167.79 151.45C166.67 154.25 165.107 156.607 163.1 158.52C161.14 160.387 158.807 161.81 156.1 162.79C153.393 163.77 150.453 164.26 147.28 164.26C144.107 164.26 141.167 163.77 138.46 162.79C135.753 161.763 133.42 160.293 131.46 158.38C129.5 156.467 127.96 154.11 126.84 151.31C125.72 148.51 125.16 145.313 125.16 141.72ZM137.76 141.72C137.76 145.967 138.623 149.14 140.35 151.24C142.077 153.34 144.387 154.39 147.28 154.39C150.22 154.39 152.553 153.34 154.28 151.24C156.007 149.14 156.87 145.967 156.87 141.72C156.87 137.52 156.007 134.37 154.28 132.27C152.6 130.17 150.29 129.12 147.35 129.12C144.457 129.12 142.123 130.17 140.35 132.27C138.623 134.323 137.76 137.473 137.76 141.72ZM188.659 149.28V162.72C188.145 162.86 187.329 163 186.209 163.14C185.135 163.28 184.062 163.35 182.989 163.35C181.915 163.35 180.959 163.257 180.119 163.07C179.325 162.93 178.649 162.65 178.089 162.23C177.575 161.81 177.179 161.227 176.899 160.48C176.619 159.733 176.479 158.753 176.479 157.54V124.57C176.479 123.59 176.735 122.843 177.249 122.33C177.809 121.77 178.555 121.327 179.489 121C181.075 120.44 182.919 120.043 185.019 119.81C187.119 119.53 189.359 119.39 191.739 119.39C198.179 119.39 203.032 120.743 206.299 123.45C209.565 126.157 211.199 129.82 211.199 134.44C211.199 137.333 210.452 139.807 208.959 141.86C207.465 143.913 205.692 145.5 203.639 146.62C205.319 148.907 206.975 151.053 208.609 153.06C210.242 155.067 211.525 156.887 212.459 158.52C211.992 160.153 211.129 161.413 209.869 162.3C208.655 163.14 207.279 163.56 205.739 163.56C204.712 163.56 203.825 163.443 203.079 163.21C202.332 162.977 201.679 162.65 201.119 162.23C200.559 161.81 200.045 161.297 199.579 160.69C199.112 160.083 198.669 159.43 198.249 158.73L192.369 149.28H188.659ZM193.069 139.97C194.842 139.97 196.242 139.527 197.269 138.64C198.295 137.707 198.809 136.353 198.809 134.58C198.809 132.807 198.225 131.477 197.059 130.59C195.939 129.657 194.142 129.19 191.669 129.19C190.969 129.19 190.409 129.213 189.989 129.26C189.569 129.307 189.102 129.377 188.589 129.47V139.97H193.069Z" fill="#FFD60A"/>
</g>
<g filter="url(#filter2_dd_131_85)">
<path d="M64.9652 87.7C64.7319 87.3333 64.5152 86.8333 64.3152 86.2C64.1152 85.5667 64.0152 84.9 64.0152 84.2C64.0152 82.9 64.2986 81.9667 64.8652 81.4C65.4652 80.8333 66.2319 80.55 67.1652 80.55H88.9652C89.1986 80.9167 89.4152 81.4167 89.6152 82.05C89.8152 82.6833 89.9152 83.35 89.9152 84.05C89.9152 85.35 89.6152 86.2833 89.0152 86.85C88.4486 87.4167 87.6986 87.7 86.7652 87.7H81.2152V110.8C80.8486 110.9 80.2652 111 79.4652 111.1C78.6986 111.2 77.9319 111.25 77.1652 111.25C76.3986 111.25 75.7152 111.183 75.1152 111.05C74.5486 110.95 74.0652 110.75 73.6652 110.45C73.2652 110.15 72.9652 109.733 72.7652 109.2C72.5652 108.667 72.4652 107.967 72.4652 107.1V87.7H64.9652ZM121.248 110.8C120.882 110.9 120.298 111 119.498 111.1C118.732 111.2 117.965 111.25 117.198 111.25C116.432 111.25 115.748 111.183 115.148 111.05C114.582 110.95 114.098 110.75 113.698 110.45C113.298 110.15 112.998 109.733 112.798 109.2C112.598 108.667 112.498 107.967 112.498 107.1V99.3H102.898V110.8C102.532 110.9 101.948 111 101.148 111.1C100.382 111.2 99.6151 111.25 98.8484 111.25C98.0818 111.25 97.3984 111.183 96.7984 111.05C96.2318 110.95 95.7484 110.75 95.3484 110.45C94.9484 110.15 94.6484 109.733 94.4484 109.2C94.2484 108.667 94.1484 107.967 94.1484 107.1V80.7C94.5151 80.6333 95.0984 80.55 95.8984 80.45C96.6984 80.3167 97.4651 80.25 98.1984 80.25C98.9651 80.25 99.6318 80.3167 100.198 80.45C100.798 80.55 101.298 80.75 101.698 81.05C102.098 81.35 102.398 81.7667 102.598 82.3C102.798 82.8333 102.898 83.5333 102.898 84.4V92.4H112.498V80.7C112.865 80.6333 113.448 80.55 114.248 80.45C115.048 80.3167 115.815 80.25 116.548 80.25C117.315 80.25 117.982 80.3167 118.548 80.45C119.148 80.55 119.648 80.75 120.048 81.05C120.448 81.35 120.748 81.7667 120.948 82.3C121.148 82.8333 121.248 83.5333 121.248 84.4V110.8ZM127.742 85.35C127.742 83.9167 128.159 82.7833 128.992 81.95C129.826 81.1167 130.959 80.7 132.392 80.7H148.892C149.126 81.0667 149.326 81.55 149.492 82.15C149.692 82.75 149.792 83.3833 149.792 84.05C149.792 85.3167 149.509 86.2167 148.942 86.75C148.409 87.2833 147.692 87.55 146.792 87.55H136.242V92.2H147.492C147.726 92.5667 147.926 93.05 148.092 93.65C148.292 94.2167 148.392 94.8333 148.392 95.5C148.392 96.7667 148.126 97.6667 147.592 98.2C147.059 98.7333 146.342 99 145.442 99H136.242V104.25H149.092C149.326 104.617 149.526 105.1 149.692 105.7C149.892 106.3 149.992 106.933 149.992 107.6C149.992 108.867 149.709 109.783 149.142 110.35C148.609 110.883 147.892 111.15 146.992 111.15H132.392C130.959 111.15 129.826 110.733 128.992 109.9C128.159 109.067 127.742 107.933 127.742 106.5V85.35Z" fill="#FF00E2"/>
</g>
<defs>
<filter id="filter0_dd_131_85" x="2.56519" y="27.3899" width="206.235" height="52.7302" filterUnits="userSpaceOnUse" color-interpolation-filters="sRGB">
<feFlood flood-opacity="0" result="BackgroundImageFix"/>
<feColorMatrix in="SourceAlpha" type="matrix" values="0 0 0 0 0 0 0 0 0 0 0 0 0 0 0 0 0 0 127 0" result="hardAlpha"/>
<feOffset dx="-2" dy="-2"/>
<feComposite in2="hardAlpha" operator="out"/>
<feColorMatrix type="matrix" values="0 0 0 0 1 0 0 0 0 1 0 0 0 0 1 0 0 0 1 0"/>
<feBlend mode="normal" in2="BackgroundImageFix" result="effect1_dropShadow_131_85"/>
<feColorMatrix in="SourceAlpha" type="matrix" values="0 0 0 0 0 0 0 0 0 0 0 0 0 0 0 0 0 0 127 0" result="hardAlpha"/>
<feOffset dy="6"/>
<feComposite in2="hardAlpha" operator="out"/>
<feColorMatrix type="matrix" values="0 0 0 0 0.205128 0 0 0 0 0.205128 0 0 0 0 0.205128 0 0 0 0.25 0"/>
<feBlend mode="normal" in2="effect1_dropShadow_131_85" result="effect2_dropShadow_131_85"/>
<feBlend mode="normal" in="SourceGraphic" in2="effect2_dropShadow_131_85" result="shape"/>
</filter>
<filter id="filter1_dd_131_85" x="0.86499" y="117.25" width="211.594" height="53.01" filterUnits="userSpaceOnUse" color-interpolation-filters="sRGB">
<feFlood flood-opacity="0" result="BackgroundImageFix"/>
<feColorMatrix in="SourceAlpha" type="matrix" values="0 0 0 0 0 0 0 0 0 0 0 0 0 0 0 0 0 0 127 0" result="hardAlpha"/>
<feOffset dx="-2" dy="-2"/>
<feComposite in2="hardAlpha" operator="out"/>
<feColorMatrix type="matrix" values="0 0 0 0 1 0 0 0 0 1 0 0 0 0 1 0 0 0 1 0"/>
<feBlend mode="normal" in2="BackgroundImageFix" result="effect1_dropShadow_131_85"/>
<feColorMatrix in="SourceAlpha" type="matrix" values="0 0 0 0 0 0 0 0 0 0 0 0 0 0 0 0 0 0 127 0" result="hardAlpha"/>
<feOffset dy="6"/>
<feComposite in2="hardAlpha" operator="out"/>
<feColorMatrix type="matrix" values="0 0 0 0 0.205128 0 0 0 0 0.205128 0 0 0 0 0.205128 0 0 0 0.25 0"/>
<feBlend mode="normal" in2="effect1_dropShadow_131_85" result="effect2_dropShadow_131_85"/>
<feBlend mode="normal" in="SourceGraphic" in2="effect2_dropShadow_131_85" result="shape"/>
</filter>
<filter id="filter2_dd_131_85" x="62.0153" y="78.25" width="87.9769" height="39" filterUnits="userSpaceOnUse" color-interpolation-filters="sRGB">
<feFlood flood-opacity="0" result="BackgroundImageFix"/>
<feColorMatrix in="SourceAlpha" type="matrix" values="0 0 0 0 0 0 0 0 0 0 0 0 0 0 0 0 0 0 127 0" result="hardAlpha"/>
<feOffset dx="-2" dy="-2"/>
<feComposite in2="hardAlpha" operator="out"/>
<feColorMatrix type="matrix" values="0 0 0 0 1 0 0 0 0 1 0 0 0 0 1 0 0 0 1 0"/>
<feBlend mode="normal" in2="BackgroundImageFix" result="effect1_dropShadow_131_85"/>
<feColorMatrix in="SourceAlpha" type="matrix" values="0 0 0 0 0 0 0 0 0 0 0 0 0 0 0 0 0 0 127 0" result="hardAlpha"/>
<feOffset dy="6"/>
<feComposite in2="hardAlpha" operator="out"/>
<feColorMatrix type="matrix" values="0 0 0 0 0.205128 0 0 0 0 0.205128 0 0 0 0 0.205128 0 0 0 0.25 0"/>
<feBlend mode="normal" in2="effect1_dropShadow_131_85" result="effect2_dropShadow_131_85"/>
<feBlend mode="normal" in="SourceGraphic" in2="effect2_dropShadow_131_85" result="shape"/>
</filter>
</defs>
</svg>
