<svg width="36" height="36" viewBox="0 0 36 36" fill="none" xmlns="http://www.w3.org/2000/svg">
<mask id="mask0_107_19" style="mask-type:luminance" maskUnits="userSpaceOnUse" x="0" y="0" width="36" height="36">
<path d="M0 -1.43051e-06H36V36H0V-1.43051e-06Z" fill="white"/>
</mask>
<g mask="url(#mask0_107_19)">
<path d="M25.8829 33.21C26.7087 33.6499 27.4811 33.7203 28.0177 33.334C28.5541 32.9477 28.7323 32.1931 28.5773 31.2705L27.3322 23.8662C27.182 22.9729 27.4816 22.0632 28.1329 21.4336L33.4073 16.334C34.0807 15.6829 34.3844 14.967 34.1837 14.334C33.983 13.7011 33.3228 13.2915 32.3976 13.1475L25.0314 12.002C24.152 11.8651 23.3935 11.3105 22.9952 10.5146L19.7062 3.94336C19.4061 3.29787 18.6711 3.01368 18.007 3.01367C17.3477 3.01369 16.6225 3.29543 16.3488 3.94434L12.8292 10.9766C12.5757 11.4828 12.0928 11.8348 11.5333 11.9219L3.65735 13.1475C2.73213 13.2915 2.07196 13.7011 1.87122 14.334C1.67049 14.967 1.97417 15.6829 2.64758 16.334L7.92297 21.4336C8.57401 22.0632 8.87291 22.973 8.72278 23.8662L7.47766 31.2705C7.32257 32.1931 7.5008 32.9477 8.03723 33.334C8.57379 33.7203 9.34628 33.6499 10.172 33.21L16.7345 29.7139C17.5427 29.2833 18.5122 29.2833 19.3204 29.7139L25.8829 33.21Z" stroke="#733911" stroke-width="0.5"/>
<path d="M26.8235 22.3511L28.3307 31.312Z" fill="#FFDD15"/>
</g>
</svg>
