<svg width="36" height="36" viewBox="0 0 36 36" fill="none" xmlns="http://www.w3.org/2000/svg">
<mask id="mask0_107_3" style="mask-type:luminance" maskUnits="userSpaceOnUse" x="0" y="0" width="36" height="36">
<path d="M0 -1.43051e-06H36V36H0V-1.43051e-06Z" fill="white"/>
</mask>
<g mask="url(#mask0_107_3)">
<path d="M25.8829 33.21C26.7087 33.6499 27.4811 33.7203 28.0177 33.334C28.5541 32.9477 28.7323 32.1931 28.5773 31.2705L27.3322 23.8662C27.182 22.9729 27.4816 22.0632 28.1329 21.4336L33.4073 16.334C34.0807 15.6829 34.3844 14.967 34.1837 14.334C33.983 13.7011 33.3228 13.2915 32.3976 13.1475L25.0314 12.002C24.152 11.8651 23.3935 11.3105 22.9952 10.5146L19.7062 3.94336C19.4061 3.29787 18.6711 3.01368 18.007 3.01367C17.3477 3.01369 16.6225 3.29543 16.3488 3.94434L12.8292 10.9766C12.5757 11.4828 12.0928 11.8348 11.5333 11.9219L3.65735 13.1475C2.73213 13.2915 2.07196 13.7011 1.87122 14.334C1.67049 14.967 1.97417 15.6829 2.64758 16.334L7.92297 21.4336C8.57401 22.0632 8.87291 22.973 8.72278 23.8662L7.47766 31.2705C7.32257 32.1931 7.5008 32.9477 8.03723 33.334C8.57379 33.7203 9.34628 33.6499 10.172 33.21L16.7345 29.7139C17.5427 29.2833 18.5122 29.2833 19.3204 29.7139L25.8829 33.21Z" fill="#FFCE00" stroke="#733911" stroke-width="0.5"/>
<path d="M26.8235 22.3511L28.3307 31.312Z" fill="#FFDD15"/>
<path d="M25.5149 21.9205L31.1303 16.4917C22.2416 15.7275 14.5692 17.475 8.50391 19.9522L10.54 21.9205L8.92649 31.5142C8.87234 31.8364 9.18959 32.0688 9.48097 31.9134L18.0275 27.3606L26.5739 31.9134C26.8653 32.0688 27.1826 31.8367 27.1284 31.5142L25.5149 21.9205Z" fill="#F7A623"/>
<path d="M8.55768 19.9649L10.5892 21.9332L10.0299 25.2656C13.7311 23.6359 19.7516 21.8795 26.2718 21.2151L31.1332 16.5045C22.2644 15.7404 14.6093 17.4878 8.55768 19.9649Z" fill="#FFB729"/>
<path d="M9.88067 31.9626C9.88067 32.4396 9.46555 32.8262 8.95367 32.8262C8.44166 32.8262 8.02667 32.4396 8.02667 31.9626C8.02667 31.4856 8.44166 31.099 8.95367 31.099C9.46555 31.099 9.88067 31.4856 9.88067 31.9626Z" fill="#FFF100"/>
</g>
</svg>
